<mxfile host="65bd71144e">
    <diagram id="aQ1zsnSKY22zylrKqLEf" name="Page-1">
        <mxGraphModel dx="4324" dy="2357" grid="1" gridSize="10" guides="1" tooltips="1" connect="1" arrows="1" fold="1" page="1" pageScale="1" pageWidth="850" pageHeight="1100" background="#ffffff" math="0" shadow="0">
            <root>
                <mxCell id="0"/>
                <mxCell id="1" parent="0"/>
                <mxCell id="341" value="" style="whiteSpace=wrap;html=1;labelBackgroundColor=none;fillColor=#f5f5f5;gradientColor=#b3b3b3;strokeColor=#666666;" vertex="1" parent="1">
                    <mxGeometry x="-580" width="1890" height="1460" as="geometry"/>
                </mxCell>
                <mxCell id="2" value="" style="strokeWidth=1;shadow=0;dashed=0;align=center;html=1;shape=mxgraph.mockup.containers.browserWindow;rSize=0;strokeColor=#666666;strokeColor2=#008cff;strokeColor3=#c4c4c4;mainText=,;recursiveResize=0;" vertex="1" parent="1">
                    <mxGeometry x="225" y="70" width="400" height="370" as="geometry"/>
                </mxCell>
                <mxCell id="3" value="MindMetrics" style="strokeWidth=1;shadow=0;dashed=0;align=center;html=1;shape=mxgraph.mockup.containers.anchor;fontSize=17;fontColor=#666666;align=left;whiteSpace=wrap;" vertex="1" parent="2">
                    <mxGeometry x="60" y="12" width="110" height="26" as="geometry"/>
                </mxCell>
                <mxCell id="4" value="https://www.mindmetrics/login" style="strokeWidth=1;shadow=0;dashed=0;align=center;html=1;shape=mxgraph.mockup.containers.anchor;rSize=0;fontSize=17;fontColor=#666666;align=left;" vertex="1" parent="2">
                    <mxGeometry x="130" y="60" width="250" height="26" as="geometry"/>
                </mxCell>
                <mxCell id="10" value="Login" style="swimlane;whiteSpace=wrap;html=1;" vertex="1" parent="2">
                    <mxGeometry x="125" y="210" width="150" height="130" as="geometry"/>
                </mxCell>
                <mxCell id="7" value="&lt;font style=&quot;font-size: 11px;&quot;&gt;Username&lt;/font&gt;" style="strokeWidth=1;shadow=0;dashed=0;align=center;html=1;shape=mxgraph.mockup.text.textBox;fontColor=#666666;align=left;fontSize=12;spacingLeft=4;spacingTop=-3;whiteSpace=wrap;strokeColor=#666666;mainText=" vertex="1" parent="10">
                    <mxGeometry x="32.25" y="37.5" width="85" height="15" as="geometry"/>
                </mxCell>
                <mxCell id="8" value="&lt;font style=&quot;font-size: 11px;&quot;&gt;Password&lt;/font&gt;" style="strokeWidth=1;shadow=0;dashed=0;align=center;html=1;shape=mxgraph.mockup.text.textBox;fontColor=#666666;align=left;fontSize=12;spacingLeft=4;spacingTop=-3;whiteSpace=wrap;strokeColor=#666666;mainText=" vertex="1" parent="10">
                    <mxGeometry x="32.25" y="60" width="85" height="15" as="geometry"/>
                </mxCell>
                <mxCell id="11" value="Login" style="rounded=1;html=1;shadow=0;dashed=0;whiteSpace=wrap;fontSize=10;fillColor=#666666;align=center;strokeColor=#4D4D4D;fontColor=#ffffff;" vertex="1" parent="10">
                    <mxGeometry x="22" y="87.5" width="105.5" height="16.88" as="geometry"/>
                </mxCell>
                <mxCell id="6" value="Sign Up" style="shape=rectangle;strokeColor=none;fillColor=none;linkText=;fontSize=8;fontColor=#0000ff;fontStyle=4;html=1;align=center;" vertex="1" parent="10">
                    <mxGeometry x="53" y="107.5" width="45" height="10" as="geometry"/>
                </mxCell>
                <mxCell id="12" value="" style="image;html=1;image=img/lib/atlassian/Clover_Logo.svg;" vertex="1" parent="2">
                    <mxGeometry x="165" y="120" width="71" height="71" as="geometry"/>
                </mxCell>
                <mxCell id="17" value="" style="strokeWidth=1;shadow=0;dashed=0;align=center;html=1;shape=mxgraph.mockup.containers.browserWindow;rSize=0;strokeColor=#666666;strokeColor2=#008cff;strokeColor3=#c4c4c4;mainText=,;recursiveResize=0;" vertex="1" parent="1">
                    <mxGeometry x="770" y="70" width="400" height="370" as="geometry"/>
                </mxCell>
                <mxCell id="18" value="MindMetrics" style="strokeWidth=1;shadow=0;dashed=0;align=center;html=1;shape=mxgraph.mockup.containers.anchor;fontSize=17;fontColor=#666666;align=left;whiteSpace=wrap;" vertex="1" parent="17">
                    <mxGeometry x="60" y="12" width="110" height="26" as="geometry"/>
                </mxCell>
                <mxCell id="19" value="https://www.mindmetrics/signup" style="strokeWidth=1;shadow=0;dashed=0;align=center;html=1;shape=mxgraph.mockup.containers.anchor;rSize=0;fontSize=17;fontColor=#666666;align=left;" vertex="1" parent="17">
                    <mxGeometry x="130" y="60" width="250" height="26" as="geometry"/>
                </mxCell>
                <mxCell id="20" value="Sign Up" style="swimlane;whiteSpace=wrap;html=1;" vertex="1" parent="17">
                    <mxGeometry x="125" y="170" width="150" height="180" as="geometry"/>
                </mxCell>
                <mxCell id="21" value="&lt;font style=&quot;font-size: 11px;&quot;&gt;Username&lt;/font&gt;" style="strokeWidth=1;shadow=0;dashed=0;align=center;html=1;shape=mxgraph.mockup.text.textBox;fontColor=#666666;align=left;fontSize=12;spacingLeft=4;spacingTop=-3;whiteSpace=wrap;strokeColor=#666666;mainText=" vertex="1" parent="20">
                    <mxGeometry x="32.25" y="37.5" width="85" height="15" as="geometry"/>
                </mxCell>
                <mxCell id="22" value="&lt;font style=&quot;font-size: 11px;&quot;&gt;Password&lt;/font&gt;" style="strokeWidth=1;shadow=0;dashed=0;align=center;html=1;shape=mxgraph.mockup.text.textBox;fontColor=#666666;align=left;fontSize=12;spacingLeft=4;spacingTop=-3;whiteSpace=wrap;strokeColor=#666666;mainText=" vertex="1" parent="20">
                    <mxGeometry x="32.25" y="60" width="85" height="15" as="geometry"/>
                </mxCell>
                <mxCell id="23" value="Sign Up" style="rounded=1;html=1;shadow=0;dashed=0;whiteSpace=wrap;fontSize=10;fillColor=#666666;align=center;strokeColor=#4D4D4D;fontColor=#ffffff;" vertex="1" parent="20">
                    <mxGeometry x="22" y="130" width="105.5" height="16.88" as="geometry"/>
                </mxCell>
                <mxCell id="24" value="Login" style="shape=rectangle;strokeColor=none;fillColor=none;linkText=;fontSize=8;fontColor=#0000ff;fontStyle=4;html=1;align=center;" vertex="1" parent="20">
                    <mxGeometry x="53" y="150" width="45" height="10" as="geometry"/>
                </mxCell>
                <mxCell id="40" value="&lt;font style=&quot;font-size: 9px;&quot;&gt;Confirm Password&lt;/font&gt;" style="strokeWidth=1;shadow=0;dashed=0;align=center;html=1;shape=mxgraph.mockup.text.textBox;fontColor=#666666;align=left;fontSize=12;spacingLeft=4;spacingTop=-3;whiteSpace=wrap;strokeColor=#666666;mainText=" vertex="1" parent="20">
                    <mxGeometry x="32.25" y="82.5" width="85" height="15" as="geometry"/>
                </mxCell>
                <mxCell id="41" value="&lt;font style=&quot;font-size: 11px;&quot;&gt;I am a...&lt;/font&gt;" style="strokeWidth=1;shadow=0;dashed=0;align=center;html=1;shape=mxgraph.mockup.text.textBox;fontColor=#666666;align=left;fontSize=12;spacingLeft=4;spacingTop=-3;whiteSpace=wrap;strokeColor=#666666;mainText=" vertex="1" parent="20">
                    <mxGeometry x="32.25" y="105" width="85" height="15" as="geometry"/>
                </mxCell>
                <mxCell id="25" value="" style="image;html=1;image=img/lib/atlassian/Clover_Logo.svg;" vertex="1" parent="17">
                    <mxGeometry x="180" y="120" width="40" height="40" as="geometry"/>
                </mxCell>
                <mxCell id="42" value="" style="swimlane;strokeColor=#666666;swimlaneFillColor=#FFFFFF;fillColor=#ffffff;fontColor=#008CFF;fontStyle=0;childLayout=stackLayout;horizontal=1;startSize=0;horizontalStack=0;resizeParent=1;resizeParentMax=0;resizeLast=0;collapsible=0;marginBottom=0;whiteSpace=wrap;html=1;fontSize=17;" vertex="1" parent="17">
                    <mxGeometry x="290" y="220" width="100" height="78" as="geometry"/>
                </mxCell>
                <mxCell id="43" value="&lt;font style=&quot;color: rgb(0, 0, 0);&quot;&gt;User Type&lt;/font&gt;" style="text;spacing=0;strokeColor=inherit;align=center;verticalAlign=middle;overflow=hidden;points=[[0,0.5],[1,0.5]];portConstraint=eastwest;rotatable=0;whiteSpace=wrap;html=1;fillColor=inherit;fontColor=#666666;fontStyle=1;fontSize=17;" vertex="1" parent="42">
                    <mxGeometry width="100" height="26" as="geometry"/>
                </mxCell>
                <mxCell id="44" value="Patient" style="text;spacing=0;strokeColor=inherit;align=center;verticalAlign=middle;overflow=hidden;points=[[0,0.5],[1,0.5]];portConstraint=eastwest;rotatable=0;whiteSpace=wrap;html=1;rSize=5;fillColor=inherit;fontStyle=1;fontColor=#666666;fontSize=17;" vertex="1" parent="42">
                    <mxGeometry y="26" width="100" height="26" as="geometry"/>
                </mxCell>
                <mxCell id="45" value="Specialist" style="text;spacing=0;strokeColor=#008CFF;align=center;verticalAlign=middle;overflow=hidden;points=[[0,0.5],[1,0.5]];portConstraint=eastwest;rotatable=0;whiteSpace=wrap;html=1;rSize=5;fillColor=#008CFF;fontStyle=1;fontColor=#ffffff;fontSize=17;" vertex="1" parent="42">
                    <mxGeometry y="52" width="100" height="26" as="geometry"/>
                </mxCell>
                <mxCell id="49" style="edgeStyle=none;html=1;entryX=0;entryY=0.5;entryDx=0;entryDy=0;" edge="1" parent="17" source="41" target="45">
                    <mxGeometry relative="1" as="geometry"/>
                </mxCell>
                <mxCell id="28" style="edgeStyle=none;html=1;" edge="1" parent="1" source="24" target="2">
                    <mxGeometry relative="1" as="geometry"/>
                </mxCell>
                <mxCell id="29" style="edgeStyle=none;html=1;" edge="1" parent="1" source="6" target="17">
                    <mxGeometry relative="1" as="geometry">
                        <mxPoint x="730" y="400" as="targetPoint"/>
                    </mxGeometry>
                </mxCell>
                <mxCell id="30" value="" style="strokeWidth=1;shadow=0;dashed=0;align=center;html=1;shape=mxgraph.mockup.containers.browserWindow;rSize=0;strokeColor=#666666;strokeColor2=#008cff;strokeColor3=#c4c4c4;mainText=,;recursiveResize=0;" vertex="1" parent="1">
                    <mxGeometry x="153" y="530" width="450" height="428" as="geometry"/>
                </mxCell>
                <mxCell id="31" value="MindMetrics" style="strokeWidth=1;shadow=0;dashed=0;align=center;html=1;shape=mxgraph.mockup.containers.anchor;fontSize=17;fontColor=#666666;align=left;whiteSpace=wrap;" vertex="1" parent="30">
                    <mxGeometry x="60" y="12" width="110" height="26" as="geometry"/>
                </mxCell>
                <mxCell id="32" value="https://www.mindmetrics/home" style="strokeWidth=1;shadow=0;dashed=0;align=center;html=1;shape=mxgraph.mockup.containers.anchor;rSize=0;fontSize=17;fontColor=#666666;align=left;" vertex="1" parent="30">
                    <mxGeometry x="130" y="60" width="250" height="26" as="geometry"/>
                </mxCell>
                <mxCell id="38" value="" style="image;html=1;image=img/lib/atlassian/Clover_Logo.svg;" vertex="1" parent="30">
                    <mxGeometry x="380" y="120" width="35" height="30" as="geometry"/>
                </mxCell>
                <mxCell id="88" value="Home" style="html=1;fillColor=none;strokeColor=none;fontSize=11;align=left;fontColor=#3384FF;fontStyle=1;whiteSpace=wrap" vertex="1" parent="30">
                    <mxGeometry x="17" y="120" width="50" height="20" as="geometry"/>
                </mxCell>
                <mxCell id="89" value="Games" style="html=1;fillColor=none;strokeColor=none;fontSize=11;align=left;fontColor=#596780;fontStyle=1;whiteSpace=wrap" vertex="1" parent="30">
                    <mxGeometry x="87" y="120" width="40" height="20" as="geometry"/>
                </mxCell>
                <mxCell id="90" value="Reports" style="html=1;fillColor=none;strokeColor=none;fontSize=11;align=left;fontColor=#596780;fontStyle=1;whiteSpace=wrap" vertex="1" parent="30">
                    <mxGeometry x="147" y="120" width="60" height="20" as="geometry"/>
                </mxCell>
                <mxCell id="91" value="Logout" style="html=1;fillColor=none;strokeColor=none;fontSize=11;align=left;fontColor=#596780;fontStyle=1;whiteSpace=wrap" vertex="1" parent="30">
                    <mxGeometry x="217" y="120" width="43" height="20" as="geometry"/>
                </mxCell>
                <mxCell id="92" value="" style="shape=line;strokeWidth=2;html=1;strokeColor=#DFE1E5;resizeWidth=1" vertex="1" parent="30">
                    <mxGeometry x="17" y="140" width="350" height="10" as="geometry"/>
                </mxCell>
                <mxCell id="93" value="" style="shape=line;strokeWidth=2;html=1;strokeColor=#3384FF;resizeWidth=1" vertex="1" parent="30">
                    <mxGeometry x="17" y="140" width="40" height="10" as="geometry"/>
                </mxCell>
                <mxCell id="186" value="Add / Accept Patient" style="strokeColor=none;fillColor=none;fontSize=12;fontColor=#596780;align=left;html=1;sketch=1;hachureGap=4;pointerEvents=0;fontFamily=Helvetica;" vertex="1" parent="30">
                    <mxGeometry x="37" y="321" width="140" height="20" as="geometry"/>
                </mxCell>
                <mxCell id="200" value="" style="verticalLabelPosition=bottom;verticalAlign=top;html=1;shadow=0;dashed=0;strokeWidth=1;shape=mxgraph.ios.iAddIcon;fillColor=#7AdF78;fillColor2=#1A9917;strokeColor=#ffffff;sketch=0;" vertex="1" parent="30">
                    <mxGeometry x="17" y="323.5" width="15" height="15" as="geometry"/>
                </mxCell>
                <mxCell id="194" value="" style="shape=line;strokeWidth=2;html=1;strokeColor=#DFE1E5;resizeWidth=1;sketch=1;hachureGap=4;pointerEvents=0;fontFamily=Architects Daughter;fontSource=https%3A%2F%2Ffonts.googleapis.com%2Fcss%3Ffamily%3DArchitects%2BDaughter;fontSize=20;" vertex="1" parent="30">
                    <mxGeometry x="17" y="370" width="393" height="10" as="geometry"/>
                </mxCell>
                <mxCell id="167" value="#10258" style="strokeColor=none;fillColor=none;fontSize=12;fontColor=#596780;align=left;html=1;sketch=1;hachureGap=4;pointerEvents=0;fontFamily=Architects Daughter;fontSource=https%3A%2F%2Ffonts.googleapis.com%2Fcss%3Ffamily%3DArchitects%2BDaughter;" vertex="1" parent="30">
                    <mxGeometry x="197" y="231" width="50" height="20" as="geometry"/>
                </mxCell>
                <mxCell id="183" value="#10267" style="strokeColor=none;fillColor=none;fontSize=12;fontColor=#596780;align=left;html=1;sketch=1;hachureGap=4;pointerEvents=0;fontFamily=Architects Daughter;fontSource=https%3A%2F%2Ffonts.googleapis.com%2Fcss%3Ffamily%3DArchitects%2BDaughter;" vertex="1" parent="30">
                    <mxGeometry x="197" y="290" width="50" height="20" as="geometry"/>
                </mxCell>
                <mxCell id="166" value="Complete" style="strokeColor=none;fillColor=none;fontSize=12;fontColor=#007FFF;align=left;html=1;sketch=1;hachureGap=4;pointerEvents=0;fontFamily=Helvetica;" vertex="1" parent="30">
                    <mxGeometry x="260" y="231" width="60" height="20" as="geometry"/>
                </mxCell>
                <mxCell id="174" value="Pending" style="strokeColor=none;fillColor=none;fontSize=12;fontColor=#596780;align=left;html=1;sketch=1;hachureGap=4;pointerEvents=0;fontFamily=Helvetica;" vertex="1" parent="30">
                    <mxGeometry x="260" y="260" width="50" height="20" as="geometry"/>
                </mxCell>
                <mxCell id="182" value="Complete" style="strokeColor=none;fillColor=none;fontSize=12;fontColor=#007FFF;align=left;html=1;sketch=1;hachureGap=4;pointerEvents=0;fontFamily=Helvetica;" vertex="1" parent="30">
                    <mxGeometry x="260" y="290" width="50" height="20" as="geometry"/>
                </mxCell>
                <mxCell id="201" value="Status" style="html=1;fillColor=none;strokeColor=none;fontSize=11;align=left;fontColor=#596780;whiteSpace=wrap;sketch=1;hachureGap=4;pointerEvents=0;fontFamily=Helvetica;fontStyle=1" vertex="1" parent="30">
                    <mxGeometry x="252" y="200" width="40" height="20" as="geometry"/>
                </mxCell>
                <mxCell id="198" value="View" style="strokeColor=none;fillColor=#CCE0FF;fontSize=11;fontColor=#3384FF;rounded=1;html=1;align=center;fontStyle=1;sketch=1;hachureGap=4;pointerEvents=0;fontFamily=Architects Daughter;fontSource=https%3A%2F%2Ffonts.googleapis.com%2Fcss%3Ffamily%3DArchitects%2BDaughter;" vertex="1" parent="30">
                    <mxGeometry x="337" y="259.5" width="40" height="20" as="geometry"/>
                </mxCell>
                <mxCell id="168" value="View" style="strokeColor=none;fillColor=#CCE0FF;fontSize=11;fontColor=#3384FF;rounded=1;html=1;align=center;fontStyle=1;sketch=1;hachureGap=4;pointerEvents=0;fontFamily=Architects Daughter;fontSource=https%3A%2F%2Ffonts.googleapis.com%2Fcss%3Ffamily%3DArchitects%2BDaughter;" vertex="1" parent="30">
                    <mxGeometry x="337" y="230.5" width="40" height="20" as="geometry"/>
                </mxCell>
                <mxCell id="199" value="View" style="strokeColor=none;fillColor=#CCE0FF;fontSize=11;fontColor=#3384FF;rounded=1;html=1;align=center;fontStyle=1;sketch=1;hachureGap=4;pointerEvents=0;fontFamily=Architects Daughter;fontSource=https%3A%2F%2Ffonts.googleapis.com%2Fcss%3Ffamily%3DArchitects%2BDaughter;" vertex="1" parent="30">
                    <mxGeometry x="337" y="289.5" width="40" height="20" as="geometry"/>
                </mxCell>
                <mxCell id="258" style="edgeStyle=none;html=1;" edge="1" parent="30" source="185" target="255">
                    <mxGeometry relative="1" as="geometry"/>
                </mxCell>
                <mxCell id="185" value="&amp;#8226;&amp;#8226;&amp;#8226;" style="shape=ellipse;fillColor=#0057D8;strokeColor=none;fontColor=#ffffff;align=center;verticalAlign=middle;whiteSpace=wrap;fontSize=10;fontStyle=0;html=1;sketch=0;hachureGap=4;pointerEvents=0;fontFamily=Architects Daughter;fontSource=https%3A%2F%2Ffonts.googleapis.com%2Fcss%3Ffamily%3DArchitects%2BDaughter;" vertex="1" parent="30">
                    <mxGeometry x="392" y="292.5" width="16" height="16" as="geometry"/>
                </mxCell>
                <mxCell id="177" value="&amp;#8226;&amp;#8226;&amp;#8226;" style="shape=ellipse;fillColor=#0057D8;strokeColor=none;fontColor=#ffffff;align=center;verticalAlign=middle;whiteSpace=wrap;fontSize=10;fontStyle=0;html=1;sketch=0;hachureGap=4;pointerEvents=0;fontFamily=Architects Daughter;fontSource=https%3A%2F%2Ffonts.googleapis.com%2Fcss%3Ffamily%3DArchitects%2BDaughter;" vertex="1" parent="30">
                    <mxGeometry x="392" y="262.5" width="16" height="16" as="geometry"/>
                </mxCell>
                <mxCell id="169" value="&amp;#8226;&amp;#8226;&amp;#8226;" style="shape=ellipse;fillColor=#0057D8;strokeColor=none;fontColor=#ffffff;align=center;verticalAlign=middle;whiteSpace=wrap;fontSize=10;fontStyle=0;html=1;sketch=0;hachureGap=4;pointerEvents=0;fontFamily=Architects Daughter;fontSource=https%3A%2F%2Ffonts.googleapis.com%2Fcss%3Ffamily%3DArchitects%2BDaughter;" vertex="1" parent="30">
                    <mxGeometry x="392" y="232.5" width="16" height="16" as="geometry"/>
                </mxCell>
                <mxCell id="254" value="" style="swimlane;strokeColor=#666666;swimlaneFillColor=#FFFFFF;fillColor=#ffffff;fontColor=#008CFF;fontStyle=0;childLayout=stackLayout;horizontal=1;startSize=0;horizontalStack=0;resizeParent=1;resizeParentMax=0;resizeLast=0;collapsible=0;marginBottom=0;whiteSpace=wrap;html=1;fontSize=17;" vertex="1" parent="30">
                    <mxGeometry x="327" y="330" width="100" height="78" as="geometry"/>
                </mxCell>
                <mxCell id="255" value="&lt;font style=&quot;color: rgb(0, 0, 0); font-size: 14px;&quot;&gt;Options&lt;/font&gt;" style="text;spacing=0;strokeColor=inherit;align=center;verticalAlign=middle;overflow=hidden;points=[[0,0.5],[1,0.5]];portConstraint=eastwest;rotatable=0;whiteSpace=wrap;html=1;fillColor=inherit;fontColor=#666666;fontStyle=1;fontSize=17;" vertex="1" parent="254">
                    <mxGeometry width="100" height="26" as="geometry"/>
                </mxCell>
                <mxCell id="256" value="&lt;font style=&quot;font-size: 10px;&quot;&gt;Remove&lt;/font&gt;" style="text;spacing=0;strokeColor=inherit;align=center;verticalAlign=middle;overflow=hidden;points=[[0,0.5],[1,0.5]];portConstraint=eastwest;rotatable=0;whiteSpace=wrap;html=1;rSize=5;fillColor=inherit;fontStyle=1;fontColor=#666666;fontSize=17;" vertex="1" parent="254">
                    <mxGeometry y="26" width="100" height="26" as="geometry"/>
                </mxCell>
                <mxCell id="257" value="&lt;font style=&quot;font-size: 10px;&quot;&gt;Assign Game&lt;/font&gt;" style="text;spacing=0;strokeColor=#008CFF;align=center;verticalAlign=middle;overflow=hidden;points=[[0,0.5],[1,0.5]];portConstraint=eastwest;rotatable=0;whiteSpace=wrap;html=1;rSize=5;fillColor=#008CFF;fontStyle=1;fontColor=#ffffff;fontSize=17;" vertex="1" parent="254">
                    <mxGeometry y="52" width="100" height="26" as="geometry"/>
                </mxCell>
                <mxCell id="39" style="edgeStyle=none;html=1;entryX=0.499;entryY=-0.009;entryDx=0;entryDy=0;entryPerimeter=0;" edge="1" parent="1" source="11" target="30">
                    <mxGeometry relative="1" as="geometry"/>
                </mxCell>
                <mxCell id="51" value="Normal" style="whiteSpace=wrap;html=1;shadow=0;dashed=0;fontSize=10;align=left;fillColor=#FFFFFF;strokeColor=#FFFFFF;fontColor=#4D4D4D;" vertex="1" parent="1">
                    <mxGeometry x="1010" y="400" width="168.8" height="16.88" as="geometry"/>
                </mxCell>
                <mxCell id="146" value="&lt;font face=&quot;Helvetica&quot;&gt;Welcome, Specialist!&amp;nbsp;&lt;/font&gt;" style="html=1;fillColor=none;strokeColor=none;fontSize=12;align=left;fontColor=#000000;whiteSpace=wrap;sketch=1;hachureGap=4;pointerEvents=0;fontFamily=Architects Daughter;fontSource=https%3A%2F%2Ffonts.googleapis.com%2Fcss%3Ffamily%3DArchitects%2BDaughter;fontStyle=1" vertex="1" parent="1">
                    <mxGeometry x="170" y="700" width="150" height="20" as="geometry"/>
                </mxCell>
                <mxCell id="147" value="Case" style="html=1;fillColor=none;strokeColor=none;fontSize=11;align=left;fontColor=#596780;whiteSpace=wrap;sketch=1;hachureGap=4;pointerEvents=0;fontFamily=Helvetica;fontStyle=1" vertex="1" parent="1">
                    <mxGeometry x="350" y="731" width="40" height="20" as="geometry"/>
                </mxCell>
                <mxCell id="152" value="" style="shape=line;strokeWidth=2;html=1;strokeColor=#DFE1E5;resizeWidth=1;sketch=1;hachureGap=4;pointerEvents=0;fontFamily=Architects Daughter;fontSource=https%3A%2F%2Ffonts.googleapis.com%2Fcss%3Ffamily%3DArchitects%2BDaughter;fontSize=20;" vertex="1" parent="1">
                    <mxGeometry x="170" y="720" width="390" height="10" as="geometry"/>
                </mxCell>
                <mxCell id="162" value="Patient A" style="strokeColor=none;fillColor=none;fontSize=12;fontColor=#596780;align=left;html=1;sketch=1;hachureGap=4;pointerEvents=0;fontFamily=Helvetica;" vertex="1" parent="1">
                    <mxGeometry x="170" y="761" width="70" height="20" as="geometry"/>
                </mxCell>
                <mxCell id="170" value="Patient B" style="strokeColor=none;fillColor=none;fontSize=12;fontColor=#596780;align=left;html=1;sketch=1;hachureGap=4;pointerEvents=0;fontFamily=Helvetica;" vertex="1" parent="1">
                    <mxGeometry x="170" y="791" width="70" height="20" as="geometry"/>
                </mxCell>
                <mxCell id="175" value="#10232" style="strokeColor=none;fillColor=none;fontSize=12;fontColor=#596780;align=left;html=1;sketch=1;hachureGap=4;pointerEvents=0;fontFamily=Architects Daughter;fontSource=https%3A%2F%2Ffonts.googleapis.com%2Fcss%3Ffamily%3DArchitects%2BDaughter;" vertex="1" parent="1">
                    <mxGeometry x="350" y="791" width="50" height="20" as="geometry"/>
                </mxCell>
                <mxCell id="178" value="Patient C" style="strokeColor=none;fillColor=none;fontSize=12;fontColor=#596780;align=left;html=1;sketch=1;hachureGap=4;pointerEvents=0;fontFamily=Helvetica;" vertex="1" parent="1">
                    <mxGeometry x="170" y="821" width="60" height="20" as="geometry"/>
                </mxCell>
                <mxCell id="203" value="" style="strokeWidth=1;shadow=0;dashed=0;align=center;html=1;shape=mxgraph.mockup.containers.browserWindow;rSize=0;strokeColor=#666666;strokeColor2=#008cff;strokeColor3=#c4c4c4;mainText=,;recursiveResize=0;" vertex="1" parent="1">
                    <mxGeometry x="640" y="530" width="480" height="360" as="geometry"/>
                </mxCell>
                <mxCell id="204" value="MindMetrics" style="strokeWidth=1;shadow=0;dashed=0;align=center;html=1;shape=mxgraph.mockup.containers.anchor;fontSize=17;fontColor=#666666;align=left;whiteSpace=wrap;" vertex="1" parent="203">
                    <mxGeometry x="60" y="12" width="110" height="26" as="geometry"/>
                </mxCell>
                <mxCell id="205" value="https://www.mindmetrics/reports" style="strokeWidth=1;shadow=0;dashed=0;align=center;html=1;shape=mxgraph.mockup.containers.anchor;rSize=0;fontSize=17;fontColor=#666666;align=left;" vertex="1" parent="203">
                    <mxGeometry x="130" y="60" width="250" height="26" as="geometry"/>
                </mxCell>
                <mxCell id="206" value="" style="image;html=1;image=img/lib/atlassian/Clover_Logo.svg;" vertex="1" parent="203">
                    <mxGeometry x="415" y="120" width="35" height="30" as="geometry"/>
                </mxCell>
                <mxCell id="207" value="Home" style="html=1;fillColor=none;strokeColor=none;fontSize=11;align=left;fontColor=#596780;fontStyle=1;whiteSpace=wrap" vertex="1" parent="203">
                    <mxGeometry x="27" y="120" width="50" height="20" as="geometry"/>
                </mxCell>
                <mxCell id="208" value="Games" style="html=1;fillColor=none;strokeColor=none;fontSize=11;align=left;fontColor=#596780;fontStyle=1;whiteSpace=wrap" vertex="1" parent="203">
                    <mxGeometry x="87" y="120" width="40" height="20" as="geometry"/>
                </mxCell>
                <mxCell id="209" value="Reports" style="html=1;fillColor=none;strokeColor=none;fontSize=11;align=left;fontColor=#007FFF;fontStyle=1;whiteSpace=wrap" vertex="1" parent="203">
                    <mxGeometry x="147" y="120" width="60" height="20" as="geometry"/>
                </mxCell>
                <mxCell id="210" value="Logout" style="html=1;fillColor=none;strokeColor=none;fontSize=11;align=left;fontColor=#596780;fontStyle=1;whiteSpace=wrap" vertex="1" parent="203">
                    <mxGeometry x="217" y="120" width="43" height="20" as="geometry"/>
                </mxCell>
                <mxCell id="211" value="" style="shape=line;strokeWidth=2;html=1;strokeColor=#DFE1E5;resizeWidth=1" vertex="1" parent="203">
                    <mxGeometry x="17" y="140" width="350" height="10" as="geometry"/>
                </mxCell>
                <mxCell id="212" value="" style="shape=line;strokeWidth=2;html=1;strokeColor=#3384FF;resizeWidth=1" vertex="1" parent="203">
                    <mxGeometry x="147" y="140" width="53" height="10" as="geometry"/>
                </mxCell>
                <mxCell id="215" value="" style="shape=line;strokeWidth=2;html=1;strokeColor=#DFE1E5;resizeWidth=1;sketch=1;hachureGap=4;pointerEvents=0;fontFamily=Architects Daughter;fontSource=https%3A%2F%2Ffonts.googleapis.com%2Fcss%3Ffamily%3DArchitects%2BDaughter;fontSize=20;" vertex="1" parent="203">
                    <mxGeometry x="17" y="330" width="423" height="10" as="geometry"/>
                </mxCell>
                <mxCell id="217" value="10/23/25" style="strokeColor=none;fillColor=none;fontSize=12;fontColor=#596780;align=left;html=1;sketch=1;hachureGap=4;pointerEvents=0;fontFamily=Helvetica;" vertex="1" parent="203">
                    <mxGeometry x="187" y="288.5" width="50" height="20" as="geometry"/>
                </mxCell>
                <mxCell id="218" value="Full Diagnostic" style="strokeColor=none;fillColor=none;fontSize=12;fontColor=#007FFF;align=left;html=1;sketch=1;hachureGap=4;pointerEvents=0;fontFamily=Helvetica;" vertex="1" parent="203">
                    <mxGeometry x="260" y="258.5" width="60" height="20" as="geometry"/>
                </mxCell>
                <mxCell id="219" value="Treatment" style="strokeColor=none;fillColor=none;fontSize=12;fontColor=#596780;align=left;html=1;sketch=1;hachureGap=4;pointerEvents=0;fontFamily=Helvetica;" vertex="1" parent="203">
                    <mxGeometry x="260" y="230.5" width="50" height="20" as="geometry"/>
                </mxCell>
                <mxCell id="220" value="Baseline" style="strokeColor=none;fillColor=none;fontSize=12;fontColor=#007FFF;align=left;html=1;sketch=1;hachureGap=4;pointerEvents=0;fontFamily=Helvetica;" vertex="1" parent="203">
                    <mxGeometry x="260" y="290" width="50" height="20" as="geometry"/>
                </mxCell>
                <mxCell id="221" value="Game" style="html=1;fillColor=none;strokeColor=none;fontSize=11;align=left;fontColor=#596780;whiteSpace=wrap;sketch=1;hachureGap=4;pointerEvents=0;fontFamily=Helvetica;fontStyle=1" vertex="1" parent="203">
                    <mxGeometry x="260" y="200" width="40" height="20" as="geometry"/>
                </mxCell>
                <mxCell id="233" value="Session A" style="strokeColor=none;fillColor=none;fontSize=12;fontColor=#596780;align=left;html=1;sketch=1;hachureGap=4;pointerEvents=0;fontFamily=Helvetica;" vertex="1" parent="203">
                    <mxGeometry x="17" y="228.5" width="70" height="20" as="geometry"/>
                </mxCell>
                <mxCell id="234" value="&lt;span style=&quot;color: rgb(89, 103, 128);&quot;&gt;Session&lt;/span&gt;&amp;nbsp;B" style="strokeColor=none;fillColor=none;fontSize=12;fontColor=#596780;align=left;html=1;sketch=1;hachureGap=4;pointerEvents=0;fontFamily=Helvetica;" vertex="1" parent="203">
                    <mxGeometry x="17" y="258.5" width="70" height="20" as="geometry"/>
                </mxCell>
                <mxCell id="235" value="&lt;span style=&quot;color: rgb(89, 103, 128);&quot;&gt;Session&lt;/span&gt;&amp;nbsp;C" style="strokeColor=none;fillColor=none;fontSize=12;fontColor=#596780;align=left;html=1;sketch=1;hachureGap=4;pointerEvents=0;fontFamily=Helvetica;" vertex="1" parent="203">
                    <mxGeometry x="17" y="288.5" width="60" height="20" as="geometry"/>
                </mxCell>
                <mxCell id="239" value="&lt;font face=&quot;Helvetica&quot;&gt;Patient B&lt;/font&gt;" style="html=1;fillColor=none;strokeColor=none;fontSize=12;align=left;fontColor=#000000;whiteSpace=wrap;sketch=1;hachureGap=4;pointerEvents=0;fontFamily=Architects Daughter;fontSource=https%3A%2F%2Ffonts.googleapis.com%2Fcss%3Ffamily%3DArchitects%2BDaughter;fontStyle=1" vertex="1" parent="203">
                    <mxGeometry x="17" y="160" width="150" height="20" as="geometry"/>
                </mxCell>
                <mxCell id="240" value="" style="shape=line;strokeWidth=2;html=1;strokeColor=#DFE1E5;resizeWidth=1;sketch=1;hachureGap=4;pointerEvents=0;fontFamily=Architects Daughter;fontSource=https%3A%2F%2Ffonts.googleapis.com%2Fcss%3Ffamily%3DArchitects%2BDaughter;fontSize=20;" vertex="1" parent="203">
                    <mxGeometry x="17" y="180" width="433" height="10" as="geometry"/>
                </mxCell>
                <mxCell id="242" value="Date" style="html=1;fillColor=none;strokeColor=none;fontSize=11;align=left;fontColor=#596780;whiteSpace=wrap;sketch=1;hachureGap=4;pointerEvents=0;fontFamily=Helvetica;fontStyle=1" vertex="1" parent="203">
                    <mxGeometry x="192" y="200" width="40" height="20" as="geometry"/>
                </mxCell>
                <mxCell id="243" value="10/29/25" style="strokeColor=none;fillColor=none;fontSize=12;fontColor=#596780;align=left;html=1;sketch=1;hachureGap=4;pointerEvents=0;fontFamily=Helvetica;" vertex="1" parent="203">
                    <mxGeometry x="187" y="258.5" width="50" height="20" as="geometry"/>
                </mxCell>
                <mxCell id="244" value="11/12/25" style="strokeColor=none;fillColor=none;fontSize=12;fontColor=#596780;align=left;html=1;sketch=1;hachureGap=4;pointerEvents=0;fontFamily=Helvetica;" vertex="1" parent="203">
                    <mxGeometry x="188.5" y="228.5" width="50" height="20" as="geometry"/>
                </mxCell>
                <mxCell id="330" value="Complete" style="strokeColor=none;fillColor=none;fontSize=12;fontColor=#007FFF;align=left;html=1;sketch=1;hachureGap=4;pointerEvents=0;fontFamily=Helvetica;" vertex="1" parent="203">
                    <mxGeometry x="355" y="258.5" width="60" height="20" as="geometry"/>
                </mxCell>
                <mxCell id="331" value="Pending" style="strokeColor=none;fillColor=none;fontSize=12;fontColor=#596780;align=left;html=1;sketch=1;hachureGap=4;pointerEvents=0;fontFamily=Helvetica;" vertex="1" parent="203">
                    <mxGeometry x="355" y="230.5" width="50" height="20" as="geometry"/>
                </mxCell>
                <mxCell id="332" value="Complete" style="strokeColor=none;fillColor=none;fontSize=12;fontColor=#007FFF;align=left;html=1;sketch=1;hachureGap=4;pointerEvents=0;fontFamily=Helvetica;" vertex="1" parent="203">
                    <mxGeometry x="355" y="290" width="50" height="20" as="geometry"/>
                </mxCell>
                <mxCell id="333" value="Status" style="html=1;fillColor=none;strokeColor=none;fontSize=11;align=left;fontColor=#596780;whiteSpace=wrap;sketch=1;hachureGap=4;pointerEvents=0;fontFamily=Helvetica;fontStyle=1" vertex="1" parent="203">
                    <mxGeometry x="355" y="200" width="40" height="20" as="geometry"/>
                </mxCell>
                <mxCell id="227" value="&amp;#8226;&amp;#8226;&amp;#8226;" style="shape=ellipse;fillColor=#0057D8;strokeColor=none;fontColor=#ffffff;align=center;verticalAlign=middle;whiteSpace=wrap;fontSize=10;fontStyle=0;html=1;sketch=0;hachureGap=4;pointerEvents=0;fontFamily=Architects Daughter;fontSource=https%3A%2F%2Ffonts.googleapis.com%2Fcss%3Ffamily%3DArchitects%2BDaughter;" vertex="1" parent="203">
                    <mxGeometry x="430" y="234" width="16" height="16" as="geometry"/>
                </mxCell>
                <mxCell id="226" value="&amp;#8226;&amp;#8226;&amp;#8226;" style="shape=ellipse;fillColor=#0057D8;strokeColor=none;fontColor=#ffffff;align=center;verticalAlign=middle;whiteSpace=wrap;fontSize=10;fontStyle=0;html=1;sketch=0;hachureGap=4;pointerEvents=0;fontFamily=Architects Daughter;fontSource=https%3A%2F%2Ffonts.googleapis.com%2Fcss%3Ffamily%3DArchitects%2BDaughter;" vertex="1" parent="203">
                    <mxGeometry x="430" y="264" width="16" height="16" as="geometry"/>
                </mxCell>
                <mxCell id="225" value="&amp;#8226;&amp;#8226;&amp;#8226;" style="shape=ellipse;fillColor=#0057D8;strokeColor=none;fontColor=#ffffff;align=center;verticalAlign=middle;whiteSpace=wrap;fontSize=10;fontStyle=0;html=1;sketch=0;hachureGap=4;pointerEvents=0;fontFamily=Architects Daughter;fontSource=https%3A%2F%2Ffonts.googleapis.com%2Fcss%3Ffamily%3DArchitects%2BDaughter;" vertex="1" parent="203">
                    <mxGeometry x="430" y="294" width="16" height="16" as="geometry"/>
                </mxCell>
                <mxCell id="236" style="edgeStyle=none;html=1;entryX=-0.002;entryY=0.668;entryDx=0;entryDy=0;entryPerimeter=0;" edge="1" parent="1" source="198" target="203">
                    <mxGeometry relative="1" as="geometry"/>
                </mxCell>
                <mxCell id="290" value="" style="strokeWidth=1;shadow=0;dashed=0;align=center;html=1;shape=mxgraph.mockup.containers.browserWindow;rSize=0;strokeColor=#666666;strokeColor2=#008cff;strokeColor3=#c4c4c4;mainText=,;recursiveResize=0;" vertex="1" parent="1">
                    <mxGeometry x="156" y="1030" width="447" height="360" as="geometry"/>
                </mxCell>
                <mxCell id="291" value="MindMetrics" style="strokeWidth=1;shadow=0;dashed=0;align=center;html=1;shape=mxgraph.mockup.containers.anchor;fontSize=17;fontColor=#666666;align=left;whiteSpace=wrap;" vertex="1" parent="290">
                    <mxGeometry x="60" y="12" width="110" height="26" as="geometry"/>
                </mxCell>
                <mxCell id="292" value="https://www.mindmetrics/games" style="strokeWidth=1;shadow=0;dashed=0;align=center;html=1;shape=mxgraph.mockup.containers.anchor;rSize=0;fontSize=17;fontColor=#666666;align=left;" vertex="1" parent="290">
                    <mxGeometry x="130" y="60" width="250" height="26" as="geometry"/>
                </mxCell>
                <mxCell id="293" value="" style="image;html=1;image=img/lib/atlassian/Clover_Logo.svg;" vertex="1" parent="290">
                    <mxGeometry x="380" y="120" width="35" height="30" as="geometry"/>
                </mxCell>
                <mxCell id="294" value="Home" style="html=1;fillColor=none;strokeColor=none;fontSize=11;align=left;fontColor=#596780;fontStyle=1;whiteSpace=wrap" vertex="1" parent="290">
                    <mxGeometry x="27" y="120" width="50" height="20" as="geometry"/>
                </mxCell>
                <mxCell id="295" value="Games" style="html=1;fillColor=none;strokeColor=none;fontSize=11;align=left;fontColor=#007FFF;fontStyle=1;whiteSpace=wrap" vertex="1" parent="290">
                    <mxGeometry x="87" y="120" width="40" height="20" as="geometry"/>
                </mxCell>
                <mxCell id="296" value="Reports" style="html=1;fillColor=none;strokeColor=none;fontSize=11;align=left;fontColor=#596780;fontStyle=1;whiteSpace=wrap" vertex="1" parent="290">
                    <mxGeometry x="147" y="120" width="60" height="20" as="geometry"/>
                </mxCell>
                <mxCell id="297" value="Logout" style="html=1;fillColor=none;strokeColor=none;fontSize=11;align=left;fontColor=#596780;fontStyle=1;whiteSpace=wrap" vertex="1" parent="290">
                    <mxGeometry x="217" y="120" width="43" height="20" as="geometry"/>
                </mxCell>
                <mxCell id="298" value="" style="shape=line;strokeWidth=2;html=1;strokeColor=#DFE1E5;resizeWidth=1" vertex="1" parent="290">
                    <mxGeometry x="17" y="140" width="350" height="10" as="geometry"/>
                </mxCell>
                <mxCell id="299" value="" style="shape=line;strokeWidth=2;html=1;strokeColor=#3384FF;resizeWidth=1" vertex="1" parent="290">
                    <mxGeometry x="87" y="140" width="43" height="10" as="geometry"/>
                </mxCell>
                <mxCell id="301" value="10/23/25" style="strokeColor=none;fillColor=none;fontSize=12;fontColor=#596780;align=left;html=1;sketch=1;hachureGap=4;pointerEvents=0;fontFamily=Helvetica;" vertex="1" parent="290">
                    <mxGeometry x="187" y="288.5" width="50" height="20" as="geometry"/>
                </mxCell>
                <mxCell id="302" value="Complete" style="strokeColor=none;fillColor=none;fontSize=12;fontColor=#007FFF;align=left;html=1;sketch=1;hachureGap=4;pointerEvents=0;fontFamily=Helvetica;" vertex="1" parent="290">
                    <mxGeometry x="260" y="258.5" width="60" height="20" as="geometry"/>
                </mxCell>
                <mxCell id="303" value="Pending" style="strokeColor=none;fillColor=none;fontSize=12;fontColor=#596780;align=left;html=1;sketch=1;hachureGap=4;pointerEvents=0;fontFamily=Helvetica;" vertex="1" parent="290">
                    <mxGeometry x="260" y="230.5" width="50" height="20" as="geometry"/>
                </mxCell>
                <mxCell id="304" value="Complete" style="strokeColor=none;fillColor=none;fontSize=12;fontColor=#007FFF;align=left;html=1;sketch=1;hachureGap=4;pointerEvents=0;fontFamily=Helvetica;" vertex="1" parent="290">
                    <mxGeometry x="260" y="290" width="50" height="20" as="geometry"/>
                </mxCell>
                <mxCell id="305" value="Status" style="html=1;fillColor=none;strokeColor=none;fontSize=11;align=left;fontColor=#596780;whiteSpace=wrap;sketch=1;hachureGap=4;pointerEvents=0;fontFamily=Helvetica;fontStyle=1" vertex="1" parent="290">
                    <mxGeometry x="260" y="200" width="40" height="20" as="geometry"/>
                </mxCell>
                <mxCell id="306" value="View" style="strokeColor=none;fillColor=#CCE0FF;fontSize=11;fontColor=#3384FF;rounded=1;html=1;align=center;fontStyle=1;sketch=1;hachureGap=4;pointerEvents=0;fontFamily=Architects Daughter;fontSource=https%3A%2F%2Ffonts.googleapis.com%2Fcss%3Ffamily%3DArchitects%2BDaughter;" vertex="1" parent="290">
                    <mxGeometry x="337" y="259.5" width="40" height="20" as="geometry"/>
                </mxCell>
                <mxCell id="307" value="Assign" style="strokeColor=none;fillColor=#CCE0FF;fontSize=11;fontColor=#3384FF;rounded=1;html=1;align=center;fontStyle=1;sketch=1;hachureGap=4;pointerEvents=0;fontFamily=Architects Daughter;fontSource=https%3A%2F%2Ffonts.googleapis.com%2Fcss%3Ffamily%3DArchitects%2BDaughter;" vertex="1" parent="290">
                    <mxGeometry x="337" y="230.5" width="40" height="20" as="geometry"/>
                </mxCell>
                <mxCell id="308" value="View" style="strokeColor=none;fillColor=#CCE0FF;fontSize=11;fontColor=#3384FF;rounded=1;html=1;align=center;fontStyle=1;sketch=1;hachureGap=4;pointerEvents=0;fontFamily=Architects Daughter;fontSource=https%3A%2F%2Ffonts.googleapis.com%2Fcss%3Ffamily%3DArchitects%2BDaughter;" vertex="1" parent="290">
                    <mxGeometry x="337" y="289.5" width="40" height="20" as="geometry"/>
                </mxCell>
                <mxCell id="309" value="&amp;#8226;&amp;#8226;&amp;#8226;" style="shape=ellipse;fillColor=#0057D8;strokeColor=none;fontColor=#ffffff;align=center;verticalAlign=middle;whiteSpace=wrap;fontSize=10;fontStyle=0;html=1;sketch=0;hachureGap=4;pointerEvents=0;fontFamily=Architects Daughter;fontSource=https%3A%2F%2Ffonts.googleapis.com%2Fcss%3Ffamily%3DArchitects%2BDaughter;" vertex="1" parent="290">
                    <mxGeometry x="392" y="292.5" width="16" height="16" as="geometry"/>
                </mxCell>
                <mxCell id="310" value="&amp;#8226;&amp;#8226;&amp;#8226;" style="shape=ellipse;fillColor=#0057D8;strokeColor=none;fontColor=#ffffff;align=center;verticalAlign=middle;whiteSpace=wrap;fontSize=10;fontStyle=0;html=1;sketch=0;hachureGap=4;pointerEvents=0;fontFamily=Architects Daughter;fontSource=https%3A%2F%2Ffonts.googleapis.com%2Fcss%3Ffamily%3DArchitects%2BDaughter;" vertex="1" parent="290">
                    <mxGeometry x="392" y="262.5" width="16" height="16" as="geometry"/>
                </mxCell>
                <mxCell id="311" value="&amp;#8226;&amp;#8226;&amp;#8226;" style="shape=ellipse;fillColor=#0057D8;strokeColor=none;fontColor=#ffffff;align=center;verticalAlign=middle;whiteSpace=wrap;fontSize=10;fontStyle=0;html=1;sketch=0;hachureGap=4;pointerEvents=0;fontFamily=Architects Daughter;fontSource=https%3A%2F%2Ffonts.googleapis.com%2Fcss%3Ffamily%3DArchitects%2BDaughter;" vertex="1" parent="290">
                    <mxGeometry x="392" y="232.5" width="16" height="16" as="geometry"/>
                </mxCell>
                <mxCell id="312" value="Attention" style="strokeColor=none;fillColor=none;fontSize=12;fontColor=#596780;align=left;html=1;sketch=1;hachureGap=4;pointerEvents=0;fontFamily=Helvetica;" vertex="1" parent="290">
                    <mxGeometry x="17" y="228.5" width="70" height="20" as="geometry"/>
                </mxCell>
                <mxCell id="313" value="Full Diagnostic" style="strokeColor=none;fillColor=none;fontSize=12;fontColor=#596780;align=left;html=1;sketch=1;hachureGap=4;pointerEvents=0;fontFamily=Helvetica;" vertex="1" parent="290">
                    <mxGeometry x="17" y="258.5" width="70" height="20" as="geometry"/>
                </mxCell>
                <mxCell id="314" value="Baseline" style="strokeColor=none;fillColor=none;fontSize=12;fontColor=#596780;align=left;html=1;sketch=1;hachureGap=4;pointerEvents=0;fontFamily=Helvetica;" vertex="1" parent="290">
                    <mxGeometry x="17" y="288.5" width="60" height="20" as="geometry"/>
                </mxCell>
                <mxCell id="315" value="&lt;font face=&quot;Helvetica&quot;&gt;Assign Games to: Patient B&lt;/font&gt;" style="html=1;fillColor=none;strokeColor=none;fontSize=12;align=left;fontColor=#000000;whiteSpace=wrap;sketch=1;hachureGap=4;pointerEvents=0;fontFamily=Architects Daughter;fontSource=https%3A%2F%2Ffonts.googleapis.com%2Fcss%3Ffamily%3DArchitects%2BDaughter;fontStyle=1" vertex="1" parent="290">
                    <mxGeometry x="17" y="160" width="173" height="20" as="geometry"/>
                </mxCell>
                <mxCell id="316" value="" style="shape=line;strokeWidth=2;html=1;strokeColor=#DFE1E5;resizeWidth=1;sketch=1;hachureGap=4;pointerEvents=0;fontFamily=Architects Daughter;fontSource=https%3A%2F%2Ffonts.googleapis.com%2Fcss%3Ffamily%3DArchitects%2BDaughter;fontSize=20;" vertex="1" parent="290">
                    <mxGeometry x="17" y="180" width="390" height="10" as="geometry"/>
                </mxCell>
                <mxCell id="317" value="Date" style="html=1;fillColor=none;strokeColor=none;fontSize=11;align=left;fontColor=#596780;whiteSpace=wrap;sketch=1;hachureGap=4;pointerEvents=0;fontFamily=Helvetica;fontStyle=1" vertex="1" parent="290">
                    <mxGeometry x="192" y="200" width="40" height="20" as="geometry"/>
                </mxCell>
                <mxCell id="318" value="10/29/25" style="strokeColor=none;fillColor=none;fontSize=12;fontColor=#596780;align=left;html=1;sketch=1;hachureGap=4;pointerEvents=0;fontFamily=Helvetica;" vertex="1" parent="290">
                    <mxGeometry x="187" y="258.5" width="50" height="20" as="geometry"/>
                </mxCell>
                <mxCell id="319" value="--" style="strokeColor=none;fillColor=none;fontSize=12;fontColor=#596780;align=center;html=1;sketch=1;hachureGap=4;pointerEvents=0;fontFamily=Helvetica;" vertex="1" parent="290">
                    <mxGeometry x="188.5" y="228.5" width="50" height="20" as="geometry"/>
                </mxCell>
                <mxCell id="339" value="..." style="strokeColor=none;fillColor=none;fontSize=12;fontColor=#596780;align=left;html=1;sketch=1;hachureGap=4;pointerEvents=0;fontFamily=Helvetica;" vertex="1" parent="290">
                    <mxGeometry x="17" y="320" width="60" height="20" as="geometry"/>
                </mxCell>
                <mxCell id="320" style="edgeStyle=none;html=1;" edge="1" parent="1" source="257" target="290">
                    <mxGeometry relative="1" as="geometry"/>
                </mxCell>
                <mxCell id="321" style="edgeStyle=none;html=1;entryX=0.63;entryY=1.01;entryDx=0;entryDy=0;entryPerimeter=0;" edge="1" parent="1" source="91" target="2">
                    <mxGeometry relative="1" as="geometry"/>
                </mxCell>
                <mxCell id="334" value="" style="swimlane;strokeColor=#666666;swimlaneFillColor=#FFFFFF;fillColor=#ffffff;fontColor=#008CFF;fontStyle=0;childLayout=stackLayout;horizontal=1;startSize=0;horizontalStack=0;resizeParent=1;resizeParentMax=0;resizeLast=0;collapsible=0;marginBottom=0;whiteSpace=wrap;html=1;fontSize=17;" vertex="1" parent="1">
                    <mxGeometry x="1100" y="800" width="100" height="78" as="geometry"/>
                </mxCell>
                <mxCell id="335" value="&lt;font style=&quot;color: rgb(0, 0, 0); font-size: 14px;&quot;&gt;Options&lt;/font&gt;" style="text;spacing=0;strokeColor=inherit;align=center;verticalAlign=middle;overflow=hidden;points=[[0,0.5],[1,0.5]];portConstraint=eastwest;rotatable=0;whiteSpace=wrap;html=1;fillColor=inherit;fontColor=#666666;fontStyle=1;fontSize=17;" vertex="1" parent="334">
                    <mxGeometry width="100" height="26" as="geometry"/>
                </mxCell>
                <mxCell id="336" value="&lt;font style=&quot;font-size: 10px;&quot;&gt;Export PDF&lt;/font&gt;" style="text;spacing=0;strokeColor=inherit;align=center;verticalAlign=middle;overflow=hidden;points=[[0,0.5],[1,0.5]];portConstraint=eastwest;rotatable=0;whiteSpace=wrap;html=1;rSize=5;fillColor=inherit;fontStyle=1;fontColor=#666666;fontSize=17;" vertex="1" parent="334">
                    <mxGeometry y="26" width="100" height="26" as="geometry"/>
                </mxCell>
                <mxCell id="337" value="&lt;font style=&quot;font-size: 10px;&quot;&gt;Graph View&lt;/font&gt;" style="text;spacing=0;strokeColor=#008CFF;align=center;verticalAlign=middle;overflow=hidden;points=[[0,0.5],[1,0.5]];portConstraint=eastwest;rotatable=0;whiteSpace=wrap;html=1;rSize=5;fillColor=#008CFF;fontStyle=1;fontColor=#ffffff;fontSize=17;" vertex="1" parent="334">
                    <mxGeometry y="52" width="100" height="26" as="geometry"/>
                </mxCell>
                <mxCell id="338" style="edgeStyle=none;html=1;" edge="1" parent="1" source="226" target="335">
                    <mxGeometry relative="1" as="geometry"/>
                </mxCell>
                <mxCell id="342" value="" style="strokeWidth=1;shadow=0;dashed=0;align=center;html=1;shape=mxgraph.mockup.containers.browserWindow;rSize=0;strokeColor=#666666;strokeColor2=#008cff;strokeColor3=#c4c4c4;mainText=,;recursiveResize=0;" vertex="1" parent="1">
                    <mxGeometry x="-425" y="70" width="480" height="500" as="geometry"/>
                </mxCell>
                <mxCell id="343" value="MindMetrics" style="strokeWidth=1;shadow=0;dashed=0;align=center;html=1;shape=mxgraph.mockup.containers.anchor;fontSize=17;fontColor=#666666;align=left;whiteSpace=wrap;" vertex="1" parent="342">
                    <mxGeometry x="60" y="12" width="110" height="26" as="geometry"/>
                </mxCell>
                <mxCell id="344" value="https://www.mindmetrics/home" style="strokeWidth=1;shadow=0;dashed=0;align=center;html=1;shape=mxgraph.mockup.containers.anchor;rSize=0;fontSize=17;fontColor=#666666;align=left;" vertex="1" parent="342">
                    <mxGeometry x="130" y="60" width="250" height="26" as="geometry"/>
                </mxCell>
                <mxCell id="345" value="" style="image;html=1;image=img/lib/atlassian/Clover_Logo.svg;" vertex="1" parent="342">
                    <mxGeometry x="415" y="120" width="35" height="30" as="geometry"/>
                </mxCell>
                <mxCell id="346" value="Home" style="html=1;fillColor=none;strokeColor=none;fontSize=11;align=left;fontColor=#007FFF;fontStyle=1;whiteSpace=wrap" vertex="1" parent="342">
                    <mxGeometry x="27" y="120" width="50" height="20" as="geometry"/>
                </mxCell>
                <mxCell id="349" value="Logout" style="html=1;fillColor=none;strokeColor=none;fontSize=11;align=left;fontColor=#596780;fontStyle=1;whiteSpace=wrap" vertex="1" parent="342">
                    <mxGeometry x="77" y="120" width="43" height="20" as="geometry"/>
                </mxCell>
                <mxCell id="350" value="" style="shape=line;strokeWidth=2;html=1;strokeColor=#DFE1E5;resizeWidth=1" vertex="1" parent="342">
                    <mxGeometry x="17" y="140" width="113" height="10" as="geometry"/>
                </mxCell>
                <mxCell id="351" value="" style="shape=line;strokeWidth=2;html=1;strokeColor=#3384FF;resizeWidth=1" vertex="1" parent="342">
                    <mxGeometry x="17" y="140" width="53" height="10" as="geometry"/>
                </mxCell>
                <mxCell id="361" value="&lt;font face=&quot;Helvetica&quot;&gt;Welcome, Patient B!&lt;/font&gt;" style="html=1;fillColor=none;strokeColor=none;fontSize=12;align=left;fontColor=#000000;whiteSpace=wrap;sketch=1;hachureGap=4;pointerEvents=0;fontFamily=Architects Daughter;fontSource=https%3A%2F%2Ffonts.googleapis.com%2Fcss%3Ffamily%3DArchitects%2BDaughter;fontStyle=1" vertex="1" parent="342">
                    <mxGeometry x="17" y="160" width="150" height="20" as="geometry"/>
                </mxCell>
                <mxCell id="362" value="" style="shape=line;strokeWidth=2;html=1;strokeColor=#DFE1E5;resizeWidth=1;sketch=1;hachureGap=4;pointerEvents=0;fontFamily=Architects Daughter;fontSource=https%3A%2F%2Ffonts.googleapis.com%2Fcss%3Ffamily%3DArchitects%2BDaughter;fontSize=20;" vertex="1" parent="342">
                    <mxGeometry x="17" y="180" width="433" height="10" as="geometry"/>
                </mxCell>
                <mxCell id="396" value="Play" style="strokeColor=none;fillColor=#CCE0FF;fontSize=11;fontColor=#3384FF;rounded=1;html=1;align=center;fontStyle=1;sketch=1;hachureGap=4;pointerEvents=0;fontFamily=Architects Daughter;fontSource=https%3A%2F%2Ffonts.googleapis.com%2Fcss%3Ffamily%3DArchitects%2BDaughter;" vertex="1" parent="342">
                    <mxGeometry x="130" y="258.5" width="40" height="20" as="geometry"/>
                </mxCell>
                <mxCell id="395" value="Play" style="strokeColor=none;fillColor=#CCE0FF;fontSize=11;fontColor=#3384FF;rounded=1;html=1;align=center;fontStyle=1;sketch=1;hachureGap=4;pointerEvents=0;fontFamily=Architects Daughter;fontSource=https%3A%2F%2Ffonts.googleapis.com%2Fcss%3Ffamily%3DArchitects%2BDaughter;" vertex="1" parent="342">
                    <mxGeometry x="130" y="228.5" width="40" height="20" as="geometry"/>
                </mxCell>
                <mxCell id="394" value="Treatment B" style="strokeColor=none;fillColor=none;fontSize=12;fontColor=#596780;align=left;html=1;sketch=1;hachureGap=4;pointerEvents=0;fontFamily=Helvetica;" vertex="1" parent="342">
                    <mxGeometry x="17" y="258.5" width="80" height="20" as="geometry"/>
                </mxCell>
                <mxCell id="377" value="Treatment A" style="strokeColor=none;fillColor=none;fontSize=12;fontColor=#596780;align=left;html=1;sketch=1;hachureGap=4;pointerEvents=0;fontFamily=Helvetica;" vertex="1" parent="342">
                    <mxGeometry x="17" y="228.5" width="80" height="20" as="geometry"/>
                </mxCell>
                <mxCell id="393" value="Assigned Games:" style="html=1;fillColor=none;strokeColor=none;fontSize=11;align=left;fontColor=#596780;whiteSpace=wrap;sketch=1;hachureGap=4;pointerEvents=0;fontFamily=Helvetica;fontStyle=1" vertex="1" parent="342">
                    <mxGeometry x="17" y="200" width="113" height="20" as="geometry"/>
                </mxCell>
                <mxCell id="352" value="" style="shape=line;strokeWidth=2;html=1;strokeColor=#DFE1E5;resizeWidth=1;sketch=1;hachureGap=4;pointerEvents=0;fontFamily=Architects Daughter;fontSource=https%3A%2F%2Ffonts.googleapis.com%2Fcss%3Ffamily%3DArchitects%2BDaughter;fontSize=20;" vertex="1" parent="1">
                    <mxGeometry x="-410" y="530" width="423" height="10" as="geometry"/>
                </mxCell>
                <mxCell id="353" value="10/23/25" style="strokeColor=none;fillColor=none;fontSize=12;fontColor=#596780;align=left;html=1;sketch=1;hachureGap=4;pointerEvents=0;fontFamily=Helvetica;" vertex="1" parent="1">
                    <mxGeometry x="-240" y="488.5" width="50" height="20" as="geometry"/>
                </mxCell>
                <mxCell id="354" value="Full Diagnostic" style="strokeColor=none;fillColor=none;fontSize=12;fontColor=#007FFF;align=left;html=1;sketch=1;hachureGap=4;pointerEvents=0;fontFamily=Helvetica;" vertex="1" parent="1">
                    <mxGeometry x="-167" y="458.5" width="60" height="20" as="geometry"/>
                </mxCell>
                <mxCell id="355" value="Treatment" style="strokeColor=none;fillColor=none;fontSize=12;fontColor=#596780;align=left;html=1;sketch=1;hachureGap=4;pointerEvents=0;fontFamily=Helvetica;" vertex="1" parent="1">
                    <mxGeometry x="-167" y="430.5" width="50" height="20" as="geometry"/>
                </mxCell>
                <mxCell id="356" value="Baseline" style="strokeColor=none;fillColor=none;fontSize=12;fontColor=#007FFF;align=left;html=1;sketch=1;hachureGap=4;pointerEvents=0;fontFamily=Helvetica;" vertex="1" parent="1">
                    <mxGeometry x="-167" y="490" width="50" height="20" as="geometry"/>
                </mxCell>
                <mxCell id="357" value="Game" style="html=1;fillColor=none;strokeColor=none;fontSize=11;align=left;fontColor=#596780;whiteSpace=wrap;sketch=1;hachureGap=4;pointerEvents=0;fontFamily=Helvetica;fontStyle=1" vertex="1" parent="1">
                    <mxGeometry x="-167" y="400" width="40" height="20" as="geometry"/>
                </mxCell>
                <mxCell id="358" value="Session A" style="strokeColor=none;fillColor=none;fontSize=12;fontColor=#596780;align=left;html=1;sketch=1;hachureGap=4;pointerEvents=0;fontFamily=Helvetica;" vertex="1" parent="1">
                    <mxGeometry x="-410" y="428.5" width="70" height="20" as="geometry"/>
                </mxCell>
                <mxCell id="359" value="&lt;span style=&quot;color: rgb(89, 103, 128);&quot;&gt;Session&lt;/span&gt;&amp;nbsp;B" style="strokeColor=none;fillColor=none;fontSize=12;fontColor=#596780;align=left;html=1;sketch=1;hachureGap=4;pointerEvents=0;fontFamily=Helvetica;" vertex="1" parent="1">
                    <mxGeometry x="-410" y="458.5" width="70" height="20" as="geometry"/>
                </mxCell>
                <mxCell id="360" value="&lt;span style=&quot;color: rgb(89, 103, 128);&quot;&gt;Session&lt;/span&gt;&amp;nbsp;C" style="strokeColor=none;fillColor=none;fontSize=12;fontColor=#596780;align=left;html=1;sketch=1;hachureGap=4;pointerEvents=0;fontFamily=Helvetica;" vertex="1" parent="1">
                    <mxGeometry x="-410" y="488.5" width="60" height="20" as="geometry"/>
                </mxCell>
                <mxCell id="363" value="Date" style="html=1;fillColor=none;strokeColor=none;fontSize=11;align=left;fontColor=#596780;whiteSpace=wrap;sketch=1;hachureGap=4;pointerEvents=0;fontFamily=Helvetica;fontStyle=1" vertex="1" parent="1">
                    <mxGeometry x="-235" y="400" width="40" height="20" as="geometry"/>
                </mxCell>
                <mxCell id="364" value="10/29/25" style="strokeColor=none;fillColor=none;fontSize=12;fontColor=#596780;align=left;html=1;sketch=1;hachureGap=4;pointerEvents=0;fontFamily=Helvetica;" vertex="1" parent="1">
                    <mxGeometry x="-240" y="458.5" width="50" height="20" as="geometry"/>
                </mxCell>
                <mxCell id="365" value="--" style="strokeColor=none;fillColor=none;fontSize=12;fontColor=#596780;align=center;html=1;sketch=1;hachureGap=4;pointerEvents=0;fontFamily=Helvetica;" vertex="1" parent="1">
                    <mxGeometry x="-238.5" y="428.5" width="50" height="20" as="geometry"/>
                </mxCell>
                <mxCell id="366" value="Complete" style="strokeColor=none;fillColor=none;fontSize=12;fontColor=#007FFF;align=left;html=1;sketch=1;hachureGap=4;pointerEvents=0;fontFamily=Helvetica;" vertex="1" parent="1">
                    <mxGeometry x="-72" y="458.5" width="60" height="20" as="geometry"/>
                </mxCell>
                <mxCell id="367" value="Pending" style="strokeColor=none;fillColor=none;fontSize=12;fontColor=#596780;align=left;html=1;sketch=1;hachureGap=4;pointerEvents=0;fontFamily=Helvetica;" vertex="1" parent="1">
                    <mxGeometry x="-72" y="430.5" width="50" height="20" as="geometry"/>
                </mxCell>
                <mxCell id="368" value="Complete" style="strokeColor=none;fillColor=none;fontSize=12;fontColor=#007FFF;align=left;html=1;sketch=1;hachureGap=4;pointerEvents=0;fontFamily=Helvetica;" vertex="1" parent="1">
                    <mxGeometry x="-72" y="490" width="50" height="20" as="geometry"/>
                </mxCell>
                <mxCell id="369" value="Status" style="html=1;fillColor=none;strokeColor=none;fontSize=11;align=left;fontColor=#596780;whiteSpace=wrap;sketch=1;hachureGap=4;pointerEvents=0;fontFamily=Helvetica;fontStyle=1" vertex="1" parent="1">
                    <mxGeometry x="-72" y="400" width="40" height="20" as="geometry"/>
                </mxCell>
                <mxCell id="370" value="&amp;#8226;&amp;#8226;&amp;#8226;" style="shape=ellipse;fillColor=#0057D8;strokeColor=none;fontColor=#ffffff;align=center;verticalAlign=middle;whiteSpace=wrap;fontSize=10;fontStyle=0;html=1;sketch=0;hachureGap=4;pointerEvents=0;fontFamily=Architects Daughter;fontSource=https%3A%2F%2Ffonts.googleapis.com%2Fcss%3Ffamily%3DArchitects%2BDaughter;" vertex="1" parent="1">
                    <mxGeometry x="3" y="434" width="16" height="16" as="geometry"/>
                </mxCell>
                <mxCell id="401" style="edgeStyle=none;html=1;" edge="1" parent="1" source="371" target="398">
                    <mxGeometry relative="1" as="geometry"/>
                </mxCell>
                <mxCell id="371" value="&amp;#8226;&amp;#8226;&amp;#8226;" style="shape=ellipse;fillColor=#0057D8;strokeColor=none;fontColor=#ffffff;align=center;verticalAlign=middle;whiteSpace=wrap;fontSize=10;fontStyle=0;html=1;sketch=0;hachureGap=4;pointerEvents=0;fontFamily=Architects Daughter;fontSource=https%3A%2F%2Ffonts.googleapis.com%2Fcss%3Ffamily%3DArchitects%2BDaughter;" vertex="1" parent="1">
                    <mxGeometry x="3" y="464" width="16" height="16" as="geometry"/>
                </mxCell>
                <mxCell id="372" value="&amp;#8226;&amp;#8226;&amp;#8226;" style="shape=ellipse;fillColor=#0057D8;strokeColor=none;fontColor=#ffffff;align=center;verticalAlign=middle;whiteSpace=wrap;fontSize=10;fontStyle=0;html=1;sketch=0;hachureGap=4;pointerEvents=0;fontFamily=Architects Daughter;fontSource=https%3A%2F%2Ffonts.googleapis.com%2Fcss%3Ffamily%3DArchitects%2BDaughter;" vertex="1" parent="1">
                    <mxGeometry x="3" y="494" width="16" height="16" as="geometry"/>
                </mxCell>
                <mxCell id="373" value="Histoy" style="html=1;fillColor=none;strokeColor=none;fontSize=11;align=left;fontColor=#596780;whiteSpace=wrap;sketch=1;hachureGap=4;pointerEvents=0;fontFamily=Helvetica;fontStyle=1" vertex="1" parent="1">
                    <mxGeometry x="-410" y="400" width="113" height="20" as="geometry"/>
                </mxCell>
                <mxCell id="374" value="" style="shape=line;strokeWidth=2;html=1;strokeColor=#DFE1E5;resizeWidth=1;sketch=1;hachureGap=4;pointerEvents=0;fontFamily=Architects Daughter;fontSource=https%3A%2F%2Ffonts.googleapis.com%2Fcss%3Ffamily%3DArchitects%2BDaughter;fontSize=20;" vertex="1" parent="1">
                    <mxGeometry x="-410" y="370" width="425" height="10" as="geometry"/>
                </mxCell>
                <mxCell id="397" value="" style="swimlane;strokeColor=#666666;swimlaneFillColor=#FFFFFF;fillColor=#ffffff;fontColor=#008CFF;fontStyle=0;childLayout=stackLayout;horizontal=1;startSize=0;horizontalStack=0;resizeParent=1;resizeParentMax=0;resizeLast=0;collapsible=0;marginBottom=0;whiteSpace=wrap;html=1;fontSize=17;" vertex="1" parent="1">
                    <mxGeometry x="40" y="440" width="100" height="78" as="geometry"/>
                </mxCell>
                <mxCell id="398" value="&lt;font style=&quot;color: rgb(0, 0, 0); font-size: 14px;&quot;&gt;Options&lt;/font&gt;" style="text;spacing=0;strokeColor=inherit;align=center;verticalAlign=middle;overflow=hidden;points=[[0,0.5],[1,0.5]];portConstraint=eastwest;rotatable=0;whiteSpace=wrap;html=1;fillColor=inherit;fontColor=#666666;fontStyle=1;fontSize=17;" vertex="1" parent="397">
                    <mxGeometry width="100" height="26" as="geometry"/>
                </mxCell>
                <mxCell id="399" value="&lt;font style=&quot;font-size: 10px;&quot;&gt;Export PDF&lt;/font&gt;" style="text;spacing=0;strokeColor=inherit;align=center;verticalAlign=middle;overflow=hidden;points=[[0,0.5],[1,0.5]];portConstraint=eastwest;rotatable=0;whiteSpace=wrap;html=1;rSize=5;fillColor=inherit;fontStyle=1;fontColor=#666666;fontSize=17;" vertex="1" parent="397">
                    <mxGeometry y="26" width="100" height="26" as="geometry"/>
                </mxCell>
                <mxCell id="400" value="&lt;font style=&quot;font-size: 10px;&quot;&gt;Graph View&lt;/font&gt;" style="text;spacing=0;strokeColor=#008CFF;align=center;verticalAlign=middle;overflow=hidden;points=[[0,0.5],[1,0.5]];portConstraint=eastwest;rotatable=0;whiteSpace=wrap;html=1;rSize=5;fillColor=#008CFF;fontStyle=1;fontColor=#ffffff;fontSize=17;" vertex="1" parent="397">
                    <mxGeometry y="52" width="100" height="26" as="geometry"/>
                </mxCell>
                <mxCell id="418" value="" style="strokeWidth=1;shadow=0;dashed=0;align=center;html=1;shape=mxgraph.mockup.containers.browserWindow;rSize=0;strokeColor=#666666;strokeColor2=#008cff;strokeColor3=#c4c4c4;mainText=,;recursiveResize=0;" vertex="1" parent="1">
                    <mxGeometry x="-397.5" y="616" width="411" height="410.87" as="geometry"/>
                </mxCell>
                <mxCell id="419" value="MindMetrics" style="strokeWidth=1;shadow=0;dashed=0;align=center;html=1;shape=mxgraph.mockup.containers.anchor;fontSize=17;fontColor=#666666;align=left;whiteSpace=wrap;" vertex="1" parent="418">
                    <mxGeometry x="60" y="12" width="110" height="26" as="geometry"/>
                </mxCell>
                <mxCell id="420" value="https://www.mindmetrics/play" style="strokeWidth=1;shadow=0;dashed=0;align=center;html=1;shape=mxgraph.mockup.containers.anchor;rSize=0;fontSize=17;fontColor=#666666;align=left;" vertex="1" parent="418">
                    <mxGeometry x="130" y="60" width="250" height="26" as="geometry"/>
                </mxCell>
                <mxCell id="429" value="" style="shape=image;verticalLabelPosition=bottom;labelBackgroundColor=default;verticalAlign=top;aspect=fixed;imageAspect=0;image=data:image/png,iVBORw0KGgoAAAANSUhEUgAAAgkAAAGFCAIAAAD4mveRAAAgAElEQVR4Aey9Z3Mbx6Kuu3/P+rD/1A117tmn7tlr3+XlZcuWFSlKokiJEpMilaNlWVkMCBMxyMBgcgYmA4MMZgK3INhjbIqUSYuUKKmr3mI1mo0Oz/T0O93TM/i3v/3t33+Isp+7TmAsECCwpwT2+hw5HNlxH95plfaUz8fJ/Adi88HqCL45vaP45ul3iu6H6Ob5/4VWH4rsWpX+Qis2/cognhnEyGM4fwyTRlEhpnvLqwv/BrzhLxxd8JWvkMCmJ9UuRgJv2E6nAt6wi13Oz6rfG0YghsgXl9YWgTfs2uXAdno2SPP5EvBPpD0KAG/YTt8A3rAX3a/fG86EKEx1gDcAYwAEtktgL87J/jyBNwBv6O8PHzPc7w0jEBM1aiutGpg3bHdo2E7HBWm+YAJ7fa4Cb9hO5wHzhr3oh/3eMBlT6criylIDeAPwBkBgWwT24pzszxN4A/CG/v7wMcP93nAxUWCqyytLTeAN2xoXttNrQZovm8Ben6vAG7bTf8C8YS/6Yb83nEO4hN1YWXi7prSdQ7LP0xycjZ7AqaGEcJigvsHS/4ml/gNL/g88eSAaPRQjejoc74Z/jGDfIdDh+eCZ16GRAHYWSZ3B6RMYcwQXDuHyT7i8z1sKqgcIAAKAwO4SOBpJHyTI76PcAUI6ClOwU2utvF1T2t1iPklu/4Tj3+Ppn/DMv8Kxg0jqSIQ8lWDPkvJlRrjK8j1d47rhSxQzkSGnoomLMHE+FDkTjJwKJU+h1DGcO4RLP+HiJ6k/KBQQAAQAgU9F4Ev2hv8Vj/3vCPFPjDiKxScz/G1Sfc7ZQbmC6RVML/cUMau4UYG1Yki23/Dqkxx7K56ZROMjUPw0mh3E6OM4exTjPtXhAeUCAoAAIPBJCHzJ3vB/JyP/M44fTCWv8vKcUY5qNVpuSFJDNpZke9mXZC1xhSat1hJ5Fy4UZmTlV066kWLOwYkhNHsapQYx+pMcG1AoIAAIAAKfisCX5g2j6fzZpHoywh8OZf9ffP44k7xtFebdUqTgMmrJyNcqekvPL2ibSXLrVKUYNfV5WZ4v2E8VczhIDM5HRwhwaxoQAAQAga+LwJfmDScj/ADKHIOpYzA1lYk9lLiwaydK5ZxT5nVPVYqq5FCSR0rld5Ur2JSbzxb1pGuilvVa1e9T4kQkPRSOfSrrBuUCAoAAIPBJCHxp3nAMpg4FM0eh3Nmkiop80tA5z2OLRdZyaN0kFS0tSKhgQIL1rghJyuYZylboshN3rLCuQ075ISOPoclPcmxAoYAAIAAIfCoCX5o3nIzwR8Lk6ah4U2vIcqFQsHXTZZV8QhSjskRocrSgBjR7VnPeFSIJCSEVl3MxjY+ZhWixCNul15p5n9U+1eEB5QICgAAg8EkIfAne8PcE9Y84+UM0dTwSPwlB07H4C56DC3mqXs2USxHTCMlSUJFCqhzS5JCmBDU1sJkQWSFEiRDliChHFS1l2Fm7GC+YIVG5mMycCiEDEHY6mj2Ckz9F6AME9x0B9rZ+XSuwn+QUBYUCAp+EwJfgDf87Sf0jQf4QSw5EYudQ9EEmE1TFSEFJVcuxkgsbhXlFCqhysOsK7xOiKISk+krmjZxdzBg2KmvXs7mhMDwQRk4R2SMR8iBBfx/l/xWVPskxA4UCAoAAILDXBL4Eb/hHnPouRv4UTZ7CY9dTmZccH9G1lJ5HLQM2CqG8GlDlnXoDLshRWSMtN2cXo7p5jxfOYZEBCB2MpIE37HWnBPkDAoDAJyfwJXjDv2LUD1HyeCQ5jMZ+4QRYLWRtizKNeUXqzRj+gjegnIgLMmm5tOulndIvWv4CETsBoyfwJPCGT95rQQUAAUBgrwl8Cd5wKEYfhJODSPxagpoR1VjB4m1HKJg9S9jOjKG31tS/phQRlYioRGUtrVspp/jSdm6y/EAYGcCAN4B7DIAAIPDlE/gSvOE4QR8OxUfg5ANSDImFTN6WDFtW9fffXXj3v/3eEJU1QlJxQU7mjZRdnCl592X1BIQO4t33MoH7DXt9zQLyBwQAgU9L4EvwhkGMGgglJ3DyBacTqs0UimreEgX13dH//TFbeoNTDFSqP+f10xgxFAP3or/8K6ZPe06C0gGB/UDgS/CGU0judCh1NcYG1VJaLwmGp6kWTwvvd4J3/7uVN6SdUrjefGJYI0R8JEmDecN+6LigDoAAILCnBL4EbxiI0Gfg7HPKiEsVoVChVDshK5gsvjv6vz8mpCqQ8ptgVYUUJSxJEV1POUXGbUB590IkcSJBfhcjv4vSByP8EQzsYQVzCEAAEPgyCXwJ3nA0xgxjuSBfyvBlrVDLSgYkCzOG9H4neP9/Q/nuktS8IiGmnnLcgt5IKMVxPHEkkfkmQX4bow9H+EEUeMOXeVbs6eUYyBwQ+CwIAG/Y/Gk44A2fRfcFlQQEAIE9IgC8AXgDuPYHBAABQGAjgS/BG36K5M5G6HnWJcXqnqwpuUXdbCbU0hgWPxRNgTWlPbpOAdkCAoDA/iHwJXjD93DqfIyboSxaaeyFN6TdomkvJNTSBTT6YyQOvGH/dF9QE0AAENgjAsAb/nxNCXjDHnU+kC0gAAjsWwLAG4A3bFxn3LedFVQMEAAEPhqBL8EbfkDSo1H2Tc6klUZer+cUC1GlN7oYVPM7UujtMw29Rxx+e75BlgnLJIte3m5FtdI5hDiAR7+Jd59vOIbxQzDYwwp8BRAABL5MAl+CN/yEk2cj9Kuszmot3WzyhhfRtZcaF1KcHQmRdf/HGwhJ7b1rL2cXxXKDsxshzTkN49+ikW/j3fcpDSHCRBB4w5d5Vny0SzNQECCwbwkAb/jDP7b0hkqDd5pzkn4Kwg4QceAN+7Y3g4oBAoDAbhEA3vDn3iBVm0Kx9YpVB0PIT8kM8Ibd6nwgH0AAENi3BL4Ebzj09vmGl5nCHq0p9bzhWU48AbwBA4tIgAAg8FUQ+BK84WiMGUKyv0TFnFTbrfsNuCD3fryBckpCuc5atUeJ3CkI+y4SA/OGfXulAyoGCAACu0XgS/CGY3H2NJx5iLEJ2t0Lb+BLtYzq3iPS3fsN0QTwht3qfCAfQAAQ2LcEvgRvOJ7gTkHp26EsmszvhTewxUqEzd9E4ich9IdYEnjDvu3NoGKAACCwWwS+BG8YSPInw6kb86kQIe2FNzBuGc3J1yHiZBj9MZ4C3rBbnQ/kAwgAAvuWwK55wz9iwjcx8buo+GNEPIZJg6g0BEsjYekEzh9KsD0djNE/ELmeDkTI77CMrx+jlK9v4+lNtRXEQ1Hl+zA5iFJ3KDNcaOSKi6LdSFL5HT3cEFKcDXtYE5rOFMtMsZx0y5f50k+B9CDObVWHDfH/R1r8v1LifyTFv8fFf0WlHwjpMC4dxaVDCfbHKPUdlvkGShxOcr4ORMgfiNyPUaqXwEfxr1hmUxQHCXJDieAjIAAIAAK7SOA0lhnEyGM4fwyThoJUzKytLDX+7W9/+/edlvGvKPfPGH+A4H+K8Mcx/hQijEDCubBwCmePxemejsYoX0eiuZ/wTE+HItnDBOnr+3h6U21VpR9x8QCUG4DJK3FpXqlknZZoN7Kc+SHeEJW1jGEzxTLllCK6O0YaPW84BlNbVaM//v9J8f+R5P8zwf8zxn8f5Q9H+AFMGMCEH9DUAST5PZz4Vzh2JJrz9U0g8h0UPxTJHk8wPofDBPlDbHMUPwFvADumAAFAYC8J7Jo3HIjSB6L0IYI+htODGH0GpkfD9IUwfQpKHYWiPR1HYgNooqdBPHWKyPgaxJO+foxmNlX/4NsfPoDyP8DUAEyOhrOveTdl1iWnSUvuh3hDXC3k7CJTLGcMG5ILp6PiT4H0yQh/KJjpL3qr8H8l6P9K0N/G6IMEfSRCn8DoIZQehunjSOwEljgZSQ9FMyewhK/jSOw4EjsGx45CxAks4aM4RKQ3RXE4ktuqaBAPCAACgMCHE9g1bzhIkIcI8liEHMTIYZgchcjxEDkVIqfj7G1K6ukuozzg8z3dyokTeMrXeTjm6wiR2VRbtfY7mD2IMseh7NBs/AVjJY2a7LY41fsQb+gtKLGlSqpgBnhlAGUOBTOnCOHgfGqravTHH4iRP0bJIxHyBE6eQd/SCJOTIXIMTUwRmatJ+nqGe5p3fc0WGy8M75Go38qJF5C4j+IEntoUxTEceMNXsce8v1OBMCDwMQnsmjf8BBGHoMgAFB2CEhN47maMf5zVXnJOqFBC7N+EueVIqdoT4dUIr4Y6Xthw5jXjGSM8SuduReLXYHwATfk6jiQH0NTJSPbU1qsoByPS4Qh/EqPPQ+RdgkNFWykuqFYzYtWCsj3DFeZFMyjbf2oVmGJGRMV/rIHzqny5RkjqL7FtzRXOxKRBnDsGU4dD2eN4d3p0GkmcDScuIdnbBPtrSn2TMwN5EzJdzC0TXs1HsSEQLddhq/iCk+7F0+eJzHEkeTgUPYGlT0Wyg3impxMY8AbgDYDA10VgAGWOwdSm2o5n9H9xO+l3zRtOEvEjwfDAfOhqmnqpWsFCCbeqKbeVLTXIUrWnnFfbILJUzRYrGbecdry44eCqjkjaVEYaS3DnCGoYyw4Eoqfh1NlI7kJ8y37Q7w3TUDbEFES7sSvewJYqCCs8wOLbQdm7Uz2AMscRehSNThLJa/HsvQQVlG1cK6X0Om23Mm45W6yQpeoGDv0f2VqLrbWocj3n1X4WjImUMBqlR3ByGMueQTM9nUKBN2zZH7ZzsEAaQOCzI/C5esMpDBuNRm5S1GvDwr1awmtkvCZVbrFuhbOcnljTZgyrJ1o3GcPiLEdwilLRU7yKXCpLRU8qenBz/WmhdjUljcKZc1D6HJQehTOj8JYX7/3eMDkTnclIvFnT7NaHzxsopzSfyd0MotvpRsdg6jhCD+LcyQg/heIPslTYcHL1JcZrCaWW6i7oxSXRLQlOkTXtXvN9Gv2BjKJl1Tytm5zlxGqLgcrqz3JpkmDOhlM9DqNw5gwCvAF4AyDwdRH4XL3heCB4i+Mii0vx1hJeqsadSsIqJw0vmzcpRespJ6sZQeoXpWhcwRBNWzRtyXJk21WcIlLvhCvtQGl1zl2+EhfG0dyZudiJl1sO0P3eMPoceZngWL3ygd5Aux7nVUnLfR1PXZ0NbccbuktJCH0ywg/HZfTt6lnKa1DlFl9sSlZDNepaoSaaNlcwcrKa5sV+Dv1hrmAIhtWjESm2kHoba7bni8s3Mup5KNPTGRh4w9c1LmynB4I0XzaB/e4N/xUXu/syY/SPUfIoFj9JRM/GiHPRSJDhE5pOOSXScoVKnS/XsqYTU/KwpG+60A/LTlT8TTHJJY26r94GIaFSl2pNvlyLKfnX8dTDIPR/YsH/TEa/SSX+PyR+mKAHMGEQlU8i6rdv97z+GO3ewf4pELkQZ59oFbjWYUuVnF1M5g1ckCOi4v82Q1i2Nq0SxMkpVjAVpyZWq2LTsTpvaOdIKHEgxfw9kf4mnv4+lv6RyByPdBf9z6CZs0jmHzHmUEY8SVDDM/itABHCcyKrl/NlrVjzZVYXtGKN192cvDmKDZWB8yWk4PWUdboPWJCWm9atVMGEGf4xhN5+MzcRwL/s0wC07msgsNMV8K+ByXvauN+94Z8x8dsY/0OUPkyQ57LsCRg9DYdvcVxcN2nXEyr13r7PZN4gJBVhhbCw+TNo/d7gm0QvkMwbGcOmnFLv0bOs6cTVAi7II7nMIRT5HkaORrOHCepwhD0YkQ5G5H5vOArFzxHUfd4Oems79QaEV0hBsvOlqlYvqS1eaf4ck45BqQOx3Dfx9Lex9IFo+hCROYFnhrCuMYzCmQNx5jsoOYRl7qQEmNezgllQnGK+6BuDVqxJlsfm7YygxShhgw1s+jGsur4wuRBT8hnD7s1jUgVzNpV9EAgDb3jPKQT+9bkQAN6woyO1373h+6j4A8EfJujjEXI4nhuG8Yux+AvTyjgltlThyzXScqOy1tvwg/ESJBY2HQH7vYEQ7Ahv+cIFOSprCU1P6xbter7CmvEoQ12KJM/Hs8cjmR+i9Ddx9j8TfL83DOKZYSw7nVHeWAs79YaIoHGSZlvVkr1gWEsIaU4FkifgzA9Yd8bQM4bjb3cKnUV+W9s5FaVHiNxtSp7Pu3SpqTgV0/Js8795A6+7lGIkWZkgt/VTdAHJmhfNnkKMiHJiMm/0vIF2vaisvUmkr6LJHfUqkBgQ2IcEgDfs6KDsd2/oLe4P4PRJjDz+Bpkkkk9lFSp6KdPJ2UXScv1f04wp+bhaQJXNn0/u94ao6MTloi+I5lBOJCQ1puR7Tyb3cjbNimxVYU69hiVP4/EDsfR/Jqn/maL7veFMjDoNp6ai7ItCfafeEBPykqKbxbpRWeLKy49T4olXyEk0+2M4+WM0c4jIdI3h7YzhPJSZDGcuhjIXMfK55OClZtKuMMWyUiwZruMU7f55g2yXuYKTFfNxWtzUJjdEzvK6rzAr4YIcU/KpgtmbS1FOiZDUu0lmR70KJAYE9iEB4A07Oij73RsGMOkEJgyh9Nnuc8jJiQAWNt1UY5HxqhnDxngJ5cT+xX1YNjaMfb2PG7yhf1nJvzFASCrGS73bGEKlXtJMo2Dzupt0yjdS1IlI/Fu8+wud/d4wkmBOQcnzSPY+a/UGU9JyI6LSX6V37zcEZTsgWWnF1HVXK9XpavOlrJ+D40NY+iRGDmK543jmBJYZenuP4TyUGZ9LTMPUw4QSyXsJvUw6NbZUEVxXdE3Z1VRHle2yL8Wp8LpLSoUEI22K4j2RmJT3aSQ0PWcXc3YxpuSfcvlzKe1wKHskTJ6M8DvqYSAxILBPCABv2NGB2O/ecBKVhhDhLNx90Gx8LnaHyEbMUtZrsnvjDb2r5oxh5+yiaRRM01SLLl+u4ab7hFEm8NTpIN7vDb15wyicuZFRE5pOWi5puTElv5U3BCQrIFlB2Q6rbk6xTd0VvSrkFKc5fiASG8BTp1ByCM0N9owBzoyG02Oz8VsYO0u78cISr5X5Qlk0S5LTNQaxqAqeKHiibwyyXd4tb+jdeOjdXX8lWxOUdRTKHQmT238D4I46IkgMCOw1AeANOyK8371hGJLOQcKFMN19A8SbyByvp5xqyq6wXm0v5g29Mb23PJXVaFoXBNdUymWtscDYNZTRn2P/bd5wMpIdQrrPQ0xgVERU0rqVs4tp3fKvvglJ7Z83zPL6DFcIyjZS8GjVsQoOUyw/ksXj6dj38dghousNI3DuDJI5C2fOh7tLSTcxdo4ppsxVxuuU7KZrVg2zO6WRXU3wRLbM0RV2L7whIirJvJGzixnDDujlq2L5BMYehcBmVrCZ9XMlALzhi/KGc2FpNCxMhOiLIfL8CzSqV7LFelIvcXvjDb27FxgvYbw0x0cQOZ0yRL47hldLpWXHWFK4Sv+84QSWPoN2n5g7G0wirJDMG71ttVt5w2tGe81o3UeXzSqruVbeybmlq3T2nxHom0Tsx2jqJEqeg3Jn4cwolBkPZS6Fs7NSJW2tZe31hLa4WFys2TXLcAtGXnW6kwa6wuaq9F54A8ZLMSXfW1aCnfpNrXGKEIA37OjsAon3FQHgDTs6HPt93vBf8e4e1sNE9170RYJ+Ixqk16S9FuV6CU3HBbl/FCYkdav7De9ZZN/qX3MFdVaVIE1NOY5YrqnFmu7WDKeWqa48zohjb7DzgfTp2dQwLJxE5B9nqJG59Jy1jLrLkeIiptkQLyMMk5CkqKT6lcQFGWEFlBOzpkOXXLZemuW5C/PhESQ1gDEHceWfhP7PmHowEfwJeT1NJ1HHou2ibVUXjWbbWuz3gK3Cu7Wm1LuRkzHsVMEMGpUbav1UhAfesKOzCyTeVwSAN+zocABvcHbqDenyAmZUfk4Lo3PxMzPJoTA9hEgnIHE0SD4RvKDewJxWzPBwuYBxfEIUo9Ifz8HhgozxUlTWutfjpVLMNn/JZC8EkGEocRJlDuPygUj+W4z/CX1zWczOFo1UxROcsm1Vm3p9SW9s5Qf98cAbdnQCgMRfDwHgDTs61sAbduwNVLnJNVZws/ogKVzB6PMwcwZihhBhHGauEsJrqQQZNdJrJQ2XEMT4f/eG3kINablsqZIuVV5w0lU0NhqKnAoSp7DcAMYdwaWjGHMxQ8x5VnaxydbrWqnu2LVKoVJT/tiM1G8GG8LAG3Z0AoDEXw8B4A07OtbAG3bsDVKtyVWbOa+R9BafMfo0wY3MpYfm0lMYf3Y28Yy1gvky21gh3XJMluOiSPTNG3p7ZHuv44559ek0OxTARuD4ifnIEJoZQsnTKHUhzmKuFfeKdKWqVBtmdcF16k7esxV3gw1s+hF4w45OAJD46yEAvGFHx/pz8obRcPJxho+ZHlVs8OV674U/CCv0bxjdxfsNrxUxZORjrpMrl7liWbLLmlXOm2XJsQXX7b53qFQn62tPctpYMHURZS5FxPEweRUhX3J6zPSyTjlnWXFRxLjuDQaY4SGaSxVMvlzrverjmWiMRPkT4dRAKDGCZUbgxJlQ5AGfj9SXRa8mF7t3ODS3mjfLhlE2jbKtb2ve0N3hanm0akZz/FbLZVvFRzUzrhYiogIzPMZLvVvrWdOZzRfHc2bv+YZThLCjHgYSAwL7hADwhh0diM/MGx4mGVS1cm6d87ov14uICsZLH9kbVEeXHVNwuz/vzNWX4sXWK968iedGg+Twm9hkIPGUUiN5N22XcpadkuWeN2B895HjtG7x5RpfriXzxt2cdoxQDkH0AEwOwckLaPwxK8N2Ke3VHPs32VbVMLreYBhdW9p0orAh8kO8AVf03gtIUE5MaDrtemypkjWdl5J59u2zb0ehHHi+YUcnGEi8fwgAb9jRsficvOECnL4dycwzctausqVq7y17vV2n/kagjzBv0G01b2tv7cFlKzVpsZ2uLD9n1EmUOzeXHJuNPkiwsKQnDIeybbJQQN9uTIrKWqpgZk2HL9eYYjlI0mM4/R2ePwALJ3D+PEHfJYVoucq0GnzZaxRq9UKtatRKRtV8awya1Z21bLCBTT9+iDcggtZ7iWxU1novuKVdj5DU+2luEOeOhMmjUO44Qu+oh4HEgMA+IQC8YUcH4nPyhjEkMw3HX2bYtFlmS1Wh0n2FUVTuDmcf0xtMS9ZtVXV0yem+vTVbrKW8VtJbfCLVpmPSZCBxHUkFWCWaN2nbYUwTZQX/VRw5u8iXa5RTeoZHT8wn/o5q38Liiah8nTMDxVqyWhMW63qzvqjVWvlaI18rG1Vb784YtmkMsv32qem/uqYU5rpbbCOiElcLvVeXJzR9Jpm5GI4eCZPHYOoolAPbWHd0goHE+4cA8IYdHYv97g39jRnEucOh7AmMvaHWNbusG46UN7iCkcqruCqFZG5GpMOi4PtEfwCTNn9391Yr7yHFSTASKRV43VWcyqZX6BsibUHP8fKjdOZwYPZ0Kn1HNDFrNau1yWKZLBRYXrZk0yo4XMW7yae+Sby5EIMePJ959HIuTosFb1v7UzeUuOnHXoVFs0RKm7+SNqQ4/WR6i0gQzQWyFJYjM5LAmGbWcgndxe16sFC7FeVPB1L9BwKEAQFAABDYXQIf9HvRJ39/9mqKcai8LZqO7JYkt5QxdCKvIooUlDi4uy/oj2fN/PBH8IZyvijr9ryiTqaTp6OJaxlxVqqljXa2VCYti9WMfN7J217SsS6TxD8jr86E3vzyJoilaa7gqG5104H+L0Tu1Bt6i3K9u+VJUWJNU/AquWI17bVC+fKduDAJZUfAqzKwz/VFEbt7AoPcAIE9IvBB3nA6Kp7A2AGUGYpJb7JcTNHZcp2tNDJ2KWE4Ec1A5Ty2mTF0X7C69/MGx/Y0r5L0Ki/y+lSCnMDJ+wkVVZcTXj3rVblSXXSqnFt9zfLnMegoHpiEQ1A8K9vlXZw0yHZ5p97gvzU2puSzhsl5Fa7aShUbmF1/RGpDr6NnZlNncW6POgTIFhAABACBExj7Qd5wJiadjooDKHM4lL0QgB+TDOaWo24l6VTTViVVKCYUOyoV/LlCf+AjeINo2nKpTFcamFv+ldUuo9nxQOZnyoWL9WRziVpcy9QWYNO9DKHDs/OTicQrlheMoupWC15DK9b+whRh06/s1Bt6N58Tmp4x7LTpZt1KqlgP50v3U/L5YObUTOpMiBnCwL5VMG8ABACBPSTwQd7Q765niNQIGpvOsHh1OddYzxVXaWuJKSxQejlj2Mm8EZW1qKzF1UJPEWVbP57cf/uBlAqiWeo9SrbpKLwhkql6fKXMlxtseSEsuc9o4/Rr4tRc8mfemC81ocX1F8XqdI4/D0XHA5Ff0mJK9/zf5On9IA9XcHrakPOOPm7HGwJZKpRjIJrDeAlm+JiSp5wS5ZQSdpmsr0ZLS9M4PTwTPwuxZ2DxFCINIsAb9vCs6O/YIAwIfJ0Eds0bDieyPxGJoVj2vmAh9mLaXuHNNdVY560GabmpgpnQdEJScUHuCRG1/nF/O+GdekO67tGVslRqKO4CYy5hheZ5mDwaSk0muWt8frrgnBXkwSQ5jCRv4gwuViVnsd8beN3tSTCKOzKDDYm34w1hioUZvvdjqHG10HuHR/cn3qzqnFJ6kFHGw+RwkDoNiycQ5TiSP47KX2d/Ba0GBACBj0Ng17zhnyn6m1j2Byw1jOV+Jk2IrZLiUiHfVpyF7hPLlpvWrZiS970BFXe8T2mn3hBretlaWSk2DHsh76yTxfVLKelHNHMMSh3FMj/Ec38n0v+Fxk9huV+zpmiuW96S7w0f+V50RFSispbMG73fqmNLFdr14mphljduRLnuPYb57AgiDCLKMTR/CNWPoMrH6R+gFEAAEPg6CeyaN/yvRO5/J3MH4vRJnJoK049hCUuURG5VsZb4co12PdJyM4btK1awtzNX6E+zU2/AWl62Xlbdhm0tsHwlZSxeyao/ErnjWO4glv07kfkf8ex/4KkTOP0s6wrSmmH+4Q2+SfQCG6YCO/q4neUh+xwAACAASURBVHlDzxV6TzD0VpPiamE+k7uNk5MQeS6YPROiT0HCAKIdRfVDmHkEU7/O/gpaDQgAAh+HwK55w1GMOYYzx/HuKvAgwpxCmGGMO4cLT0SLKFWJUiVSrESKZdwtE8UKUaqmihXBLvKWy5kOo1tZJe+LYmVfnJj3xeuWbBcLXtWo1LWip5drdr1VWlgqaw1fDXPJF1Gpx6qNZLWZri7EvUZYd+8mc6Pz0CCcHcCYYxhzFGeOoNQxmDoblW6LVdRs8WZVchpqaUHzFtXSglJsyW5TKTadRsuqNc1qw6jUZLvoS9MsX4bhbipVNVTNVFVDUfQYK/hK8lJaUilN50yHqywwlYWc10yU64GC+UyUr6cz5zH0FJI6iTInMXYQZU+g7ADKdYV19XH6BygFEAAEvk4Cu+YNW+E7B8WnI7GnnAgXy/HmYqK5GKnUIdfDTIfK610VDLpgsKbtS1QMX2rB9kXldUY3ecsR3RKjm5xpS25JKZVNq+VLNxq+Es2laL2Fdn//ufRckB+R9DQeHZsPnYS7z+v1NIAyvddODCeUu6Q6Q4nzrBIWC7BsYKoVNUopt5Z1q/TbSjK6yRqWXPR8FcySr7xR3FRK3vaVVTRfpFagCwZn2oLtsrWlTLGO6+6sUribyV1NpC5EiTMYcgLN+FUFAUAAEAAEPhqBPfeGU0Hi3Dx0EY3dSJJ3SfYxr7zRXbjSjFVbpOMxXk2otcTGAl2q+JKdqi/JqfoS6y2h3hJqXbHlGuPVaK9Kl6qEXvYVEgxfP7PyPZKbjmcmEWICjoyFsQsh9HwQOYn88RvLvddOHAmTh4KZwWD0PISNo9EpInElnr6epu5z0q+a8Ua3o6qe1K2sXcoVy1SfJLviS7Qrm8pPINmVrF3qV8YuZqxixnKjejksW7+Swi0iMxpCh8PoaRQ7iUdOYORH6wqgIEAAEAAEfAJ77g3DKHkBSV1AkufhxEgwejYUnSJyN7LSI0Z5xYoBpYCaLuGWI47ni3RrvtKm5wu3S4jphvJmQCnMyfk3gvKSEZ7m2Mk042s0mv1DUOJcODYciAzNYWdD0bOh2EgwOhIkBhHKb//hUPYYTJ2M8Mdg6odQ9ACMHcSIw0T8aCx5LJ46kcyezOTOZnI/J7PPcuysqAZVPaQZvuJ5xxdVrG8qttzy5bcx4nio6cKGE1T1OUl7FBfuRtlrSOZCKD6KJIex5MlIYgCPD2B/2JhfZxAABAABQGCvCey5N5xCyGEkM4KS57DcWZQ8A2fOQOnT4dRwODEBR6fQ+OVI6mo0cz2R8/U0K/p6EM35ukKkL0WSF7HEFBqfQuMTSHQcIsbCkZ8iaV8H8ZSvETT7VuRZlBxGssNIpls6nB5E/3hx6TGYGkCZk28fMz6Ik99G0/+KZb6LZ98q810s869Y5kcidSGEj8PEFBq/hCevxjK+5iXbF2JUfEXshi/Cafqasyu+nkiFh4x8M0VfiiQvh8ipUHYsnDkbTp/ByZMR8hiRPURkjmF/2NhedwWQPyAACAACPoE994ZBlB5EqXd1Es2eRhObagJJ+xqDEr42TXwaTfxEUJvq3UJ7MSdQxm9/f+AwTh8gqHd1kCC3Ktqv5wSSvptTfT1k9U11IUn7Ohcjz0azZ/DUaTQ+EaLGQtQ5iDrdndNQRyPUQYI6EKWO4ptXtb/aIAwIAAKAwK4T2HNvOI6xxzYVTh+NZDbVyVDc1zCS8bVp4qORTG/fzrt/Ny8XYwd+vxG9geaAvxGotx3I/4sxWxU9GIr7Gkazf6ojWMrXt3Po96HIT0jyGJE9H+JGw9wZmBtEuaM4ezDCfhdlv42yR97u+9pQT/AREAAEAIG9JrDn3nAM44/iwrs6jHMHidymOg5nfA1iOV+bJj5I5IYhcVO9W2gvZitvGIL50ZD4rkYgfquiT0VoXydxypdf/w2Bn6KUr39CiX8hyR/w7MFo7lxYHIHEU4g4gIqHcOEAIXwbFf4REw6Bd+ptYeR7fWKA/AGBr5zAnnvDAMYdx/h3dQzjjuD0pjqB0Ztq08RHcPo0zG+qdwvtxWzlDacQbhji39VpeMuqHkdyvk5GWF+b1v8ERh9Cc776m3Ma5k8h/CDKD6D8UYw/jHM/RbiDEe4YGBkBAUAAEPgUBPbcG75y7wXNBwQAAUDgcyQAvAG8zhMQAAQAAUBgIwHgDRuJfI4OD+oMCAACgMDuEgDeALwBEAAEAAFAYCMB4A0bieyu94LcAAFAABD4HAkAbwDeAAgAAoAAILCRAPCGjUQ+R4cHdQYEAAFAYHcJ7Lk3DKLsSSBAABD4SwS6v9vxKfa2g0IBgX5vGIGYSKG8stz8t7/97d93C80QzJ6DgAABQOCvEBhCgDcAAp+GQL83jOHSa1JdWVsE3vBXTmNggYDArhMA3rBbF6kgn50S6PeGszB3F0otrbSANwBvAAT2BQHgDTsd0UD63SLQ7w2jKH/1DdpaWQLesC/GhV2/CAUZfnYEgDfs1kgH8tkpgX5vOI+JV99gC6vAG8ANEkBgfxAA3rDTEQ2k3y0C/d4wFMzdCsZW1oE37I9x4bO7yAUV3nUCwBt2a6QD+eyUAPAGsHwECOxfAsAbdjqigfS7RQB4w/4dF3b9IhRk+NkRAN6wWyMdyGenBLb0hs/uLAIVBgQAAUBgnxDY6UC8D58DG0Yzgxh5DOePYdJ/u9+wTxCDagACgAAg8NkRAN4AFmQAAUAAEAAENhIA3rCRyGdn76DCgAAgAAjsOgHgDcAbAAFAABAABDYSAN6wkciu2y/IEBAABACBz44A8AbgDYAAIAAIAAIbCQBv2Ejks7N3UGFAABAABHadAPAG4A2AACAACAACXyAB8HzDF3hQd/0iCGQICAACXxsB4A3AGwABQAAQAAQ2EgDesJHI13Z1ANoLCAACgMC7BIA3AG8ABAABQAAQ2EgAeMNGIu/6J4gBBAABQOBrIwC8AXgDIAAIAAKAwEYCwBs2Evnarg5AewEBQAAQeJcA8AbgDYAAIAAIAAIbCUyEMhfC5GmEP4lIQ4HcdCi21Hn7e9Hv2giIAQQAAUAAEPhKCABv2OiWX8mBB80EBAABQOA9BIA3AG8ABAABQAAQ2EgAeMNGIu8xUvAvQAAQAAS+EgLAG4A3AAKAACAACGwkALxhI5Gv5KIANBMQAAQAgfcQAN4AvAEQAAQAAUBgIwHgDRuJvMdIwb8AAUAAENgLAsMwP4RI7+p0iD/5Ijv0mhqeYc7OcaMBwddxwvB1FC/4uj4L3UHit5HkxVBqPEyOQvQwLAwh0k6rDbwBeAMgAAgAAp+YwAjEDcPCuzoHi5dR9RKiXITlKUiaDIu+BgOkr2GY9XVjDr4Nx26EY2OzUeANn/i47tSQQXpAABAABPoJnIXos/AmOhemJmazm+oOkvT1OE77ep6knmf5xwnmKkICbwDeAAgAAoDAZ0zgfJgaD3eH8g2aCGWvBXP3ItKvGfMVU5qX6r6YvO2L011fuXIrW12KWLXXUgl4w2fcJ/qvHUAYEAAEvh4C47g0jksXUGEU5sZC2clgciKQGJ+PX4GyDzPqU9aaUSuQ0Uo7a9nieq7cpirtXLnjyy0v+NKdmi+mtpQsNTGjMqtWphB6DOXOYfIIru4ULLjfAHwFEAAEAIFPQGAkRI+E6LNh5hzEXkWph9HcL0nuOSnP8Dqil6NOM11doerrTGmVKa3QpRWmtKy2Or7MatuXU2/7Ulc6VGM1YtVmlPJFlBnH+FFcORvRgDd8gmO8U+ggPSAACAACw0HqbJiZiqrXs/YzzgorJmGV0+VWrr5MN1fZhXVhuaOudkrrHXu5oy+0tfoaX2r5SuTbviCm4QuW9FeU9DCauwJngTcAPwAEAAFA4DMjMBVVb+aKTwsroVo71Vhhaktcc0VorfGtVbq2RFcX6eoiU25xZjWrODEmj2aluQjp6zbq+JoO6b7uQcQtKHo9FL0YSgFv+GR9YjzIAn0NBPbbRe5oeMuOt9+q+nXW585r8eaMeHVOHA+KI0F+EBGPR9WBVOHSa/zebORFhIKofCpfoewFobyiNta4Vju72M4tt5nVdnZxHXXWZ5WFJ7ninXj+EspNwcwkRI+Hc+OhPzQa4nydh3hfYxDVFUxfgNlRqLtgdQ7izsLcTg8EuN/wQb4yGeSAvgYCOz2v9jr9aJjdCvteFw3y3w6BmzPC9JxwZV6YDAqXIoXzuDoIcYfmc4/xbCjFxUWTcxr5+qreXC801gqNNW5hPVbvzOurT5jKvZRzM6pfRZXJIHdhnt5OcXuRBngD8AZgb39OYC/OvQ/JE3jDh9D7CN+9EGbGQsx4iJkMMqOv0lPz1B1c+zXtJvUmU1ySamuFxba+1FGbHba0nDFqr5ninYR1PZK/BIlTIf5iWLgEiVcQ+eLOn2ferdYBbwDe8Ocj41aXqF9P/G6db7uVD/CG3SK5R/kMYuRphDwHkVMh8jbEvSQKSX4x77TlRkdsdoRGV5S3Ftdb85T5JMJenifPz+Qmg9xlWLqKKpdh6TIsdX0CEvaohn+aLfAG4A3AG/6cwJ+eSB85AfCGjwx8O8WNhOjukwqYOIaJJ9DkqXB8HMk+TCrx/CKjrRT0dtHuWgJZ68TdNbSw8DxrPiSkOwh7PUheCtD+ldZEgJ0IsOPzzNgcff7TrSlNQeQ4Qg9j0hCunoXYy/ORRfB70dvpB700/uEEgS+bwPa7xMdJCbzh43DeaSlnw0xPF7HUNJ55QsqRQlWudQpexyx1LLdN1dq4s/6MLl2H+athZhpie7oU2vwG0njwgy5ed1r//vQX4dwkyoxE5DMRbRThL85iC8Ab+gG9P/xlD4igdT6B93eDj/9f4A0fn/mfljiGicNB6vRc9hzEBlMCweqM0zRaHWu5ozbXGW8xbVYfpc1pXLsEieMB5mKY760dXYalqTDvd7b+APCGT+aNf3q835+g/yiC8BdM4P3d4OP/F3jDx2f+pyWO49JwkBqFuTtMOS+UiuZCud52G22+shh3Km9E9UE6d36eOjfHjoeki6h2EVGnflf37aqbbXrcj95wIcQC/SmBTQ8niPzyCPxpT/jICca2WILo7noEZ+5HJDAEi8MwPwoxE2HyYjBxG03PUFLKLgvmcqHa1podqrT2hrF/yeavR5jxYHIKFqdgeSIsjgX5iZA4GZZ+U2jzecNYiBuG+U21Wwe63/NGYe48wvd0CdliTenLO71BiwABQAAQ2F0Cx0P86TA/BjPTSOYJkSZ4vlCyKnU33ujE6h3YbT/jm9O4dhVVLoaF3k3mHVVgLMSdgcVNtaN83pO43xsuoELvXvoYJl5CqM3vN7wnL/AvQAAQAAQAgckgNzCbHQkz0zHpcVaOm55Ua7hLi+WlZqzeCVnrD7Ol3pMKlyCxp51CGwv98aM9/q/39AI7zWqr9MAb/nyf4lbsQDwgAAgAApsSuBBMX48KL6VixGkyjRVlcU1pLTJF7ynXuJOwukt8s9REoLsH6TIsXcPUqS3WjjbNfDLIjQeZUSi3qbb6yk7jd+wNUyF+r7XTNnzk9H7zu0dontlUF2YpX376DYGPXG1QHCDwMQls6O3+x49Zh10sy6//ewbx3nPLUyF+fJ55EM29ZvNRt0k11+nmGttaS5SaM4xyBZEnAuyFWWoyyE0E2KlQd0vSVVR5T7Z+K3pLT72aTAaZsUBqPJi+gtI3YuKNmHg9KlxCchfmk376Dwzs2Bv8zVV7FLgYFj6wSXv69d6x/NO2b9WT+r+4p/UEmQMCn5DAxbDQ39X98CVo8103n7Cq2yzab8JlWNrqK707BxfDwvVIPqbqVKkqtlbZ1lq2sY44i09Y6xrO9H93O3n2p+/NM3oxF0PMVSh1h6Bf8RZiNWGjPiO5tyPU2Gu0/ysfEgbesLM1pX5v2NDR/aXDDfH9E4ud9oYPObTgu4DApyLwdXpDb6XoZlSfK6ya9aq1uKAtrlCVVjBfvpmQR4K5UfS/bTra6WjQm1uMzdEXw8LtqPqaUeF8MV1ZZBbaZG0lKFv38fSlN9BuHXTgDR/kDb1ZXu/vFUT2dTEs+PIjryDyTnvDbh1mkA8g8DEJfJ3ecAWRH5Fe0FyL1jrlRsmqeZRpBljpVoQag5lTIfbEf7+psNPRoOcNF8PCY6ocNpeylRbbWmWaq2R1MVmsvaaEu0j0RvDTzRv6r473IvyeNaX+hZrthCdDwqYaD3ITQb77r/BvCSaCfFdhcSIsTYTF8ZB4IcCdn+fGgsJEWLoc5q+HmRsQexPmbmPifUJ5EFUfxvKPU8YbvtrTDF8Nqgu+5sSGr18ztq8HMe1+VL0XUe7i8vUwOx1mrgWpq4Hc23Kl8ZA4FhTGQ90K/FaZXsV6tQ0JE0F+PMiNB36v/xYN3LTVW0VOhPhNNR7oFtRTf4Kt8tl5/J7fuNpOJ/l60nwqb+gfJd5zdn/M6v2Fsvpb0d9nJkLyeECYnOcuB7nHSStZXJOW1+jqql5xKd2Yy9B34OSFN8QEyl+IaANvbz77pfd7w0SYHw9zmyjET4a7b2CdCjCXg/QtmH2S0KLmgri0LK505NUOWV1G8+UZpvAwkrsVTtwKJ/z8NwT6q72d8HmI8zWOCOOo2NMlmJpA2BFMGcLzFzDlSiDWai//29/+9u8byvuYH/tRbic8iaib6kJIvBASx8PyOCSPh+WxkDQWki6ExLNB5WxIHYXyY6gxjhlThD2drt5lFueFakq0SLXI6GXWqDJ6RbAbSmlR9ZYkt/m7Wqq35EuwG75Ep+lLcpucWaMLHqm4pFrMyHaC0wlau021bpKNa6nK5URpDDUuIIVzYW0kpPSq2qvhFKp1hWiTsNrVFq3baXwv83f//lbK27L6/7vT/LdKPwX/9lLJ7RxKkObDCXzMU7V/3vD5+sFWxPqPxbmAeX4+fwvWX6dsTl8slpZblYWFUgUpdjeq9obg7eQziotnI5voPKZeCCtTQf4WRL8gmBSjmKZd95xixUs0O5FK+7WyfD/tblVEf3x/tT8kfCnEjAXFIUg/BVsTEfsmRDdW1z4zb7gEy5tqMtSdJYzNM+fn6MmQcAmWrqDKdCR/J6I+jOvPcqVZsYkYa9FiJ1npZBsdodnON9bzzXah2S60utIXOm/VVmorvvRW21ehte5La6z76n2x+6/murXUMXta7BYU9zoRp42a7Xll4TVX+yVj349q14nCNTx/GZEvQuLYPDM2z04Eualwt86bNu0vRI4H2E01FRZ89Sf4C0Vs8ZXu24aBPhqB/mFir8NfjzcMveRvoE5AWKFKHb3S8aptz23pinUrZlwMC717A1vR7j/0FzBxdDONIeKFOebSPP06Z5NWq+AtVOqL9WrNKFXC9vovdPUSJJ59ldmqiP74/uI+JNzvDWcC8nSQrH923nAN4jbV1Bx5OUTfQMU7Ue2XrPOM8d5IzWBhOWsvcqVlqbaeb7W1Vlttrmut9fzCulRfZ8urlLuUtRbo0rLU6AjVNuut0aUVtrz2m95+pEsrPfGVdV85d9EXV1kXam252dEWOlRxmfFWhWpbqnf0pXZ+oS3X14VK98c91GZbqKwxxcWwvjKvLr7ia7/mircJ9QYqXg4xk7PZyyF606b9hchpmN9Uk3Okr/4Ef6GITb9yFfrjhWIf0lPBd7dJoH+Y2Ovw1+MN1+H8DLOYcTtSvWM0Ooa3zgoOTnRfrP2nTzv3H7hxVBzbTBdh7m5EnufKaWdFqrWNxrpZXpQ0K8Zo99PuJUg8P5Pr/cDDnx7T/uI+JNzvDadmhVsw01z73OYN10O56yHqJkTfhJmbEHMTom+Eu7o6n7mNcs+y5rxUQ/XlqNMm6x1+uVOoLRS8RsFr5Ev1XkAr1hSnIpVbXGM9V15LOasJazlmLOJaAxIrAdZ9kdJ6ep5UH2GsrydRyVeQK/lClTqRbyWs5bS7knbWSG+dra+LrbZdXzKrC0al1Svdr4C01uGWOplqJ+qspSvtmNsOyvUXOfsBId1BuVsw22vRjTDdbSbE3AjT10PUjTDVi+8R6IYh+hbM3ILZ2wh7G+HuoPxdjL+LCfdw4Zdk4Q+lCr/8rpeU4+uPBMnCPVy4iwl3Mf4Oyt9GuNsIewtmb/URfluBLufrIeq3cLduXfm1vRGmpyG2fw33Qzor+O52CPzp2LGLCb54b+h13cuwFKbLaXOd8zpsqaPWO5S+FEpoP79J9B577j3rsBXY/qP2diVA+u0vIl2CxUuweBmV7yBsmLWVhba60OHLy2J5mSx4UIp/gmQnAuz5mVxvy+xWRfTH9xfXH97paXgpxI6FxDNv15SGg/IDQmquv/WG/kz3efjmXPLWfPJ2IHU7kL4XJn/GmBdJdY6ycLUeNxZzXkdsdSivQ1c6bK3NN9r5ykLBa2qlhuJWRctj8k6a14gcP5OSHsW1exH5FsrfgNjrEPOXdRsVfN0n5Icx7UnaeEraWIaJ0SIpG1zBVdyqWqzlvYZebgnNtthqSwttdakjNDtsrUOVO2SpnfPaaWcFkSpvsvqLpPo0Jj6AqZuziZuziXth8hHKPCH4pzHpWUx6mVJnSGOetmCxjKu1WKGVNJfixmLaWaW8NlPtZuiLrnRpvCs/AVXudL/ytvS4sZg0l2L6Aq7WYNELccUA48xk9Zcp7VdCeIxzDxH6bih7L5S9G8reDqRvzSV/OyLzqdvzqRthqrdxyz/N9nl3AtUDBHoELoaFqRB/gyj8nCvLzqpZbRdqbancThWWnxPa9TfZGzNk/6C8Vbif51VIuva7robFyyH+BqY+pSoxrSY5dbO5rrfaUnUtnq+9TMp3w5nrgW2tI/UX3V9cf3g7afrTX4X5KVg9i9nDeHEiYt2Cmery5+YN9+ajD4KxR+HEz1AqTBcIuciUlvKLbbHWluptpdFWW21toRum3cWUXoupFUwsBnL5l3H+F5S8H0zcniWuv0KvzMQvBuipADU1n7sYpK/C/F/WNVjwNfYmPfYmMz6TGZ/NXnsB33iN3Z2PPQynnkfZNykxzJgR2YtIxUS+QrtLUm29sNitrdLo1l9baOcXuzVnSyust5JzFiOiO5uWgjktppbjWjmRr2TMptxoy4220nyrt4Fek9VWR2t18m8z6f79XWqzu5z1rvwEva9oC22t1elmstBl2M3/LUy1V1CzTTmLGbORyFeiiocLTpguvEkKTzHyMZx+DKcfhuL3A9HpueT4PNN7NPQSJPZ3PhAGBPYzgdE35NuHGNbijU61suZV1lRrKSlWn+LKzXl+aoa/HFL7B9ytwv1tvBmSbv+uK6+pW0FxhqpnSp1CpVX06la5JVhVXDCfEPzNEHUV4q7CO35GuL+4/nB/9frjtwp/Cd7wOBiZjVNJxZbKi+5qx1rqaPVVodRSaytSeZF16qTupVQnJhoQKc7GqUfxwm2iMI3Il4LcNVi6jirTiDyNyNdQ9Sqevx41biXs61HjEqL8ZXXfxv67pgn9Kp6/hChTkNQr6Dqq3MDUiwH2Sli4iWv34uZrIjsbp0IZHqWVuGSmNZd16nJlqSe1tpJvrBkLbWelU2l3Gp1OZb3jrHTMxY7eahea6/nGWq+xorcgeguc22DsGm1VC811rb4qV5ZEb0EqL/pi7Nqm8hNI5UXRW5ArS1p9tdBcp60qY9f4YlP0Fvhiky82pfKiWlsxFtrGQpe2XFkqNNf0VlupLgulFql7ccnEGDWU4Z/G+CuIPBXiL8xS52dyW3VEEA8I7DcC1yP5l9JirN4hVzrNctMyK0lSfRHK3Q0w1+blqZA+Adn9A+5W4f523QpJd37XA0R7Q1aTdodvduxq3XMdSc1jKeoZkr4dIi/OUVOwfAnNb5XtVvH9xfWH+9P3x28V/hK8gTOqktPMl5etRjtfXi5UVvTqql5dFaw6pZViTB5Kci+hxLNg9JdZ7OEraDQgnAlpw+H8cDjfC4xAhbOwPhKQRmbZ80FxEtGm0Pwkov1lnQ+KvqbQ/DiknJvnh2eYc4jRLQgqDIfzvb+9Ovw6H3kyh/8yiz2eQZ/M4TNYJs4WRLthN9fKK+1Gu9NsdyqrndJSp7jYcRc65eVOs9OptzvecjeyvNJxF9pGba1QWbGb7UJlRXZbglUX7QZTKGdlJyWYGcn2RVDqpvITZCQ7JZhZ2WEKZdFuCFZddlu9zGW3pZYWjdqau9B2F9p2s6NXVzVvSSkuKMUFtbSoeUtWY9VptdXSIqtX0mYdLbXfqCuPSO9WzNiqI4J4QGC/EXgutNBSO9Hsvm27YRc1QYOg1PVHwUeweBMzL6LFMajYP+BuFe5v152gdP93zZO1lNHmqx223NFtzy3IFJl9ORe++xq5h7JTQXYcVifRwlbZbhXfX1x/uD99f/xW4f3oDVuNyBfC7njYuhZU78zTsxiXSPAKpxTVglpaLFRWzPq60+qY9XWluEBppThbeJAp3klY07jWu1+0FYK9iN+qCZdmhSvz0tWAfC2o3IDy0yH1yrx0aVZ4PROZC8QRLBdLCBRjCFKxYDSK3qpVXdOrq0Ztzaitectdk+hpsd1ZXe+srHUWljqtxU5zoeNV1nWzyWu1F2L7MbV8K1a5hrlXEPsybF0MG1Mhfasqbaf5N6O6r2ep0qtsZZZuBPlFSFrGtHbS6VDVjlRZ0bylfHm5Z8y9aluNtl1ds90ly1m0nEXDailaheXtdFYlEuLNaPkq6kwGC2Nz6vi8NhXSr6LONF68FlSuBuTLc+KlWeF6WPPlT8Y3BLbTBJAGEPhTApdgeRwunZvLP4gWI8qS7KxVKmvNcrNhF1/Ji9cj+akQP41rf5rPexI8mLHvP9d/nTfjworkdeTaqtxoSo1yxG48zJb8Ny+8J4eP9q8pWL2IKFdgYRpi7yHMw3DGWe50n2/4aDV4t6CtVnImYec65j4k3JcJky0s6mazUmy1Kq3iWsdYaIveQs4oZ/JFjFGfo8lbLwIXZqnxeWYqxH/81rwI3AAAIABJREFUZe6tmjAdlK4FxCtz/OVZ7kZYuYMWfo67z7JVirdYyZXyFc1s2N6KW1nz6u1yo229XS9Sqstv14VaovebtNKC7S055W7KUq1daXa8ertYXTe91bjZDgtLz5PFn3Hdn73eDopbVeld/u/G9L8y5NoMMz3LXp/jbszzt0PSXUh5hOtPYvZsWkUoOSYapO7ljDJlVqTyot5at5vrtrdSrK73WlSsrlul5bzVVIxG2m0ThfUgtzCTqz1AtPuwejcs3wlJl2e5K3P8tYA4HZRuhBVfGyzB//huhUEMIPAXCFyCpNH5wu1YBcmvS822WetecjlGReXVaVzrnQXXMPUv5Ox/5cGM8TxYQjPLvNNWa91l4cLCSkxVH8W67/EefdO9ub3hpTv+dz9yYD96wzWY31TXEf15thE3u/ddzWanWO8euXJ5lfVWkoVaMKc9J+jbM/id2ci9+ej9QGzkZbq3I/gjM+2+qH2LJtwNi/dh+Wc8/yRqzNG1sLBAFNYzxbZRaZvVrqxax2127Hqn4K3L9nJWr8fUMsJZvdb17vE+htNPQqnXEBnJFth8Q3GWJWspX1rrfbey3HEa7XxpXbKWeL0Vo8w3cO7xa2KrKm0Hzg2i4OsBVriPaHfC8q2geG2GufqG7rnF1ZfE9ZfwndnIw1DiKZ57kxSCOQ3lrZRSlqzFfGndrneKrY5V65jVjlHpyml0uns/vHWtuKY4K1nRC0WFl6HMk6jxM56/D8t3w+KdkODLN4MNge00AaQBBLZD4F6siOTXuUZHbnQKtY5qLacySjAY999xtJ1M3pPmBeZG6VXRaWuVjlrtcMVlQjBeEpnpQHpsjh6boycCbP/O4Pdktdf/2o/ecANiNhXpruWKbabU4cud7i3QSkd21nljaYY0nsak24H0pefYQ4S+FyZvzaeuz8T9t+DtNcR389+0/jcg5kGQeYorwVyJkBe4cluodncB6d1HLjr5akctdxSv+1dw2ll1gWC82Yz+NCY9gKkbs4mbc8k7wUxPD4Pkr0Hql3ny8Vz2BczF+WouvySXOkZ1vWjVPKdRKbaqpYWy27T1siZZMq9vVaV3K/9uTP9bWW7/7goXX2Rvh6R7sHoXUroBiH0AU/eh3H0odyeYuTmXvDGbuDGbuDOb/GWefIUKoaQeoUusucpZ67zdFp22a1a7M7/a6lKz7TmNstudCFZLC4S8EMyVnkXUB8EuMV8bLMH/+G6FQQwg8BcIXEXk7lJSqy03OllzVfQ6Kan2CqKvPwpO49o0rvV2VfyFnP2vhMiq4LadpY5S7oheG2Pc+zPxB7PxO0h3y0bvxeATAdZP/wkD+9Ib3o6DtwPpnp7GJEjw4sYibywZ1Y7Z7Ki1jlTrpPTVObL0MyJ9yKi3R+jvhrJ3gplb86lb892nLh4i9POEMpszM0orl1/i7XWp+JsfaJWuH+ScbnNwsRmivJmU9SKa/wUR781TN0P0pq27HfpjxLw7l7s9k30MC68TBpQrFhTHKnie06iWFnp/G5XlZnUlW1wn8s05ynqeUO5Dud6zCDfnkju9VLn1+w48f2juBW6GuT+t6v0A/SjMvYjmQ5SHCzVFMAqK4xiVnjFUSws1b7FeXspXO3Kpw1lrVGEZJZ1govAKFX4NUhdfZK+8pqZn2RvzvO9JNwOb/4TAHh1ZkO0XSWB8nrmTsObza6K1Uii35VKHsVchuvQgyNx4k30Q/qBn+6+iSu+lGs/4ZsZcFr11pdrmi+tJqTlD5O+8yNx7lbsZ2nfdeD96w/1ArKcHwTguuim9xpXX1Fa7Wl13SyuSvpCSaq8Txi+EeQvRr4a1D1kt2aOOfuMVcnsGvx+IPQonX8U5hDPp4pK+/P+z957djePatuj7PffD+6t33PvO3md3V3UFV3CQFazMrGzLVs5izhSTcrIC+QbFarVPl91d1XbZVd0eYw4NmKZAYAHCJIA1Fz4tHEkDW+zbYt9itVWHn1QJI1xSz65k7zl/lKLegM03YPMd0vmA4W9Tty+vHSTx/UrLe7T7FmodwO33aPcD0g4hJSyPl7tamxvv1pqcxRxj7kxQiOG2qS0r0qTADZItMXjeOITz+12ZLzTFXdzwNknc2hBvbxTVqdGuqO+QznukE8EqyHknV+EKLaVKGLv1sZXYt+Shs+6kjGxlZFHKsitMm8ywShhnBdV7IR2mmAMEd/c83qHEh8RzsKZnC/x1C/ycJFxiQKVNdW6Z5mq+tClxDl/SnkTnl1jjZxB/kxa+8Ndx620/JfBXWcbfGqY1q2XO5KUlL+08rsfOaT9CHkdxP8Qdpu61xX3rc+958XvkBh92ET2vYJVutsW4rv3izJIX9kAdkISYLxFonvqItN6gzE8J8V8J+T67rPc0311fd6uQqpNXpMSNV9x4zY3X/GTdn1hqf81KY5wxKk2+UKWzl+1krv4aJV8hhLtH/e9I/T+x5i8w/jZB/5K+XWPxKvXbDu3bBP0KIV5C3Rdg5yXYcXd036PEAdyN1wYJ3NnSKKs2O3KKwU82wtSJAIjr0yKtZJr0Yan37lJ8lWW+cJXzLm54laJvbYhfbhT1XYr9mBU+ZPj3ae4gybyKN99CnY/OehTjz8vhkg41x1h31iZVWhjK+lIfbtX+umeuFONa0hZX8jbLruH2NFrte25se9zVCs/Xny3wpxZ4kSI/FGRU2pRmdn1hDbWhIg+uKtQZXDkAaj/Hu/+C2X8l5D/N5w9ueHPOnXXGOdMqzezueEwOx1VRj+e7HrBxEsNPoqw3rrzH+D/I4Un+9T1yQxDNZypERxxII8d9U9g5RzqOqh2ieF6E4XwQqfiytOti/N8Z8z7emd/I6Mlip9gVaW2mzbesseD719Joo0y2irqg2X61zuUuWuFoJhzNRGLZSCzrerW+SbBvk5ybfo0xbxLsz+nbNRYvUr95dr7GmJcw+Rpj3ia5g7Tg+q2+TCsvUvL/iZMvUvJhaexrXrd4E5dHnLl0PWKl0UYeO0j2tmFi9u5S/MJVzru44WWKubUhflfU/461fwK6ji8vSr/Kqj8npX/B7P8FqP9G+f9G+X8j3L8RLpWpFUpkl1B5cSzKU0mZuS6wxNzuTOx63y5rNoYv4vWhJye8hZ1T2p/xbIG/ZoE35xzEr6tLuzy3c9pWZ4VCrgBBF9Fk4zjRfZ3i/5WQ/zd8L13Oad1MqVZzY5dmNj4Z5mkimLvyJ8teuHUKkCdR/vCMfw3+jwPB/lpdHvZbd3LD71aTH/zPdwl677f+Nsm9SbA/Ad1fEOpDVrrCW7iq8MMxP1zQ2oJW1xV8hOX5By/DF2Z4kGD+k1ZvRQA0A5AWgAU/ShyDV5F8JYt3KjKz9/SXx1txuGb0eUcc1GjVl5ePM9xbuPsiWv/Cpz/UbUfnzXCdywijkrlsTKzm1G7P7c7CFuWpoi44YdTuKheXnXS2DqOFaDz3PiO+z4jv0sJBir/ZUndxw0OV83f5wO1pirq+lKyKbhv9tdHf6OZaN9c9bcmL4y6h1ho8mp8DmVEI1b1xyRMVPFHBB8h+UPk5dTuzvk7Sv3vK859fboFXqduZ+HXyt2gQX57brXfeNcbderOzqHhHkX5OGj8lpj8lRz8l+/9Jqf9Ji7tTRuhXqZYHyQVSV8k6WeH1jjahh9fUYNnSpmFi9jJN/QtufaEj6V1F+vl86PjcJ/mzC67JTmR5OtLHI1m7kK9P6+bPScI9JvKumn4P118n2bdJ5n2CPMI6gUQ7iFZHy52+4a46P9T194nfXNffJuiXUPfoXAK7i5y0oUamOJ+J82t6sCD162RZ8EL10/hjD6b7mr5L0C9S8q04g3U/qHgB5gRoXXT1Cq/j/RE3nypLJ5qFG8eiKQ/OO1wkV/4YSxwguLtE7vr27B/xCImX4NVrpHSQqH5IN8I1AaP6RX3dmduStjBGW2O0lfWl2l+TXD9fIqBE8Q1GuXiNknuFwYHTVx5sCPiSWh+l2dNz8aygRipmoyvjjCGqc22wcZebZH0p9GbcwG4KVqoyCiV5P0J7IfI41vkYbr5MUrcuc715uFHsS6rwN7vnB+KGl0ntZWL8IjF4kTRepJQXaf6Fs0hLvErUPEgOKXdavRE/XbPjtbaxm8oQLLZfZZn/D2zcnxte5Qf/htn3KeGKX/GmpZsbU5tKjBQoO1OQfyPtl2nqC+nnqXjiybjhQ+J/uK77LoQUuaibNjGzueWCmS8b2uicUgLZ5iFU9SDdyLnwVL+xdwn6dVK8FUdhIpZW8+1FQ1jSA4sdOycCSdc2Nd421EWe1pMt4QQrHKNXR8jlIZz/Jd58C3c/JumT7GNPgzx58ijX/ZBuHSTqr5HKyQURa/aSzLhBDxh11Rs727+stmbUFd1zBBNgYxApa95zfr/p7SY+JMjHbIibUrtooopedK+acoMeUMqS1ZyNa2Vkk/01blx39WVHW+SJXqrBxfItL1Z4k2rfuj1+kHR2sJ/x1yzwA3HDq0TvDdZ/kzBeJ3qvk8LrFPM6TbxKdz5kW0iZrApDbmLJS4sebnFjkWpwHrTwL7jlemd84fbbXTZ8mxHfpwSwMaLGjmtlb2jT3OCq0D1Ifjq4/vEFuV/LMU/GDR8xYu+37k3hl8y8Yzp6E3xgdybzij6EmvRJuvY2XvRmKG+aew86Ktwnwc0pzs036IMkk22MyvSKMixpanNjx7mWHtik6XiLIq3eabb9Brg6StYPE7X3SNlx+f913vD4FTnK0B9S5PskfoB13yBtF2/RNnhB59tmS1zhva04/iSzoA2bX9hNzUq2+mc5et9SJ1j7A/ao3PAeI99j5DuUOEDwt/7sYeQqgDaiGTxbV6+6g6ZwTWo2P79mpwt6PCOHE3m1pkbTAisg1cb79O0ewO8ST9aXHr/dH/yJPxA3vMHkA1Q/wHoHmHiQYA6ShBN1P90IFOl2b82NbWZo4/q2IV2DV4w/0Qikndf5l2nKPY/hSwbTu8z7HmogDbNt2OTQFmc2pVv5puoDCm9SxJtzznX9+M7p4VG54Q3UeQN1XFXtB7h1Ei8dx4rpqkJqjj87bThyNnFsp2XzY772Arl6k2ocpJzYEgcJ7iDx2C/av7U6Rh6h+DFGeJKUJ0mdJEhvmkHqg6KwpfoWPXAogZ/Y4sRuy9tccwxdKrd6+h+k2r/l+QQ8x3xI3IKDWNmT6ESvBKxhFPlFVV63DZsY2srMUWBQutVVNpedfrqqRDP4Sbz0dhcw4/3jMoRrt5sUdRArH6OtyCWP1vW6orU0kxxOuNmSmy33PFGS52myHyrQ75HyR6y6l3S8AWtvoM57jDxKs0dp9kkb5Wled+5T5R+IGz4kxCNEfBenXkeaH+HOIdY8TFSTuNYd2JThgHUSm0RZ9SHtw2jlMF77Ej64ec9NS/4Sbx4g+HuMfAt3c1WxKy6liTM4MBM7i4+PE90PcPPVjxOm/lG5wXVLP0DwV0DrbawCpBuljkopS07fuD74pLzI18WjcvfnZPEnrPI2SzjTwBT/Oim/Tqo3m+Ex0x8xwoM1T9DGCdrwYE2gKKRaRlVa0c4Zn7Yws9jxlh5Y560hWjBDmHQaZ25dynidftLXVUz8cBveQi1XS3GYJD9geLCgZJnrRt+J2+FipzPY0r1luauli/THhPMW/wbq/BJvunsnj9YWN1e3XJ3EBwx3wpBAF5HzRp7odfUFNdgwoy0/taWFzUytjrku8sN0R4pctgPZmj9T9abKH7FPv+GPSfrj8770V76m/EDc8BFjPTB7DJGHQPtDvOJPN7N4r6FNcHMp7pZ6Gvw2We6HkqwXwk/Brhf5agHazc5/kuWdkQ3uRqt9itJU/dqc2qS2TTRN37n4EiJeYsxd2+Y3+eY7ST8qN7xDibdw9w3UeYcSZzm63pF65soYbSVt0TNXjDi6LJNx5PK/EsX/wso/ZTqvL7gXaW63Cay+SOk3m+Ex0x9R3AtVw6kOlGcSJbHGzkltyw+d12pmOm5pZoFWcm3Vh+Cncfo4zH08Y2/dAn2RcWJLPBkw5cNtcHUVL8DOz0D7XYr9kOEPc+JJ/lPsP3fjdziz3GZixBHWncXrw9Nz8R1KPPLs4eaC3s1in4KEFyIDKBNMcNn69Kp73RItxrSVhRNbhZ9sdsEKFy1lmGnSwXThCKu78aCecInvybrBvXvgD8QNhwjlB6kzhAxieDjVydQFylyKsy07XNOG3eC3WHHog5njGO6FaB/MnIBfffbUzXb05IT3GOnLy1ey3e/1x6NVz1yV8f4h2n4Fkf+CmP/CpJ9T352v6l1U9ATc8CFBhctGkV32tKXcm0vKTO7NKcZEE6VILAujhX9l6j9ddF9cUC/O+f9k+P+k1Z9S+k8p42YzPGoa6frBUuKKqdNj52jAka3NbN602/y8JFLJViOQuTqM50+A1mmc8QE9P2Dc6un/nwz3qMX+3SiAqh9uw0uY/AWhXGnFPn74mwSLJcu5i1a9KdBsnxNGgjTpaUujv6HmVr1vp+lVuGw8srfVTVdat9iuqsMHyD5ADkC9M1g9DDIBqJcsXJdxi9Gv3ZjhrqSD71+7R3pAFekozb7HSFdc/ZSN8rs2+hH+/IG44RgmgiARxSgwQ102NVJZcOaiN90qM7tCboKo6IlRAZg/iZLu51vfV589dbPzvIW7gatell3XTHuqGhNzwrImfI5/RFqvEuy/E/L/RZWfks/c8GsvPwYFH6AGUTWUEPxoy5coIdVmrSfi42nVcOL+F3tWgljeNPFTpd8lHPmYi3dp4U2C/U+88xImT7JcvSnw4lgzVqp+rZuOlz0njOrNJ3OdemQTXcmrYm/rtpeyO4xBUmaCNKEYs9ESM7lGOJo5hJquTsXV7u0teeBscjzNbCl+Sacbcl2c8xOL6m9wfUOaFjO0ScOq86vzVh/Mc360dQJUfUgzlMLPMvRBin+NMb8g1EuY3FfhbfJJSf2JrPdUrfYXnvtTUv8ppe8UDMK/U9R/MsSLPPHiEj/O1U7grBe7uCQldryWFpa0sHBjlsXV492L2huo8xq81y7gf7L9FznjICV8RFrIBUGS6sSczDSTWdkFxYpW+4/vkfgXDHjrVw4cKe631Dd4ENEHKJ4Y64njPrSFVZmuMabH0+5g1BrZV7LlqltvLdwjX3yXoPerFu4pCx+zQqw1yXHXQm+mD7fGyFKMa4oftIjeRRFHUuVHLuFTPe6XePM4wyGdWUnditpC1pe7cyO22mAt9GYdSivWmBOs/VO89QuMHySZdyl2b8l3iScTmp3AtbNUCynx5x2j3VuSpuM7QPVtbuhsQnaUbZVdXLQHWEmOZEgPWHsXrThxR6DuK4R4hRD7Khwkn4zenqrFf6znvkhqL1LqbvGZe5llfkp3/52s/Xeq8jFVAAvNEqsS5lyYbcW51dWnF7gQKxCHKeY9Rh4guHsMyV+u778S8k+Y8BZjT9NksWPIvfl0uBqogyt5C7Umxxnukffk/nJFPv/iN+cGb4L3gexxtOtHSaQo1MVpb2WLi23LWFxK21ht8DFJv4E6n5fsKa78Jrn4gOHecz5JzOqmTU3dMxWcuG9VwsiUmHiqHgCvfPH8UxTyCd7B3R229xh5mGKuWr061ad718rI0meOZeShzRubsrBE2iPfhfAaaLwGGvt94w+JJxMTvI+UPkaK7rQgmOzCV0KJmjF9S5zY/MhhCG7ohEpuSZvzVj+Wo71Y5z3afYd0DuD2W6i1r8LHp6vCP6SD3bOaO/mC/DrJv04xBzn6ZarxH6zw9qIWrZAVfiAtHMcEbmLhxnWuI4Vz9ROs6joUfUhQ93RGeIkxr2DKk3VCC+O9jTayjf6GpvVIxTzJ8vefl9zTMvf5+rfnhiTthbteuJMoq01pRZqWO69vqqtQSXcXrN353X2q8SDfPcTwvZdk8Jy5oGYd06bGjocyY9ptaZ2qyKFk24/UDyNXJ/FSMNF6kOd+/5m8hbvuQW8HCH4K1aIZPNfQGvyS0p0tX26wU0VM7I5pXzJzqNLzZ8i9JY+w7lNV8BQmvBDuATon8fZRtHkSb4eSLHihXHYmTXFDaBY7+EQShGY1hFWRmkGVXvCcOYQbB7HyvgqOquN5Yec7tsDOx53bKRjwD+f462TlbaYcw7mmsWSGjuSIHjg6hityGLsgT5HqIeQ4Mb9DiaM0e8/Bx5elPSkCLCstbUsPHP8UUllnyrwnJ7xDiddg+5H9NR6wo34TbnA5+TjDnWT5t9HiCVTMtVVc33AjWxjbpG5ftKfh3HexWP8xSR9nONfJ3ZPoeoDySbx03tQZ06Z029FVDW1pZlekdeiCPUZb3tRv/PHPHDKObxy2g9b1PD2v95yzUPiJYyvXbi1xddnpgxf0Sbx0ECm6/eHxHUZPYcf55DZ0o1nqsjuiTUe06M4haNMmdasjb2rsPFmWwqnOSbx0Ei+dgpVTsOLJCW4n+XGXCB5w1PjesvoIk8cYdZqmPKnOq9j5SaaUpoSqMWj2rgnNpk27JW3RouJD2i48yL0WKt6hxMck7Z4gEsZq+UaP0rfywm7rdse0zunFIfp3eJn4JtzgOgi6b5onyRpa7dalITuyhIkzdlToLXzRP0W+i/29ozT7MUm/hbuvwfYxXIdz7XJXY9Rrcefgr89sUl5ctrVQsfce7b5HuycZ5h+/1PDbIZ2vgcZhkgQbg4K8oftbaeBEsFAnzrkLrLZq0IN8XYxdUK7v8iug9Qp41JmWFxL8kPg5PEDXhzSjWSpRVi67o4awxlWLG9qSc0apLQ2sDj8pddRMiQHSDW/s4mMg6XbmZ2L43ljBLc8pRpzAnWO4foJVzs7riRZdUw18NHJ8lw27xm4TJTOYYHww4cKD3Hed8x1KuJ2hVCIoxlR3WlFubmfo1dFF75fE30FQ+U244SjNuvOpj0kabXKNnsqMl/zUIg2rTG3Ry7EfVA5j3wU3uAfFvAJahykGyNNNXDHH28HU6pkrbbARerOrChVGS677/xuM+pDh/+FblAc3duz3pniboBNloU2qnDxR++vB1OpPbG2wkbRFnZ1EKqarh7inT8jXDkxeUPKDyufwxLtHsbKLANZGi1K+M2xJG0bfaIPNYGppg42ozllpXG0JqfNGHLn8kKDc6B0/7hLB11rvB7o/lCC8UN0HV8E8XmJU3Bhykwk9HlDmss5ZrojBA5D7GaQHuZd/hDtoHKXZcNlQOMXQp/pwy5tW09h6r4z/Eyf/O9X7gax3V1G/CTfsd+eBxqimTZjZiJ9fE/1VkZqCF6oXEDwR+QSU7yrTY153ndzfYyTSmeLqWjOuNWPl+qoSlJ5IVWLAeQQu/Qzir1D6TYJ1dQB778bHLOp38qy3u0MmXAu4QbzfJrnXGHMKlCDk6rKAdwlVlKd7Z19ptG0M7By3jVb7p+fiY9bC6xCD+jlOQccr6RSqe+GGmwinCaQgntd6BKW7x0VIyszob1T9WlEXkjIDm+NgUTtMMW/hJ9s+eUzT/VjPCqGdM6gG5fCuNBHHK2W2lKYTXJUv2yZ80Q/AfADmzxDBD3EuPPC9HM/c7et4fVjv25OePtJHijJtMONgnn+d4v8vIvzr6YS6D9hwD8YNwYR0hvGnIH4Uq4XS3WCmHss36lIfH1vE3O5OncNYvpPYNQHE8MZ7nhgbTLBepBa5qBV5kZr0mdGS7Ts7q03BSpQGPphycQo/gWvQA7bx42R1gnwylw+moLxWJDZtyeIGtjzYKOpClKe8OGb5YbMt5S5akVj2xIf8glCvMeYgxb9LC3u6fUIxwUe060/UsApf5aeEsZXmNj2wOuq6Ls7bslXjrlNVNZwmPkaKR7HyCVD1gLXDc+VDVnLZ8XuowuO09VM95aaF/yvcOEjxx3n1F4Q6ScBQ5aoiCcRgQvaXyrUlza10XTvG7rt2tK+pN6adwXoQlQIY6YGLiQbRNjR2PmiNbPraLiibR9aB7gv27RIPxg0BVAggnBfCT4DGMVgGLrsV3sCNWXe4dnUMwaL2nczHA6jmjcvHEcoHk7FzKtcRO8aIn8+F2Yrt27tJaP8MY5+54au63U1uOI51vBCZLA8bvMUZG8W4VvtrbeCs2IjqvENphSqdvuy4J6G+hLo/A+398tQTigkOMTyQbEbPCaTEp+pKmZ22lDWzi6PpSiIawirfGaZrGnTJ+5DmYbT0CiFeo+Qb7LfDSNyKfJXpnm/+Qgvc7CRvMOol1H2Nkid5JdVplUWeHk+FhcVPrVZvmWlo4TT1gNzgB1VvXPICjBfuomWuzGn0eCYs59Tyk8btnr6wX2iBx7ztwbjhFKC9IO2FCB/SCSRbl4Qmzm1mtKpryyy7CZV0V2nymHW761k+xJFceCEqluWviCFurIWZzU03hLGp0FvkyjgFiaNo+5kb7jLgrddvcsPedH6EhvNikxnu9BC2Mbf1mbPfy+kbUrl2z4d4j3Zfxevfww7/UYI8S3R8SNMD1jxgLZIhsw2jLTvb1NzQlmeORxOhOZKIGnedrPSiWeoDhru4Wf5nPcStPeT+F28a2ZNlP2D4aY7LMit8MORmS+na4iZWS1lgZek4Xj8BWscPFy04AAuncTqAMvCV1JSXzGgrzCxmsqrodqRivoW738mL7/2NvM/hwbjhKEqcxAgfTJ4liCI1IfuO7cj+4pKbBa567gkt38m06wTq+BAcupQqzJLuW8LU5idWR1tlG+YZxh7HOh4A349uPph6XlPad5c/SNzkhgDKnGGsH6E9AO4F29F0N11V6tycUC131U4Y2vzQ6vStS3YJVdTgOXOMtff4g6d8038dJagzjPbBhAfoHMdaJ/H2GUYDFzJa0CrMAlctyrBx1fHDZvo2oVndnoXU9WhB9Kbwj3BjX/7jZz3EtxFD3LTwabILV9WqbJFji5ks2emKMBdFph8/pwKYMxAFUPYYu9ee883O5kdJH0IkKzqhWdzYFmbOemNDmp+ei+7W9N9vI+oeq0wkAAAgAElEQVTBuCGUlE9BOoDS+c6kqzpBkoXZtsSqZxfOUTCuj8dNWz9y+hXQck9be4+RsUs63zVwfSPOLLrvnLsgjO10feBDnHCeLp654Wsb6CY33LThKYKfoC0P1j5NdMIXbEO1XTRVZ2uHdkZbR1WQrMjxHHkKVj6E8m/hrutC/sgvE4cY5XMkEQ680Ce4f/rRFlqUXIYg9U/00JI2LWnd4K/znT58xR1Gro6iRQ9QdvUQ7jklz26vX9uRfnf/SZZ3B9/XYPss4R76Ugom2xcto84vmb7tvG1MrK6+yOM6kGf8aNcLU36I9UPcEXovbngLd3+JN99AnaM0G0jU0g2lKV8757UMbGVuN4RVIOEcPOXOGJ7nDXfuyvpg1gcz8KXakrbcyOYmdkebJevkafq7kIF8TNKuf70nJ+QIpamMuImz2cgO7JZo5+qzcFLexen9bUN1Tw/P84bf/Vxv/fMmN+xN54MpD0J+xHAXH7DuYZKI14wryW4PbXlkKyO7N3EkEZRyXSXMVIGOp51jU13FySP7vB6itA8SboUfbUWzFFqU0jXtCh93lC2/E3KKfVsa2oy6bjDDbIVD83gYrZzG8m707/3AcavFni9+iQVcBZJ7ZIg3lj+Dish5t9TR6N5KGjohW8SBXRMmecJACvxZgvDClA9ifaDoB5Wj+4mo3mPkL/HmK6D1HiMTdbIqmM7pIENbmtot0UoWxwH46Q4c+zYzs5st8mDzBg9AATmtymz4kXMGXltdZFpsOFc+TjRuPu+p0idZ3n0FQDqz7sA5IEyYbUlz0xA3ieLgOEwfBlkvyN0c1PbpZ274kla7ixuOEcqRROzwBiNfgp2DBH18IZ0VNZIfitrCnFjjpT1a2L3+mhZGbUoLFjVXD/FLvPklj36oew5Rxg/Kt+Is0fGjrVOo7gFrsRydrmkNYcUOnDIPZ07h9ZGlmCuSG1xWKDRTc7VRf793yYcy9Zfn4x4T4loyCuezlx2cMdX+xjW7NtgQbB+6oqNZMoDhHqDrBekdMfT8gHaE3Gvs/pik36HEcYY7K6gdw2Amc26yIYxtt2ejlwNPTPCBfwcdw11t8WDcEEpI+fbaOdRz4sRAPu/2QtnyWbrwncwb3mOkJycgnVlFt/jlXLyek8NpgTaAC84PM6cx/jSm+EBxzwc3E8/ccFfvuXn9bm6g3ybZX8EdpHg3lPdBgk5n65Uay3CDnn4t9+aKulCNlW6ua6aV4zax2sB7Id18xLdO77ih5wdvQTDpSKk9YO04XnHTkQyJlWSc0hR10R9Z5nBrDi3NXEm9GSeO4/VhsKgdZ7h7hvn81lX+/vN/Dbbfwl03tk2jLXLCSO+vdXNtDrY9/bqN95LpqheueeGmF+46C4AQ57A7oPkB/Z7ccJhifHk5QSyrhiWupuL1khjMK9w4lhPOEPE0Jnki/0huON3twX7+6YVkLyR5Id4JVoNRHrh9ijXD58R522zJG3HiBB5IlLUgxvucJT/Bh7CfZ/I4V7xBIQz2Yqh0BnaRHF3oKIwxUWZzYbxmBtsKcx3PiacQ7oV2gkmI9TlnP92ypuS9wxSPU4sf5SnOXP42eGHK8z9xitCnKONFGT/UCaJEJEnH0iyprCl1Q2sWo1vsZE0OVi1tUZMnSJWO5lserPA+nn2bYN+luA8Z4WNWciR4v+IBTeSDmNsBk264BS9M+BDy1DlCEvfBRChZT1a4Gjsi9Y00taSJJYycuFItbd5Qppe0hlSoD/HsByB3CF0cw/k3Ccatxfs07/Dlr1U4RhyXhx8Ch+jtC8tH6O3l9yC33/8hcfv9pzDliSunoOz4E2LkEVQ6O68l2nhBEKidkXtziza2eG+Va8jBRDWAVj6i+EeM+IiRhxh1iFEfUfojynxEmROE/lqT+iAtgKonAP0+UgMLbJ7RusMxuxjT/a083zbFdTQrON6YEOWDGC94r/2M75yY75w33Po798HUTmWq+CHRBzN+hPTCrWC6jVX4lnJN9S3aiVdqx7KyD+L9TsSCng/i78rqW1+PxjR/gA0ESTjJVVoGKYx646U+m7Pmtkhcx7KyH7mdDL51wZ7z/9wC4ZSQro6bgiOX46dbfroVZg7a6rjI9NBKN5QtHTiDKfMGo99g1Nsks8fnuT3eFaweyeFoWci21CI9bkhLqu+sqXKTjTDb0sPrmmimmzRS7oRzZS928RLCXyGko+HICAc3qnDXrOvxKnIbr9/69D/ghlvv/4Np9633O4MMoPoAxQ9xXrgLXlHpJl0RZXxoSHPnkFd6YFX5ebqhhLOdY7Dkd1atHYeXz/HVVoUoT1Q+DLIBmIculTI7pgZLcbkSr+eEalfoNXJl/K7Mnz/0b3PlXtxwCnZ9SBu8YkvMiJ9Y/MRuiptE2Qig7PfADRCien14INQt1cd8b9sbbLXxVjCmVdohhoNA9STefaaH3/X1p/rzKNoOoAyU15LlQas3IfvX4txW1w7Y8aapTIqMFq4Y/kv5MEW/hTvvE+QeT1VmH0ydJTsBrOVDGl64Hkx10ZJUZmakbjOjrby0eyuH56TFljCXV1QPLuEfU/RhmjlMM0dp50StPTwI+YS1+KpHPwI3nCFyCFOiGTl+7mjUd/1hxk6X4tTG1e1ld4gUBB/SOAYqR/GyH20+FDd4HW5gPVE6URy0pK0wdVpQWlr0eF4kVqEk/zHcPIl3b5rrb8MEn1fkXtxwHGsFsG660SPNrTizmaFdpGbhtCMr+x64IQKQUIIvVEecbBsj2xjbgrqp4waQE/0IfRLvnsS7uwWl2xdDbvaA5/S3tkAoyQcT3BnGBlAGuCQzTaUuzqmBc9oH1XdeFZnhtjuwytIGaw3CV+IR1tnjW5ftD/IPJig/gnvA9nG8EUCJUIoGLyS0oBaoQVtdsSObHdnywnYCTfY3HfX6nF4kWoPwpXCS6O7Lf4R1Tp0QoT9GP3wEbghgDJRXr/B5S1rvTl+w6MGWGmwr9DpR0gMYeQq2fUjX52wwdL1Q58MdGrevnTd4ITKc4gv4ClctUnfnf3ZDmuY6cjDBnYLE5yPG50Pq3+bKfbkBuhTr4oIdWb1ruyEtgDwXQMndjtDTrCkFUCaAMn6EPgWJONou1k2hZyumrQ1sxbDb1DKR433OSjHlR+ibbvg/yi/zb1xOVzEXTHA+tBVKE2CeQ0tyW1nj6pYyHLkZP7ZJ025I6xI9S1R74CXnx1ofY8VYVg6nBB9M3VSzP46hdvNOZ2XSC1G7jsfs9BBUMIXDBTHfHVXYhbAT0PBjp/xU3273tgVqmq5r/kTLizZdBDDK5cXHKfZ9nvKA3OAB8GCCCyV5P0KHU4IXIk9B4gxjwSv2Eh92tS07cozmTBc0K98ZRTNyAGU8AO4BcD/i/tIZL0R+LTecgsQpSLivI37EUTufgoQfoaMZMd/t031LmtnMwHluXbhOVHqRLOXqYT9fZvjbMMHnFbkXN/gRMtcc0IOdUHBq5/G+D2n5EcKPME81b9iL17wQeVGmCX6sjWzZsCXNbnRXWLoXA1k/9GO8oN3nB/xDf/cMI/eIZrh0td/gt47EybR40+b7DqjeusGOc1URyjnzv1PQee8OoMxjVxzinR21z+AB2wGUiGZ4KC+XqWWD3ziKuZGtjG1xaHOmTWsbQlnWqGGywASRyhlGBlBnmPtclv/YNfqz6cvDcoP7Jncc6wQTXDDBgRdqrjGr8CZhXPNTZ9YljO2muM1Up7GM8rmd3SsfsFs2Gz4kqLvmDS43uDHT3NhfwQSXLA+L5KprzJ3l8alzVFydv05V+tG0HE7e7sHo+1tH4bwXN0TS/GV3spvy2xVugpZ5L9z0wQ6lPxU3nMS7x7GOGwq0K6jyYKmPbUZat8gVmlSOPe1QRAg4Z4E908P3a4EzjN3jMNLyIzSU19LVMc4NGXmm9Nfm1DZntjq0eHVJCmPkyojnlADKuE3/mI27c7iQPv/czSRID4CfxJ2fA3ihXnauO7LNqwvRuO4NNvrYGi5sbWQx8qxJ6amSBpz3ggnOA+Auzz1mLb7qWQ/IDe5EwZ0HRNJiqjKqc1vasLnZQlpu+emmo66a4ha57J/GOB9wi51dy38tN7itcwoSrrXDKSHXmOI9W5xY3HzJz9YdbVakh7EcH0C4ACSFE/pdJvr8dftvc+Ve3HCG0Zm62ZBWNWGGlNhguu2BGj4Yf9o1JS9ExrJyldkIpqlOFoK+KNZVNM3HAO4syIdCih985obvlxicDV5U2COUkIKYeLaL8pvMVC9LRJfURGWmDzYO+s4nbThh1bP1aTyn3PUb/kbXbxVDOO554N4Xlj2K4F6ADiUkIKddlchqk6dYU1LnqrHS+mtjsDWHW0q16twm315gxb6zqvYdv7s8IDe4Y3Q0I6UqozK1JnZhVJwJ4nxMjcdlXsMqXCTDhRPKGax54+pd1v5r3OBHaPBCzdQmJXJF6Y7zvcMNi3HXNDNtJpxt+VHiJEp5olIQNu9qkb8NE3xeka/mhl1EAUe74IPpcIpHrtRMvZ+q6cGkE4H1FOrs3MAd518fxO1mfN98IA7EhCAoRBA+jNAhpANmiUJH5foLfjDjzOsGMwMzjD/eCUFsGJYCccEHftcj41298J9zPYCwe/ggJoBwoYQQTkr+WDmCNNEcnSmIHXZJimtB3/SGW6FvccaW6q1xcZUuSdglF0/jQaRxBpBnAB0EmRDEOt0D5kIQewbQfpC9NTCG02O/dlC+I8aGo87dlTyI8V6QPgUoT9wJRhmIV2JYO30lFJuG3LeUgSWZG0FfqZOtPLKo3rrJzPN1LXHFgxkihDaDUDcIMmcAHYhTLvwx0hvBPVH8EGVuxVdX4SurfIJQx+gt8MDMHVblnWg0CBtAuTOMDyYEP8J6API4hsdT3WRBKHWHXeGaM1bazFKnNqttWr1pntCAS9qPto9irTOUDydVR5p6h7WP7yoSQp8ijAsPTJ9A1CnC+BO8D6P8WAMucEVq3JKvKXOlLGzJia62afVmubYSznY9YD2AUqcAdQpwfki6y6q3muLvcfGdc4qX4013hHUCiXYQrY6W9v/zv/7X/3uXLW5eD6eEPW5ef+R0JKJFokokxkVAHEq2i02O1frqZMwP7SrjxNwOJZ9MY/HIpvjnPO4MY9GCWaE3bN9Wh9veYOOCV+ekMKx2pPMSgSZlCJXjkBCJs78hxpwB4q1voD7wziHgoQx7CjrxHIMJLpIWobyWqU0a/JYb2PrU1sd2b7AR9SWvzilxVMeVfIVKX/BYSgUgIRghgxEKhEVghzAi/Co132vOPyUeqqhfnY8jSL5FUu4HlEiMuWn/GMiDiARjSrklUOJI6a96g43SX/cGG643a1FasjyMpMX7+xB6EPoEZV2cJnhfSvQmhdME70+RiRpRE01qsGRGK3a8Zsfrtjou0Ko7b/NC5Ofbzl9tkK8k3e8t//fYPbjB3dJxP+/fkH/ZNACoBsNcINQNA+0mMWKVuTpe98bLjmwhV8ZxrBNJ37mV9Jcf+vzFp7XAUbTthchIWoQvdYIf7fYhtsbENia2NtrK5krQFk18XarNUzktDrPBKB6M4qEYEY5TZwD3+Q6BH5R8oOPs9E3hulS5jjEfQg0PgAPnvUxtgvNzrreUjHVvYOljSxtZsrkWtCXJr+rt1fnVEElKMYiJAHQUZOIwG0HYdwnqVnzT8v9R5hB7q1X9oBiOU6EYEYziZxH8LNJFU0q5vsRpS9Cuzak1mDutJhnrDjO4KNNwuubuQLg8+kdP/LPGciTWyCecQMQpSscuesn65IqaEeZCnFvi3HEvZsebEquDhbYvUXAf/YSj2X3q+7DfvRc33HQKekJrgogQjOBRkDwv9CTdVod2b2Axyhy+1IMJ7lng9rA95jvJLZwSzjDWA+CHkRacbmev2FrXZOSVZNiy6fQBY2Krps0rdptcF2vjbF5LZEQQpcPxTgBw9De34bfD/r5RNSNpMZwS9k6TriO1B8ChDJErcOWW1mWnfG8jG7Y6cBQ5xsjxvWZFu0utK41JKqfASS4K4mdA5xDr3opvVPI/z9ZZRr7Fqn6QDcU7AEJhGTF93ruqDJv4NSfZPcNW+s5sSTFtWrwu1JXEORHH6gBWP4l3XWf03wnN/rwM/5Mt/BAegLouQiiJXMiFzpzq2eLIFucOcGNdFSZXpBHPdz1I4Ri88gC4e/TI4/s1fG3tvvX99+IGP0Lv8a0L+gf5AxgeBprJHEfxK9lwpAx8zyo3+y4ruA7RT0hdf1Dy53/9ZQvsnVZDSf40WAjFa2iaOi/IpbrZxKe8Yhkjuz+19ZEt6TYn2wS3buKzfElF0nQEo88wzgc7IphdPm43ZvyIo4xx8ZcL9sdf3OfvHnzkutUHE1wgXg8BdShJpPNCoWY08SkjbdWBPZjaw5ndnzg8ofZtTrba5LJY62cKcjBLBlLdU6zlQRoncP0EbpwgDtzFENcJ548L87D/3auFdmZ0dB5eiHIugkQMbmev5Fp70iaXvGL1dnqjnmlzik3yq2p7lLuSYkg7FK9FwAaUdKQGoSR/hrFfyA3uo12lwr4YjlwGbIfBBpQgEjm22hqxktMTeMXmdZsd2p3e+qLTR4pCJEt6kboHqvnQZgBlXPJ+5oZ7ccPD9q2/nFsQuEIznTo+kA1b6NmSanfILYQ97zF82+WRv9xeD/7FCNDZIwbhWIYv1yckt+GUtaBtZMPq9W1t6LyfsvKmy8yKnXG62gcuxABKnEKdXfxOR2HrRxzhlYtHlkqEwO6+CnGETGSFq8qgRVwz4lrQ1rK57Q0szZkQ26Jus8qWFK5LxOC8oSaKHHRBhrBGAK56wZInXnSFAq7I/MFN/QcZeiHC67ii/CpXhjvBJBXPCXBeuqoqBLcQNVtQd0JUR3K0pcVVrTW/KOhwkgkD7X31I4Djg/5V2POBq2nds2MM6WSyVL2hs9y1qlm6aRs7yLpV4zbZxiCW5fxo1wd3buDrHv1V5fyxbv47cMMZmKrh0k7jZgk9u0NYufNJOPLMDf+UXh4ByD2C0W44TsQgGkS5fJmvtHsEP5HNjT7e6mNLH9vayFGfEbpVZmaZhgZecuEMcZZo+9CGF249GTfcqEIUpGIQHYPoKEhjGfqyyte6Ks6NWGUhGWulv9VGTkXkgSXoa1pZEOLkqiFkCiSUacSwsqsEfPyJsh/FA4m2H2t6kYYXcaJLJatKlVsS6pZVFvrYWeXrDbZKf0NL81pXu6zybjVjEBOHmX0LRoC/ElrKC7lqku5hpOUB8EhaRAtmoz3g2YnWW48G9mxsj4eWqa9lcdEhxvClHkk7EVV3UxPS58TZdfFP+dX8KVH9HbjhqtVitYE5tSTdapPr7PkwEpVjMe1PK/98w9/DApE4s0c4zoRjtIsIXIDTlVwRr3akLmvS0ljUl9poq0yduJBU3+6om7q4KFCj846eqIrA5W+au8eeNwD0vgoxkItBfDhGB0J4CKgDiSKarSUvmuclotIWO4zBq/Nef20Mt8Zw6+o8BGXKCEOc1tukGs8pbgSRL1yQeag+4EfxUKYDXFJYRUg3lCty2JCWpGnzo620k/sJ2oLgBw2ily10oVQZTJYCYTwUpaIgCyDivvqR+Fd7vbsBLcIpATjvue4JJXLNmLZurAfq9VBbDbV1v3etcGOiKZUuOolE2w+zTpBtiHa9jX8LzP6VU5aHst53mM+PxA1+iNqB9EOEHyZ8YNcPd0MJShz0pcFE6l9Lun1R1OMgHzhjIXjwHZr7uUjfwgIRgN0jCvIxSAAQEURlf+zyDLiMYmU400xdEvkq3yBNSp4z+obpW9zQOYdKmtrc0Ca0TUOYXXUH8YwUTQkhjAuijA8kfRDp/wQ6ANEB2IEfpPYIQMyt+NpqBgEmHGddxGEBQKQ4LEQhPgy1Q1AhCF6dgZchqAClG9kiXemoHWYgKnNZvXZPQzKHljm0+yN7MLYZw2oJ28v2NF0xw0k6hFFnKBFAcJ9zIBrt38EpM8wEYDYAs6cQ5QCmvA7oG2C88K9whlHGOfcX4fzOacykHyb9MBXYwQ85hgomOtBVJ9cSavyQ0Bf8eMONNuxgQ5trRp6T/KzW0c5LbCLXCYOFQPQiBFyF4mwY4CKQEIWFEMDtsSuJWx7qFCJPoU9lO9sV2O9UhPIBlM9pCNoPMX64G0kxqbJRwhe0tuX7Nte3OHOr6itDWcr8jCOHZFuvlfhcshkPnQcCl6cA7QOZAMKfITu1lnN8yw7P3PCrBT5gzLsE8xGjTxAiiOFhpDZeWl+qb/jaH8A974/GuQjARAAi4mwx1QKxPJyuNIieYMzU8VY2111mGkdacQSPw3Qc/u0dcL9Q8Jz4x1rA3buOZiS0YBZaow49pcWVqFmKaff6DhTTibvFinYLX12W++kLBU6wAErFYDIK4pE4G41z0TgXAzjHW/9XAKB+K+6y8z1/AvtsIymuUOvVuwOcndPiSlAtSXdqoQ4ckYTSX++w6rJmg+hd1ZhcEceSfQQzIVgDIBVGdRDW4oASjcvepOBNit6k6EuJJyi3hwfW9ziBtBPI+fMUMaKYAKBUGOgGIo1grAWgVDInX5b7zsKXxHOGpk5H5nKmz6fKaCCYOtPT663N+eUYQuVw9IbQIf5JebCXINyaOE04xfOlJH9acgsciYmhiBCNyyCkJlKD3Pmsgatd1uR6s95gI5srybiWzZXSXzPats5ts/Xp82Etf6HjeVDCg7A+sBeM6SCoQGB7sdj8ANzgjxTjWLXU5GVzxetzY+bEpYGS7TjSicNUHGLjkOPn8IxnC7gW2IfQOQWJCIonsvRFSa60BgS7EDXL9RnVR5buCAssvrehxWWTGJQavewVmzwnQVSIQWw4TgejZAxi9wBA9VbcZfa/8BO9+ZV9tkGUiiFNKNnFsnTqgi03zTY1Y6StUxdzrQ4dqYc5deI1Kf21oC1YZUrzjo9GuTG/LA3Pr8xkTokjdDDWCaRFX5L3YMwxTB1B5B4eqHcTJ5ByBEiHMSEQxyNgG0AJJEXnrpRqa0Lx217fNsZbdbzWJ1tjZhszSzKXLUbLlXEkWwcQPg5zMYiLw1wEoPc4Qeg/xSnGelCnbIcQ4Q81w3EcSnDJnFKsTWqtJck6W4zq8NMezG5LY82rC4IfNgg1U1aB814AZY6i7We/o5sd6UvSPyo3ROFGrsiQwrA/s5X+mpam+bIYjFddYgAgEQCl/Q/pOfFsgT03OA7sYCcGdwAUhxJkKsdfVYxqa9yhlpSwEoyp1J8ro2t1vJIHC16fUHIfF/Rae1mqTXJXRirXgzB2jzik3Iq7DP4lv8k/uOe3bBEqFG+EgWYYaETAFoQRaJpJX4jOYN3WmuSAEuZcb6WNnL13dejAnFrq0BL1DassCX7SYYY1XCu1ZKyoQxdKOMn6YSKUYPbwg9we3jjjB9lwQgYyGpRm0nmu1hlyytYYO47C6sDeTVwc51S+Z5P8pkXO8mU1kWNjcOssWg2Em6FYJwaRAMpEAHwPH4T/KU5iLS/YDWJ0NMOfl5hCXWwQOsFPeG0l6hvJ3CqDrTGx1KEtaFtaWrDydZseZQt0CCx4gcY+nJ87cfwD2z7/63cW+CG5IQy0Ejm60lZ5dW5MLG1oFetqFG7GYDIOsQAoAmAPALTffkjPE4h/vAVcN8czjHV2LFMChPERgAiEW4FwKwqSSFLI5vWrqt5ieVLuCeZAGU206UKfLc3Fylxc9xxtgY0zmya+wDIsmmbRNIOkmDj86Y04BrFx2Hkv3l3hXemW2wPdtPv5u5/fV/3p+u+7+QRRBkCYOExHQcqtiD/U9AUb3rM6nMLTee6yolZafVbe8j3LmUzotjq51qYrfbY25ht1cu3+qU1Xvb7NqzbObRr4PHUhpi7E5A5hEN/jLNaOIWQ6r5abM1HbaENLMZ1sRc1xAHG9hEXVIlmr0dlclqaJjHYWIUIxarcITEfAVhRqx5BuHMEjYGuPENi6gWYIbIWhVhhqR+BOFO5EkU4U6eYKvVJjSHAbR6eij8T+VBkt9NlanVzLwzmnj0jZELUtI22bxKRQ0+AUHkOaUdhBEMH9CO1GKHEjcn+Vwf/hNz8YN7gHs3zT4RiAxDjMxyAqArZzBZEUZurQiY6AM8v0hRCKd6IgA4ASAGoA0AeAwTctzHPmP64FwggXh/jPEUNIMFVIXTavGnSNkNjehNOmgjEXzYWzjr/bk1BMW9RsSlg3iUml1c8XB+lzFcK4KEjGIDICEKFYJxht74cVP0K7hnIdn+5jtJuuU36IuunYczMdh/E9AJRMZPnLsllpTpqM3BU0Rh0K5pTTRqyDIaMOzIFt9m1jh55mS4rFCRuKWXbI4R4UN2OEpahsFN2REzohPfpOVBJRXwraghQc76NCVU2fG3BCCgN0MEqEYuSvwENAZY8wWNsDRlp7pNLkRZ4vV7Vma9DBJwQ1Z7iVIG57quVAc2DMNtp03RtfK6OlMlryxgQXtDolXpaN7GUPStCheCscb0UctYSDIELeavCblty31A+RuFmdb13gH4kbYgAfARgI49IXUpdZuJFnWGWKpJgw0A1GcQiRHWIA+wAwAoDJTTs+p58tsLdABBYBqPc5ogAfiFRcBGO1TF68quiN7rRLX0uG5Ybi0MfOOr4+dkOzOJMJit926esWMb8o9lLnPIjhoXjdkTrvzurxALj72hRK8pG0uC/DX0jcHNH8EB2NS7di54hBu5/uxOjT9AgpI5lWrsgU6pJkWIoTo3AXWaS30TXLNOzhwJ6M7fHIHg0dWNZvWC7t62t7tbLXa3u6tgdLZ0dBHa9Fc05K/XKHS17Wk/nOeVFK5zk0QyJpIp3nfgWbviT3uKqJe1DkcA9N3ZqG8/TZ1B70ncK4xRj0bdOwNXXbU9bq0Bb1LcFPG4TZIMxiQ0az7SBwFYp1wnE8HMcdR5UbCMKfiPl31r5pyW89wj5s/jcr8rA5f57bj9yuiTkAACAASURBVMQN4SgTjJKJjFzvzEXNkf8I2qLSFoPRTihGxEEBwYxPxBCfA/HFTTs+p58tsLdABN5NLp3XiN8DRkwINkBIB0AtDqgI2k9nprnzRbHB1bpylzUpccSrc9lcGRMnSJw62LkG7aYU6sBZYGHlLcFd59vLXGOGFfvghRpJi+6RDG6snn0xvjZxc0RzuCGm3Ap3Ucv9hDAJwiQAEeIwHwg7P5Mo6LjwRQAKQLhEppe5MAS6r/Djvno96Vvzkb0Y26uZvVnY14vNHtbWsi17u7bX19Z4uTEXK3Uyl4cTVjPpni6YQ3Uy740WgjETjBmnTXh9KprzPSTjeg9t5EQSdDHU13vo8txQFmZvafaWs6E96VtDfe2WaqCtVHEqMoNidXZZGmcuDCyteM+agXAnCtIgygejpLuEFY7Tu1Usxv0MwsytRr5pyc/HxO/5ys3qfOty/kjcEAxTgTCeyvUofisbTvyALmsmL5oxiIEwCcGcXzIADABgAsQXQPz6ph2f088W2FsgAssAaHyOaMw4C/TDoVEsOgXicwhcgsACBBZAfB6BHYfpbKF7WaVrXRnn+jsZneM5KhuO/2uv/1vCWcEf2qRmN3irSGzwnlVltpnaBLxQ92X4C4mbI5ofYqIx9VY4jhi/4ixEhiJ0NM4BkIglhhBshCNS4Iy7yF+Xytt2x6Joi+uoCj0YyItF35po67lpbSa2vbCt9eY3rNabxXIxnozNvj4cy8OxYA5YzeCNvjQYif2h2B8KpiEONGmoyyNDGuq82fsEQxO0xR68Ot9jqm/2mBnbqb4Zq6tR73ogLwxhqtADkTDaJaZ60c0nqingMhgSQmExHJEiUWeFIA6osXgvFu/BqAIhchwUIjE2EvvkbRyNc8E7HNlvWvJbj7APm//NbvOwOX+e253cEIfZ7w0x9ArJ1GtdXR04AfUozsoXJ7tNiO+uqN+b6Z7L84AWCEZxEOWzefOqPCk1tAY+JPklpzibpTuesHp9yz1M4ledwVoyrlllSokjRp6QwrDDGA2iV2xwl1U6V8RT+RaaZpGk4AJAmChIuoiBwn5yE4v3IlF5j/313yX2+SBJAUtLyaySuzTyxUG5JdRxpU3rONdnlamgLXqDjevk6p6dsD8Dw5UI9Pq2oG4Jbt7Ahx160mWmLihhyUgrF5yyEVTLhaQ7catuhaQ7EQ9d7O8XVIsR7D0anVW1uSxUppel8fnVIJXTQJR3ZzkP2HZ/nFXsDi65OSL/Ln1Xhr+77dY/bw7H+30pNwrszX/dTN+azz0v3sz/ZtqboHwJ4QzRI2AfgtTf9A131fkJr4ehi4syzchLJ77m0NEooaleMEw9YZGeH/0PtEA4TrqIAFQcbcEpPHnOZC75ctNs4GPHEVZ1VjtFfSmbK3XoRIyQjGt329Y9m0EdbnenXlvGxNLHW220pcUlzs5dtMhxkxi5qDTHV+WJi8vS+KIwdJEvjvbXC5VptXm9xz4fnJ0r5lYxHa5SB5YrB1OHW3XohJYyJpY5tfvOsdtOYSTjelfmBSNPWpRWaYtImgATnQhUP4uVw2AtAtVdYFnq140ELnsl5Aqii2JdaxLjz9HAx9X2YI/9/bmCmD7X94iCdASgwnEyFCNuLn89Zgd75oYflRvgdKXLDpw3HdNmJeui0I+CbDjqHHXyjGcLPJoFIsD+pJpuMFYLxes7kUHTHy6H4nUQw9E0fVHmCnWp1tXb9JBX16K+UfrOKqhsftrTNia2qG9k0+oNHAlCb7hShtcu5MFyD3W0NibOOL5jEas32LrYqds+XTcmlqhv99jnowyv5cFSNOecNmHVcX/m7Dw7zxrYkrEVtDXXu2bkRZseNgiz1FTyFR7LdcBkPQKXArF8HOnE4HYUakWhVhzpAGjXRRRqRcCmixi8U5sinTjSiUKtMND4HKF4/Sxa3cNRp/6KCEDtEYMYAOHghIgkJXcvwd0UebRmjcPsMzf8qNxwUSZlc2VOnZjvtfYMSQqhGIVgvcfsPc/PeraAu6MLIByECa7IIAZROx9W59P1k/GGroLxCpTspi5Yd1aRLyuFmtah5zi7ZKStM7dQnTUofWQPZnZvNJN36/jupzKauJCHU3k4dyENZrwxdiGYk/11eTjXZ+s9buajzxa98VQwB4zqrMRKus3KFiWsW+S03h2VGsZlpZe6YJE0EQZr3tCVOzOIwo0o3HC9m84i7VCsu1/j+l0iDtMA4igtAIQBUfYu3PzW/v7d0pkTa9aF96x5FulGQRpAOPfKLj7ro772PXPDj8QNoRjhvlCAKF/ryry6lAyL4K5/DZrEP+83PA/WT2oB/qZf0G9pBHe66GdInYt7nBfUfEkv1UfOoTeM2eE0F6TUZ3ojF5w2FszJn4JRB3sQorlHk1ZqhFhsMVcN6qKoZ/IyluEcyd5nBbvliiPr+9Z41KH/T/vJI3PDPfcJvvXXfUn6u95vCMfJCEDBCWdp0vUM4dVVuWk6XdkJqPfMDd/Xr+tPf35/sxs+F0m4V26KDG6mb741h2LdUKwbjjvH2YIYASU+IXXO565kFxclMV/h/xS5IrNHDG7fhLsEFAYaEMaBKBuH6RhE3SzSXem7qvaA17+3zvDMDTf55nvnhihIh2IEllbK9YXSX6tDq8uOUxf/f3tn3pyotu7h83n2H+d731v3nE5UBNTMiSPOMyoqyjwqjqBwi7i3obO1d+yoUfNWvdW1Qi/X8LB4f6yRDmjDqT1X37M879YIrf/c9sYdDHXWdvvI3zxw4TsmdNsP34iRG2VlGC6sNy5goT5+0/1HW4/au2P0nk0bGC6EwlLkRrm901Zr/9Fwd7XdYVsJ19e96RwofGptBrThnLQBDbd9QfLhRag1l82e3mbH+Zp7ZApow6k9V9+zPH/fJPHnlb92GKy3GqwC4Rt2bfeP0u29gIf7CNoJBJSAf7CyIGKgwdHKMEwLhaV/tNUy/9W/GDpe29UPxe/TMXQcDs0QtIOH+7f3wsOT/K5Um//ctAVka31/K/KptRnQhnPSBvymi4bbDy9CtjhtdZ18ef7wIhx51fOptWAoDxAAAkDg8AQoLNx7/TyJGgoLwXB1MHv9fsPhM/7oQDl+07174qJJ9Skm3T/zNw9M6JY+neJBSYAAEAACl0jgtLUhGKLCd73IvTvqulo7GLqlI/f9S7wTHxVLqDsQAAJA4PAETlsbVouU8Jvu6lwtLNIBbTh8mwCVAgJAAAictjaAHwQCQAAIAIGvIADaAEduAAEgAASAwHsCoA3viUBfEggAASAABEAbQBuAABAAAkDgPYGv0oYwvcfN95AUEDgLAnsbNQ53d63v3rJ+70FO4P06zG2kgYV7l1zrg98I0IZNnw7e2NTgIhD4JIG9uSrQBq9nBG3w0thbGLQBtAEIHIsAaMPeCHg9IGiDl8bewqANx/ILn3zlhJ9fAIG9eUboN3g9IGiDl8bewqANoA1A4FgEQBv2RsDrAUEbvDT2FgZtOJZfuIDXXqjCJwnszTNCv8HrAUEbvDT2FgZtAG0AAsciANqwNwJeDwja4KWxtzBow7H8widfOeHnF0Bgb54R+g1eDwja4KWxt/AWbbjHO/sxrP+A8WBAAAicF4H9PP545x7rbqv4NqXcFv/Q1+8xbl+13vYeg4W7m2vtfgyK/7thYXZz/L0JwNbtKbch6h7rPaDSA6o+h6XHSGM2ff1+w74Y3YM2gDQCgTMksD8PANrw5vRBGzx9DtCGM/QLh35Bg/RPnwBow2cI/L0HsLoC2gDaAMNoQOC8CXzGM/70WxhT8gwWgTaANpy3Xzj9t1oo4aEJ/OTfPzP7CNpw/trwiAt3eG02gfkGGAUCAt+eAGjDZwhc2JjSIybcYlXQBnjlBwJAgP+MZ/zpt9BvuIB+A2jDofvpkD4QOBcCP/l3GFPakcBF9xsw9n4/xp3LwwDlBAJAYE1gT4+/60bWab4L3OLsRnsX7Wh/uvsb9uP02DuM32i32OYq32LclvjcRkS/dbFzi2+0zUW6c/em/Lm/4acxpaPdD8gICAABIAAEDk1gW0dwW75ufNCGbXTgOhAAAkDgMgiANsAsIhAAAkAACLwnANrwnshlaD7UAggAASDwGQKf0YankPgQqv+5hvUzhYDfAgEgAASAwEkR+Iw2/HTW3knVCgoDBIAAEAACnyEA2gBjSkAACAABIPCeAGjDeyKfUdpL+u091v8iYy4JI9QFCJwpgXust9G2VcfVkr/WsMKY0iXryra3hoNfx3rbGh9cBwJA4GQJgDZcsh54m93BNWDboQKgDd/+2D5vO4TwuRAAbQBt8Byovs2/f+Y6aANoAxA4QwKgDaANoA3fpQ2cyxsrlPMUCHi14REXnm9b07H1rz/++PcpFA7KsEcCMKa0R5iQFBC4eAJebbhD2NhDZ6BPQBsu8EUStOHiH2aoIBDYI4GftCHIPt00BV4FbQBt2N9AE8w3nOFY8x5dDCR1pgS82vCAcvd4rdvhQBsOpQ1PGP9V9ojRX2T9Q1f5TJ89KPapEfjF9xtOrahHKM89Tt1j3XtUeECVe5S7xWpUq+9qw0tEBts7AQKTwfZOYO+36TQTdM8783RBthXSG2dbeNtvvde9v30OS97/WocfccEb7SPh9W9fIvJH4m+L401nW3jX4rnasGVJnrcY3uy81y8sfB+u3Yfq91j3ARXugvwdRtGd1zElb/0hvC8Ce3eLkCCBfZeXGNAGr/P9yCMJ2uAltmsYtOGongVc+SEIfMRNXEAc0Aavd/vIDQVt8BLbNQzaANpw9sNcH3ETZxrnOSyt7QjasM7rOSx5XYl3TMkbZ1fn+4Dx3hvhzWLXsLcY78LrLHYvHowpvU21/qUNNIwpHUMkDvHWDGmufcHlBbx68IgLH6ngR5zstnS2/darDbs73J/0wJv1tuw+c91bVG9eHwk/R6Tnm/5G+8jPTyTONnre4nnjeK97w893zefb1nOEfQkrrjzAfIOXzt7D4McPQWDvt+l0EgRt8Hqxj4RBG7ZR8rZqbxzvdW8YtOEY3YU18UN4RkhzjffyAqANXi/2kTBowzZK3qfDG8d73RsGbQBtgPmGo7YB7+P3j2HQBq8X+0gYtGEbJW9j88bxXveGt2oDvI0CASBwSQTiAX5tJ1ivddniAd5bPO/1j4RTqOT9+b7C27LeODnxfNPfV74pVNqWtff6rtl95LfR2y3zDbtmBvGBABA4ZQIfcQdfWP5txfNe/0gYtOEjN9FLclt80IazH1HZdmvhOhDwEviIO/DGP3J4W/G81z8SBm34yI3zktwWH7QBtAEIfAsCH3EH29zEEa5vK573+kfCoA0fuVlektvigzZ8C7+w7fbD9csj4H3st4U/Umvvb7c53AQieKOtwwlE+EgWu8ZZp/9uTmLXdD4Z//mq/3LNxPxcAhGeIr21PYbptT1f9aM+NoVKmZD6yezWP38397C+fqAAaANoAxC4KAJeB7ot/BFv4v0taIOXWP5mkIvomZCaxpW1GLwLrPQj6mNjfs7728+EQRsu6kH9TFOA3wKB3yDg9enbwh9J1vtb0AYvsaiPjQf4FCqlcSV6x67tFqXWlsYVApOTQXGPXRzQBtAGIAAEfp+A16dvC3s93baw97egDV5KVHLKFc1B2x5zjuqxRmm+NjJqVp+mhdvhBY4peVuGlwuEgQAQOCgB7yB+MigeNK9fJO71AF5t8BbPG8cbPsJ8gzc7b/F+UaP1f6UQPXE9S1xPEr5hwq8SmEJgAoEzSax/558mbpYvISPi79xijafbaiJWSaeqLarM8e3xRFnaY2thzM3BdKZNpqo1tJdjZ2HYE8EUW9pGaxf6jUynGK0Rd/l4sBML9FaWDgnZiJQOCSmMS2EMgfc3GMaui33sAE4TOEOgajo4TvgGMT/DkQP32z5e9McuE3wABwh8YwJe5wva4HU+XqfkDe+uDdqrMIwSPj3hVwhMInCOwHtEqJe4G0X8vQhCvdx1ilm221bGo/nCsh3HchxrsZzNzbFpTazFdGnPbds0teVi6Fj6csTNmJq4Nq9IDPoTpTPkSLlX4Vspo/YyzN9KSbQfR+g4QifR/lZhwPsEaIO3BUAYCHxnAqAN2+6+Vw+84Z21IagmfEbCp8f9Sjwg/CUMnVSIerqtx5+aFKkNtLk5Xy4WS9teLO25phrGcDqbLhaWY87t+Ww5nVjj0dw2HGfs2IZjSrbWnq1NaozWxlY0tqL1SwpdkPiqxZYWncykHtMK93z2hkmHeym8m3Jf0qHf8I1fCbc1ergOBNYEQBvWKN4FvHrgDe+uDXLCr66EIR5gXnsMHSLcICL1eq2lqYZpWvP5fDabzM2xtRgvlpPZxDFnf9rScsaGLXDjblsR6yOlORbro25OaxHS2iRyvjaxPpPIudwwlaYpk7ZUt6X6UqwtuPK8kzHKT3wKpxJo+2y04d1dgT+BABAAApdBIIXKKVROBoUXX+fpuhFDGrk7SqxPlkN7uZxOZ4O5OV4uLdM0LWthzm1zbk8GtiZaPWrSqGjPd7W1EaH2RkuHO9kbuvTI1aJSI6F2MoZQtXTKVpqWRM7F+kyoTdXWQqOWYn3GlkdkXCHwftRPpbBeNsK96cQJjildRiOAWgABIAAENhEQYgE6FqASaLPy0jP6pjN17Lk9Guu6rg6Ho8l4YS+c+diRObNHTaP3/edb+iHcvsNbz7f02ogQvdHiQSoepFJ4dzVklIn0S49iPaaJ9bHUGAn1IVvRpMZIbo5F0hDqQ64ybRPT3A0f9VOxgKcPAdqw6eb9/jI+SA0IAAEgsJUALrkrcPAeGVeE+mShO87csaf2XFk6trNcuENGurxs16dFYvQSkSM+7hbp3gXpB6z/iDMvEX5tBM5utDhCxwLdF1/7+Zp6vqZefO2ovxNH6ES4kH+udIqM2jUkSucbitjSJEpXqZlcdzrpWf5WSAS70G8A7w8EgAAQOD4BIYX3yk+iQTvOzLHHtqksl7pjv04qDLRFs6onntiXiPCEDR6D0wdk9hQSH3HhLsjeIoz3IwcEzm+01eLUONJ/8XUJnE9hXBJlXQsXibt87qlcitXbhT5TE8WWpnYNvjbjy7Zcd5jCovqsgTYcv01AjkAACHwbAqieRodpVCdQJRFkklgvhXee/ZVnJN0p10x94o4jDRzHcBXCmTiLgcMWHHe3s49dbWze2vPYx4Ka/M2g+jTtEDZXdKT6UiItoTbnKlOxPu9k9QRWT0da5Scu6qeSKJ2NcLkb/k0z3OWtB76P2/Y3HDzjQ1cM0gcCQOCbE0C1V2FQCUxKh7hYoHX33yIRbrRz3EjQnIltTxx3QGnqLBRboyw6NyncDldHIe1xP/MvfGk2rJXuR2TU5Mq2RtkSaXGVKVeZ8tVZJ6vn77txlIwjnRTWS4eYTJgFbTiwHn7zBwaqDwS+CQFUJVBXGAiMz0TYBNaMo9VeQTUVVw9WnQZLdkzRZkqTwj2XQKmXa+bxv/TqCNVf+PS9/FcyKK42kGdCKhkb9AoGUxqvtEFuWBq1bCSlFN5Kh5gU1kui9E/zENBv2Ms9gESAABD4lgREAuNf54p7SaxZeOjwNWOhvaqC4Sw125KcKbek0mom3IsF2olgPxkUVy476jvGYRWrkasUKsUQKhVq1OMCV5muBpeE2pyvzujcaLWkNRZoR/0U9Bug3wAEgAAQ+CyBlCsMTALtPPurCazSzUvWa49hLllzaWlPHY0yszdtAu+6+oHxBPZ1p1ch7Wd/KYmTjaSkUeags+wXR0JtPqIdtriII51EsFt5UkEbPtsmvuUrEkADAkDgJwJxpPviJ2PBeipcb6XZMWs6E8ee2IuBZQ8cjbJqMSGFd1/PLBLd0SdU+zLXgfeSOJkKNfL3XTIhsuWJ0nRnp/mqu7a1TUyzEe7F1wJt+OkGf9nd+iZjslBNIHChBGIB6tlXToXqVEYYcTN3jmFmL4emNZiO+4vCQy8aaKawnttjQNXXWevBV3kb9zylcDMVaiSwehytVaOcWDcl0mJLU7Xh6C2HjA2fr5ugDaANQAAIAIHPEkjh3SRer8Z6U27hzjwb9nIwN7XRgBlUXrgkRiXQTjrEE6iYfl3tSqDDr9KGF18zilSIcDOB1VeB8jMj1GYG7SikI1ZtprBsExPQhs+2ia+6wZAvEAACX0HgpxNM87dC/lZ48bXC/7krxtNzbepMHUt2lpqz1B2+OsnfHWOe+bc5JIPi81X/+apPRmdqc672OKHFCw2Vq46KD0IS4dOoXr6zfjv9j/4Q9jd8lNSF9ruh+kDg/An8pA2ZMJsJs3GkE8VSVKFu6aYzdoXB0ZxRz24k5CTWPeUqp3ElhUov10wuorfTE67RFylJag3E+rSTmRTutBSqpBD14FUAbTg4YhAVIAAEDkvgJ21IonQSdT+H0CBoracsB0tbdxaqM+WcbnZIhLruYXaHLc+nRj5WC1tjfi4e4NNhlkxTYlPT2jOlOVcadic9y4Sl5yv64FUAbTg44hNuhVB3IHARBN60IYX1on4q6qdyN7zSmi4HtjN0FrIz4xy+amYi/TjScT/mc8JPZQIRoj529YGKWKCbuydFcmzQttpaqC1HrC7rMS2JdQ5eBdCGgyM+4VYIdQcCF0HgTRtyN3zxXnq+bjbixlywl6pjq44lOv3iIBNhUhiTwrgv3MfwEdopVEoGxRQqvRqfwtulR47OjSTSkhvmsGv3Cnrurvl81f9TP/yHkTrQho/cLYgDBIDACRN404YU1svd8JkwK1QsS3J7DEvZMWinmRj+tY9BIVDlhOvybjzKPfAjGxGaCYOrzOXGbNC1mJpcjje83wc8SHVAGw6CFfoKQAAIHI/AmzbEAu0U1utmZibnmKKzkByTd5iimb8V3e6Cu8FN/8o9bjszUVZHQpUf9W52pLTmWncktES60i3eGfEAf8Cjn0AbQBuAABA4cwJv2pAOMbkbfkAtHcWZ9J2F6MxYpxbVY4EegcqEu49h4MrDzj763ev80f5U0+gwici5iEzGVZWaK52B0pXUHteMLxKI8HLNHOrIWNCG82klR2uOkBEQOC8C3Oo7bgTeefKVO1nVkt2FSabg2LLTL0zcZUsY8zqmxBHufINwNk89qhConnIHwaTcLd8vTt0jWtszhRpxlVkm0nnxNdwNcW6lZAJT9tkl8mhDMjBMIjzfHP7rjz/+fTbszkb/z+thg9ICgTMisDpslSZC7Rd/SagbluLMZXshOTPGqUcHUT+VDjFvm4q/8CPMu/orVxs01+m/foKilTKE6kKjlnJjJpHT4mM3hpDukVDuWYEygb2e/LFrFtvie7QhFTBSQYFvGaANZ/RUQFGBABB404bCfXfQdY9ZnQjuXDRftrIRbvV5nHPXBgJny08SW5q9LmY1JXJKJvh0uOOuZwVtgN4MEAACQOBvBN60oZ1WTcGeiZbBzizRqUf15+tmEqVftzX8NS1xnv2GFMZkIv1u1lCalkZZSnPezWnFBzaBtkEb4P0ICAABIPCeQNRPp0N8Eutmb2i5MTNFZyospqI16FjFe+npqhH1UxehDX0iRFOELpHzlTYItWn1RXzxN0Ab3reJv70+QAQgAAS+HYGnq3Y2IiSC7fKTYNDLOe/MxOVUXPRL4/ytEPVTz9fNnz6oebb9BiJE12MyVxnr7YXcmClNq5FQQRu+XYsH5QMCQOAjBKJ+OhPm48F2KzUY9Zy54Mylpd4bkwkpE2ZTWG/13bRzn29wN3Xjnfxdn87rg447Ha237U7GSId70G8AeQACQAAIvCeQCDLpEBdDKKY4H/fdLW9zack3lOxdZ7VNOoX1LqDf8Pp903YCa7YIadi1JXI67DpceV5+ki5KG9KonA2CAQEg4BJwt2VtW0q48frhH5/dyoPJv3iid01q1/gJhIsjdBJrCvXRhFtMucVctNmKQYT6KZTNhkUC55Mo+7oJYLW/gd81iy+L7+7XWx3HLaUwt5pRf7v0KOqUrbanBr3gKxMyLhM4/Vo7ceeGtLF1/XmRed1JPkwj09c1rBzfOsr+hkxQLgfAgAAQcAlkdtSGNHpwbrt6w+yWJ7oY2FH2fuWtNicV8/PP163sXUOk5LkyH/bmM9ZmCk4aP/xHDnYv7a5g1/GTQTHm52J+LoVKSt3We+NBd8bXBi1CIkJtIkS7vQd8j7InutvIg9M0YrragDI8NTjG/gbQBpBGILAmANqw9oC/EUgG5VigW3yk1K5mquawNx/Rdju1SAal30jtZH+yOpl1dfYqX7Ll9kDvTEXS6OY00IaDvyutn1UIAIFjEgBt+IxHTuNaCutXXuhB31joi2FvPmgvq8+TmH+PL9GbuyyfKfauv02hUi6ixwP8yzXTy9p8Q9HaE7k5Zssj0AbQBiBwmQRAG3Z1lN74mZBO4EyT4Efc2FRNoz/XWsvSvRE70IcNjjiO5K0mgcm5iL4aWSKjM46UldZIaU2E2hS04TL9wjHfTyGv0yQA2vDOCe70ZyakJ4M9tjycCNMRP5oJS63lFO+HCUTcKZ3ziiy2NKkxlBojiZyDNoA2AIHLJADa8Bm/DNoA2nCZfuE032ShVMckANoA2rArgS/rN6RRd8Hy4WzbirdjPpCQFxA4EQLZ4G7P2hGW+e367OeQza9upcBuVds13zQqb+s3JBHxN1I7l5+804YU3k1hDIHz+yu/kAmq6eBktYY1ibJ/rmE9kWcGigEEgAAQ+DWB7Jb5hqxf/PUPz/p/vdqQDndiSCsR7GUj0r4qVQ3Q1QBbCmj5wDgZMKKYwHRev9+wrwwgHSAABIDAQQmANoA2bO60HrTZQeJAAAicOAHQBtAG0AYgAASAwHsCoA2gDe/bxIm/zkDxgAAQOAKBDK4RGFONuvuip9J0JizVpl24HWR9FzXfUPJLNVSrIEruB8dHbYnSV2dm0Hndu4Z1X8BhvgH0BggAgfMm8E4b5uJyGaU33gAAERNJREFU0HZqL9P8lqVT+/KeR06n5HfnmSuIUrgW5CRoA5zVCgSAABD4JQGvNoyF8VxcjHtOh7BLmHZk933Q7Io+MfeDWymEngFt+GWbOOidgMSBABA4CwJebRjxo7m4mDJOP+dUQoOzKP8HC1n0iZn/MCW/VA2qowJoA2gDEAACQOCXBF6uu9mIkA732ZI56CwnrDPhrV6FL0fYD7rdE46mlANaOaCUA1IZYYqBTuaqSt33huXx6rtvfMWsvije777tqy5Vv1j16yX/NO83kwHjJcQw9Ov3G/aVAaQDBIAAEDgogajP/V50Au10Msawa09YZ8xbQlMl7y9gLvpNG0oBJu+jSkGKiYnj2kwip4OO3ctP8nccaMN5z5gd9PGAxIHAtyUQ8/fSIf7F36xF5WHXHjPOmLMG/Un75QLmG960oRjoZ6+ajRtGyQ7nzYXcmKmtRSulx4MUaANoAxAAAkDgPYF4oJ8O8Y9X9eIDN+wux4w9Ys2JYNGJ4fnrpUcb/L30f8nOozgsTS3KlhszpWnVotLjVQ204X2bOP8bDzUCAkDgswQIjHedI04ToXa/aJiiM+zPRtx80XNaYaNwLVSDav6KP0938aYNZYTJXjU7j+Ky7Sg5XaMsiZzXY3ICbYM2fLYNnWfjgFoDASDwKwJebWim5AljG8zc1Qba4V7Mkl8q+sTiue6D+0kbqlifSwym9cWgNFJbJlMyyk88aMOvGgc4fSAABL4tAa82FB5ovW2OOdNgZwvaGRWcKqJk/sNUEOU8+fykDd1HVS+YWn40qc/lxqxFSNkbOol1oN8A8gAEgAAQeE/Aqw2pUENuTia89aoN9oJ06qiW/J9uDT3TeemftIFPjCY1W0ip8+ZCIqfVKJPCKdCG9w3iPN8CoBZAAAjsnYBWDqivDoHLXVFMTF92HYdxTG45Yky2omZvyRhSJUIdAu8ROJtBhXPxHgWES4Ua2dt27q5TeKB7BUNt2XrbkRsLKeGUA3L+im+EDjLlnsFoAmcIVE0Hx6mAkQoKfAu+3/DLjTbn0qqgnEDg2xB404a8r03dC0bZtLvOnF2MWEtqGPUEk45Q56kNfCrUSEdapad+IylxlalGOWrLFmrz/qM7lVK4Fg7UJQJt2PsrDCQIBIDAkQm8aUPR3y2jHfpZmDcWU8Ycs5bRs/iqUXnhzlEbikGeCDdToUY9LnCVqURaGuVIpNUvjuqYvppmP9AbAGjDkRsxZAcEgMDeCbxpQwmhM1f1CtYaVWdjZj5mrRnvDLvLZko5R20ooUI60kriZItQ9Lb9OqDkdho6Wb1wLZReT2Y90BIs0Ia9N1NIEAgAgSMTeNOGCtrPXZNFhBTT6pxdzgR70J0rrTlTmhQfuKi/lQ7xlbuzOYMv62PiaK2ZkoXa3J1jIC21ZfcKRuXl4EdFgTYcuRFDdkAACOydwJs2NCJCBesWkXrrvivVNJ2eDGlTb1tKY9HNjrMRNon2s9jZnLNUQPjCA03nh2LdfB1QsrnKtBrliHDzQENJ62RBG/beTCFBIAAEjkzgTRvqIa6K00WELKE1MkaxNdnoWQZtDzu2TNqN+DAd4tMIt/aAJx6o4HI3N5BISyItvjoT62YjKWVuqDhaO3TJQRuO3IghOyAABPZO4E0b8tftgr9ZCjbKWC13U6Jy/VHfmjDOoOOoTaeft6rPw3xo7wU4VILkjaY0l4OOu2iVKY3bGS131yHCzcwNBdpwKOiHJgvpAwEg8LUEYj/aRKjXL8yGXUdvz8WmIVEaXWYKz41EsFt+0HMRLe6X0kEjjczSiJUOWF9V4GxQIHB+ZbkbOR0Son6aSs0MyhqWJ2bTmTecQd4qB1bTDGo5oB+6qPC9aNAeIAAELpNAHhdTWD93ywlV06AtrT0f0FOJ0rpFqfQoETiTCUuFWyMdHKaDkzRipgPmoR3utvSzwdVxgSyBs3GETmFMKzkRq45aXwzLk0ltoRcsLj4CbbjMlrqtWcB1IAAEDkIgMkiiXNTfbsQHYt1UWqbRW+rdidwa9Quz3C2bCXOFO/116+9KHqYHKcYH9tJmUZYI0StLoO3SoyiTjk45Sm1hVKZ6YdJ7UWsYA9oA2gAEgAAQ+CyBDCKnUDkTkrIRofqs9AsTpWkqzZnUmCrNBVNyv5j24qMITHTlAR2mgwc5fOIjepNF+0SovbLSI9cvTIXqQiZtrbEcVadyZlgP91L/Vwdt+Gyb+MjNgDhAAAhcNoEcoqfRIYFqBCanULaRGBpdR26YdF4TyYlEznoFg4xruRvhxdeN+tgMftTz+Ep+qeSXqkGVxAelCJvEa0SY7OY0uWGy5ZFQm0rkfNCyBqVRLUQVkVY9xII2gDYAASAABD5LIIcY7kRC0CBQPR2SC3dyIzHkKwulZaodY9Cdy41pv2g0k8NshE8EmUTg2GtbV4de5K/4HNauxjpMWRVJQ2qMlNZEaoyE+pAvadQDnfdXC4EWGeZAGz7bJi77bQhqBwSAwEcI5AJjd4Y5OE0HRxlcjyNcLNBtxIcSOZPbusFMB525RM6EmtnJTEoPMuEO6B/P+az6Dat/K/e9XoU32JlGjyRKV7sGW5daObry0sj5S9nrchFp1XCYbzji7TlmU4C8gAAQOCaBXGDirkxF5u4p00EtHuDjgX4S7eXvabrMyG1dbhtCfSzWZzLp9PLz2vPBF4Z6q1+4do8Kb9+M+agtliZsXWJqotwe6L0x31DIdDt1m4uj6SpOVrBmKdguBjrQbziedHtvFYSBABD4DgRKAb6Gs1zcmJHOorMYlo1xfTBtDabUsJd1mnG7eDfOhPQEIsUDYtTHR318LmSsLY3qa3vdZ6D//d91hDSqx67FuE9KIWoGG6TwdhInE1g9jtbSkVblhaXzQ7W1VEvOMOdYdWdaduTkon0zLgfk1P/Syf/pftUdgf0NoENAAAh8LwIFH1fw0dSdLBJjozyfNaxpczxpDkYNXaw6TMGmUlMyZjz+aMQC7XSIcSerr7h4QEzjWi4yJFB1ba/fFFL//u86AoGq8YAUD0gxvxD18UmslY60Cg905YXtZHWmNBZqc7Vlj0nHrDmziqOlHfp+Vg7Iq6mIA52x+hG9AW34Xk/FR9oExAECl02g4OOzP3olhCPDfPdRMiozozIyqvqwqukdU6VmUmMi1Ee9olqL94hw9cmfifrYBCKkcSUX0QlMXts2UOsIrwElhcopVEqhUvGBrceFbm7AV2d62z0MQ2+73+qZtux51ZESdvduWkGU7H/Zkl+qYzqJf9mRsaANoA1AAAh8OwIVRC0HpFKALQd7rVuOiQlqXjeqI7mjKB1V6ahqV9P7A6EpdkpdMtMkY+PK0yB3I6VDPIGxa3udAFgtLf3p33UEN4Cz+VuZjI3p7IKvmu4uvOZSbdlKcyE3FquwVrLZZ6uCKEWfWLgWVt9mqCBKNbj61ukX3CDQhi+Avu1dA64DASBwFAJqJTAs+/WSKw9cCaGrWLce7jTu2lJbUml1yA5H/Ihv8nyT5xoc1+CEqs1XlmzJYgpm4Y7P3rApvBsPtrNXrY1WuBfKj1I9qjWTRr9gMkVLqNoy6SiN5eozDKszt4XanM4Pmym5fidXEGU1jrRev3QUFFsdIGjDVjRfe2MgdyAABA5FwK9VfJOyf1T2vy5MQrhysFcOdsoY1UjR3QIvkAO1PdE6E60z1TpTvTuV6tba1NZSbiyFmsmVZ0p2stHkxlJp2oO2PaLdUSONck1tOUxpzJYnEmnpbZstj1uEUnlhc3edAnbwb/XsChO0AbQBCACBb0bAr1d884pv9ioPWjkgll/loRTsJDEqd9uvRZVWaiDVl2pzOezYY9qRyPnaNGrxakuNWo6r5kZTWwu1ZSlNS2mao54z7DpKcyHWZ3p7oTQX3dygGuUKD3T2tk2EmwmsnkV6u/ruQ8cHbfhmTwXsHQECQMA/qFxbr/IwKfsH5YBSRoQywpSC/TQuE5iUDIoJhC8/jBsxs5d1uJIjkdO1MaUBVxlJ5ExtWUZlstE0ylKac6E2ZstDvb2QG7N+cUClxU5Wa6bkwgO9WslKhJupUIMIN/PoUbfdfURXQBtAG4AAEPhmBPyKKwl+vezXyn7l1VFK5YBYCgglVC0gcs4vZn1CPiAXg2oFH9TCg/qN3H0eiWlLLy6MijWqLsZ1e0o6U9LcaBblzBqOUbG14rJ5r5O3ai0iVUJCIcjmEbYQ5IooXwhyKyuiXAk5uc+UgjZ8s6cC3hmBABDYnUDRJ9ZQjboZ9x7mQmyxNj4pb7TO3ZiKjEh8UPu6hUYf6Rz8Ig5oA2gDEAACQOCfCaxWl+av+J/8Kdosb7LVOtTCtfCFm9d+Kufucgja8M9t4pOI4edAAAicOwHvutJ12A0E25vNL1UQhcQHq9MvzrH6oA2gDUAACACBfyBQ8kvlgFwNqjVUqwbVN0PZ6ibLX/Gro/S+cPPaJwUJtOEf2sQn+cLPgQAQuGgCQjmw0c7esYA2nP0tvOgHD+4OEDhxAoq7BHaDnXix/7l4oA3/zAicLxAAAkBgC4ENh7C+Hst69o4FtOHsb+GWJgv1AgJA4AgELlYb6n667merPq3oG6f9RgIV2Lbxrz/++Dd4HCAABIAAEPi2BJo+mrpmG1da7XpcuDbSiCC0QBt2Xwv8bRsQVBwIAIGLJADacIReJ2QBBIAAEDgzAqANZ3bDLvINBSoFBIDAqREAbQBtAAJAAAgAgfcEQBveEzk19YbyAAEgAASOTwC0AbQBCAABIAAE3hMAbXhP5Pj6DDkCASAABE6NAGgDaAMQAAJAAAi8JwDa8J7Iqak3lAcIAAEgcHwCoA2gDUAACAABIPCeAGjDeyLH12fIEQgAASBwagRAG0AbgMBZEqih2kY7NRcD5TlTAqANZ+kXzrS1QbH3SGCjMNRQbY9ZQFLfmQBoA2gDEDhLAqAN39lxH6HuoA1n6ReO0DIgixMnANpw4jfo3Iu3VRtqPgPseAQQugYGBPZBoPND3Gg1v7jRNkY+zsW2r73RDp17+we7Md/2dfvgWV93N2d9xeya9eZ0fDtXYWOrcC8G+tWAUPIP8/55MjCNYhLTGbnf9qn6dbDjEQiIVTAgsA8C1I/hRqv6hxttY+QjXbwWqI22pQr7K5W2Od8rYX9ZbL4L1JW4Oesf6s5Zb0R3vXMVNrYK92KAqQa4UkDPB2bJwDiKiX9qQxERwY5HIDAsggGBfRBo/DA3WtFvbrSNkY908WrY2GhbqrC/Uk235DvcXxab70Ljh7El68nOWW9Ed7VzFTa2iqLfrCD9CtIrBtR8YJwMDKMYz3Rev/uWxbtgxyOADLNgQGAfBKrX1kbLBayNtjHykS76ZtWNtqUK+yuVuSXf2f6y2HwXqtfbqjzfOeuN6Hw7V2Fjq8gFrDLSqSDtIsLnEC2JKC+hPkMP3DGlYqwLdjQCpafh2hIYFwsyYEDg9wiUsXEZG5fQUTFoVEPTtWVvphttHeELAvisutE8xT5Mqbbki88Ok93bXdhcXzff3bP2oGveWm92Zzb/so9UZ2OryN5Mq6F2HacqOF/EtcKtfheo9Wnd1QZzaoMdj8DEMf8yoTdiOwYYEPg9AkJl1s+Pmwm1+izEEXJt9zi50dYRviAQaMc3mqfYhylVc3O+gfZhsnu7C3GE2pw10to5aw+6ZLD7Zmgz+Zd9JM2NreIeJ7PBbDFQzPtbaT+TjQixmxbbV11tWCwdsOMRsOeLv2xpm7ZjgQGB3yPgLBx7bptjczaYOQtnbbbjbLR1hC8ImI6z0TzFPkiprC35mm+4DpLvYnu+1u5Zb0S3exU2tgrbcabcaNw2RtRs2LYE0qRJQ9fG/w/1ctD+uaWE4wAAAABJRU5ErkJggg==;" vertex="1" parent="418">
                    <mxGeometry y="104" width="409.83" height="306" as="geometry"/>
                </mxCell>
                <mxCell id="428" style="edgeStyle=none;html=1;entryX=0.305;entryY=0.038;entryDx=0;entryDy=0;entryPerimeter=0;" edge="1" parent="1" source="396" target="418">
                    <mxGeometry relative="1" as="geometry"/>
                </mxCell>
            </root>
        </mxGraphModel>
    </diagram>
</mxfile>